<?xml version="1.0" encoding="UTF-8" standalone="no"?>
<!-- Generator: Adobe Illustrator 15.1.0, SVG Export Plug-In . SVG Version: 6.00 Build 0)  -->

<svg
   xmlns:dc="http://purl.org/dc/elements/1.1/"
   xmlns:cc="http://creativecommons.org/ns#"
   xmlns:rdf="http://www.w3.org/1999/02/22-rdf-syntax-ns#"
   xmlns:svg="http://www.w3.org/2000/svg"
   xmlns="http://www.w3.org/2000/svg"
   xmlns:sodipodi="http://sodipodi.sourceforge.net/DTD/sodipodi-0.dtd"
   xmlns:inkscape="http://www.inkscape.org/namespaces/inkscape"
   version="1.1"
   id="svg3857"
   inkscape:version="0.48.2 r9819"
   sodipodi:docname="win8-tile.svg"
   x="0px"
   y="0px"
   width="150"
   height="150"
   viewBox="0 0 150 150"
   enable-background="new 0 0 135 155"
   xml:space="preserve"
   inkscape:export-filename="/Users/brion/src/wiki/mobile/WikipediaMetro/WikipediaMetroTest/win8-tile.scale-80.png"
   inkscape:export-xdpi="72"
   inkscape:export-ydpi="72"><metadata
   id="metadata4468"><rdf:RDF><cc:Work
       rdf:about=""><dc:format>image/svg+xml</dc:format><dc:type
         rdf:resource="http://purl.org/dc/dcmitype/StillImage" /><dc:title></dc:title></cc:Work></rdf:RDF></metadata>
<defs
   id="defs3773"><linearGradient
   id="linearGradient5363"><stop
     style="stop-color:#e8e8e8;stop-opacity:1;"
     offset="0"
     id="stop5365" /><stop
     style="stop-color:#ffffff;stop-opacity:1;"
     offset="1"
     id="stop5367" /></linearGradient>
	
	
		<inkscape:perspective
   id="perspective4854"
   sodipodi:type="inkscape:persp3d"
   inkscape:vp_z="135 : 77.5 : 1"
   inkscape:vp_y="0 : 1000 : 0"
   inkscape:vp_x="0 : 77.5 : 1"
   inkscape:persp3d-origin="67.5 : 51.666667 : 1">
		</inkscape:perspective>
	
		<inkscape:perspective
   id="perspective10537"
   sodipodi:type="inkscape:persp3d"
   inkscape:vp_z="1 : 0.5 : 1"
   inkscape:vp_y="0 : 1000 : 0"
   inkscape:vp_x="0 : 0.5 : 1"
   inkscape:persp3d-origin="0.5 : 0.33333333 : 1">
		</inkscape:perspective>
</defs>
<sodipodi:namedview
   id="namedview4848"
   showgrid="false"
   pagecolor="#ffffff"
   objecttolerance="10"
   guidetolerance="10"
   inkscape:cy="46.532409"
   inkscape:guide-bbox="true"
   showguides="true"
   inkscape:zoom="2.3"
   inkscape:pageopacity="0"
   gridtolerance="10"
   inkscape:window-height="698"
   bordercolor="#666666"
   inkscape:window-y="76"
   borderopacity="1"
   inkscape:pageshadow="2"
   inkscape:window-x="110"
   inkscape:window-width="506"
   inkscape:cx="68.043478"
   inkscape:current-layer="svg3857"
   inkscape:window-maximized="0">
	
	
	
	
	
	
	
	
	
	
</sodipodi:namedview>

<rect
   style="fill:#cccccc;fill-opacity:1;fill-rule:evenodd;stroke:none"
   id="rect4593"
   width="150"
   height="150"
   x="0"
   y="0" /><g
   id="Wikipedia"
   transform="matrix(2.9448189,0,0,2.9448189,10.241031,-299.76622)">
	<path
   id="path3898"
   d="m 18.757,118.893 c 0,0 -0.367,-0.746 -0.492,-0.994 -0.834,-1.652 -0.816,-1.74 -1.659,-1.852 -0.236,-0.031 -0.358,-0.061 -0.358,-0.178 v -0.523 l 0.071,-0.051 c 1.523,-0.002 4.912,-0.002 4.912,-0.002 l 0.13,0.043 v 0.521 c 0,0.119 -0.085,0.18 -0.258,0.18 l -0.356,0.051 c -0.9,0.07 -0.753,0.438 -0.155,1.629 l 5.677,11.615 0.194,0.053 5.04,-11.961 c 0.175,-0.482 0.148,-0.824 -0.077,-1.025 -0.226,-0.195 -0.385,-0.312 -0.969,-0.336 l -0.473,-0.023 c -0.058,0 -0.113,-0.021 -0.166,-0.061 -0.052,-0.037 -0.079,-0.086 -0.079,-0.145 v -0.498 l 0.072,-0.051 c 1.42,0 5.694,0 5.694,0 l 0.058,0.051 v 0.498 c 0,0.135 -0.077,0.203 -0.229,0.203 -0.746,0.033 -1.299,0.195 -1.657,0.484 -0.359,0.291 -0.639,0.691 -0.84,1.213 0,0 -4.635,10.608 -6.221,14.135 -0.607,1.156 -1.204,1.05 -1.729,-0.033 -1.109,-2.284 -4.232,-9.213 -4.232,-9.213 l -1.898,-3.73 z"
   inkscape:connector-curvature="0" />
	<path
   id="path3900"
   d="m 27.853,115.287 c 0,0 -3.203,-0.01 -4.629,0 l -0.071,0.051 v 0.496 c 0,0.061 0.026,0.109 0.078,0.146 0.053,0.039 0.107,0.059 0.165,0.059 l 0.229,0.025 c 0.583,0.023 0.851,0.177 0.931,0.272 0.139,0.17 0.208,0.354 -0.129,1.089 l -5.98,11.928 -0.157,-0.041 c 0,0 -4.283,-9.031 -5.523,-12.053 -0.129,-0.312 -0.187,-0.545 -0.187,-0.688 0,-0.307 0.277,-0.473 0.831,-0.496 l 0.646,-0.027 c 0.171,0 0.258,-0.066 0.258,-0.203 v -0.496 l -0.058,-0.051 c 0,0 -5.13,-0.006 -6.19,0 l -0.058,0.051 v 0.521 c 0,0.094 0.119,0.152 0.358,0.178 0.651,0.035 1.079,0.139 1.285,0.312 0.205,0.175 0.422,0.617 0.71,1.306 1.557,3.74 4.865,10.414 6.476,14.215 0.464,1.038 1.047,1.199 1.755,-0.032 1.226,-2.273 4.55,-9.218 4.55,-9.218 l 2.618,-4.896 c 0.305,-0.518 0.599,-0.979 0.748,-1.193 0.273,-0.393 0.426,-0.467 1.172,-0.502 0.152,0 0.229,-0.068 0.229,-0.205 v -0.496 l -0.057,-0.052 z"
   inkscape:connector-curvature="0" />
	
	
	
	
	
	
	
	
</g>

</svg>