<?xml version="1.0" encoding="UTF-8" standalone="no"?>
<!-- Generator: Adobe Illustrator 15.1.0, SVG Export Plug-In . SVG Version: 6.00 Build 0)  -->

<svg
   xmlns:dc="http://purl.org/dc/elements/1.1/"
   xmlns:cc="http://creativecommons.org/ns#"
   xmlns:rdf="http://www.w3.org/1999/02/22-rdf-syntax-ns#"
   xmlns:svg="http://www.w3.org/2000/svg"
   xmlns="http://www.w3.org/2000/svg"
   xmlns:xlink="http://www.w3.org/1999/xlink"
   xmlns:sodipodi="http://sodipodi.sourceforge.net/DTD/sodipodi-0.dtd"
   xmlns:inkscape="http://www.inkscape.org/namespaces/inkscape"
   version="1.1"
   id="svg3857"
   inkscape:version="0.48.2 r9819"
   sodipodi:docname="win8-wide-tile.svg"
   x="0px"
   y="0px"
   width="310"
   height="150"
   viewBox="0 0 310 150"
   enable-background="new 0 0 135 155"
   xml:space="preserve"><metadata
   id="metadata4468"><rdf:RDF><cc:Work
       rdf:about=""><dc:format>image/svg+xml</dc:format><dc:type
         rdf:resource="http://purl.org/dc/dcmitype/StillImage" /><dc:title /></cc:Work></rdf:RDF></metadata>
<defs
   id="defs3773"><linearGradient
   id="linearGradient5363"><stop
     style="stop-color:#e8e8e8;stop-opacity:1;"
     offset="0"
     id="stop5365" /><stop
     style="stop-color:#ffffff;stop-opacity:1;"
     offset="1"
     id="stop5367" /></linearGradient>
	
	
		<inkscape:perspective
   id="perspective4854"
   sodipodi:type="inkscape:persp3d"
   inkscape:vp_z="135 : 77.5 : 1"
   inkscape:vp_y="0 : 1000 : 0"
   inkscape:vp_x="0 : 77.5 : 1"
   inkscape:persp3d-origin="67.5 : 51.666667 : 1">
		</inkscape:perspective>
	
		<inkscape:perspective
   id="perspective10537"
   sodipodi:type="inkscape:persp3d"
   inkscape:vp_z="1 : 0.5 : 1"
   inkscape:vp_y="0 : 1000 : 0"
   inkscape:vp_x="0 : 0.5 : 1"
   inkscape:persp3d-origin="0.5 : 0.33333333 : 1">
		</inkscape:perspective>
<linearGradient
   inkscape:collect="always"
   xlink:href="#linearGradient5363"
   id="linearGradient5369"
   x1="-4.8600111e-09"
   y1="7.2900167e-07"
   x2="3.0132069e-06"
   y2="150"
   gradientUnits="userSpaceOnUse"
   gradientTransform="matrix(0.99838969,0,0,1,0.49919485,-1.4580033e-6)" /></defs>
<sodipodi:namedview
   id="namedview4848"
   showgrid="false"
   pagecolor="#ffffff"
   objecttolerance="10"
   guidetolerance="10"
   inkscape:cy="46.532409"
   inkscape:guide-bbox="true"
   showguides="true"
   inkscape:zoom="2"
   inkscape:pageopacity="0"
   gridtolerance="10"
   inkscape:window-height="730"
   bordercolor="#666666"
   inkscape:window-y="24"
   borderopacity="1"
   inkscape:pageshadow="2"
   inkscape:window-x="32"
   inkscape:window-width="1198"
   inkscape:cx="154.17845"
   inkscape:current-layer="svg3857"
   inkscape:window-maximized="0">
	
	
	
	
	
	
	
	
	
	
</sodipodi:namedview>

<rect
   style="fill:url(#linearGradient5369);fill-opacity:1;fill-rule:evenodd;stroke:none"
   id="rect4593"
   width="310"
   height="150"
   x="0"
   y="0" /><g
   id="Wikipedia"
   transform="matrix(2.2505301,0,0,2.2505301,-2.0244956,-209.46606)">
	<path
   id="path3898"
   d="m 18.757,118.893 c 0,0 -0.367,-0.746 -0.492,-0.994 -0.834,-1.652 -0.816,-1.74 -1.659,-1.852 -0.236,-0.031 -0.358,-0.061 -0.358,-0.178 v -0.523 l 0.071,-0.051 c 1.523,-0.002 4.912,-0.002 4.912,-0.002 l 0.13,0.043 v 0.521 c 0,0.119 -0.085,0.18 -0.258,0.18 l -0.356,0.051 c -0.9,0.07 -0.753,0.438 -0.155,1.629 l 5.677,11.615 0.194,0.053 5.04,-11.961 c 0.175,-0.482 0.148,-0.824 -0.077,-1.025 -0.226,-0.195 -0.385,-0.312 -0.969,-0.336 l -0.473,-0.023 c -0.058,0 -0.113,-0.021 -0.166,-0.061 -0.052,-0.037 -0.079,-0.086 -0.079,-0.145 v -0.498 l 0.072,-0.051 c 1.42,0 5.694,0 5.694,0 l 0.058,0.051 v 0.498 c 0,0.135 -0.077,0.203 -0.229,0.203 -0.746,0.033 -1.299,0.195 -1.657,0.484 -0.359,0.291 -0.639,0.691 -0.84,1.213 0,0 -4.635,10.608 -6.221,14.135 -0.607,1.156 -1.204,1.05 -1.729,-0.033 -1.109,-2.284 -4.232,-9.213 -4.232,-9.213 l -1.898,-3.73 z"
   inkscape:connector-curvature="0" />
	<path
   id="path3900"
   d="m 27.853,115.287 c 0,0 -3.203,-0.01 -4.629,0 l -0.071,0.051 v 0.496 c 0,0.061 0.026,0.109 0.078,0.146 0.053,0.039 0.107,0.059 0.165,0.059 l 0.229,0.025 c 0.583,0.023 0.851,0.177 0.931,0.272 0.139,0.17 0.208,0.354 -0.129,1.089 l -5.98,11.928 -0.157,-0.041 c 0,0 -4.283,-9.031 -5.523,-12.053 -0.129,-0.312 -0.187,-0.545 -0.187,-0.688 0,-0.307 0.277,-0.473 0.831,-0.496 l 0.646,-0.027 c 0.171,0 0.258,-0.066 0.258,-0.203 v -0.496 l -0.058,-0.051 c 0,0 -5.13,-0.006 -6.19,0 l -0.058,0.051 v 0.521 c 0,0.094 0.119,0.152 0.358,0.178 0.651,0.035 1.079,0.139 1.285,0.312 0.205,0.175 0.422,0.617 0.71,1.306 1.557,3.74 4.865,10.414 6.476,14.215 0.464,1.038 1.047,1.199 1.755,-0.032 1.226,-2.273 4.55,-9.218 4.55,-9.218 l 2.618,-4.896 c 0.305,-0.518 0.599,-0.979 0.748,-1.193 0.273,-0.393 0.426,-0.467 1.172,-0.502 0.152,0 0.229,-0.068 0.229,-0.205 v -0.496 l -0.057,-0.052 z"
   inkscape:connector-curvature="0" />
	<path
   id="path3904"
   d="m 37.592,130.77 c 0,0.572 0.26,0.91 1.092,0.988 l 0.546,0.053 c 0.078,0 0.156,0.051 0.156,0.155 v 0.546 l -0.026,0.053 c 0,0 -1.976,-0.053 -2.782,-0.053 -0.728,0 -2.756,0.053 -2.756,0.053 l -0.052,-0.053 v -0.546 c 0,-0.104 0.078,-0.155 0.182,-0.155 l 0.52,-0.053 c 0.858,-0.078 1.118,-0.494 1.118,-0.988 v -8.658 c 0,-0.57 -0.313,-0.729 -1.118,-0.805 l -0.52,-0.054 c -0.104,0 -0.182,-0.024 -0.182,-0.104 v -0.599 l 0.026,-0.052 c 0,0 2.054,0.052 2.86,0.052 0.702,0 2.704,-0.052 2.704,-0.052 l 0.026,0.052 v 0.572 c 0,0.078 -0.052,0.13 -0.156,0.13 l -0.546,0.053 c -0.806,0.077 -1.092,0.286 -1.092,0.807 v 8.658 z"
   inkscape:connector-curvature="0" />
	<path
   id="path3906"
   d="m 45.265,130.77 c 0,0.572 0.338,0.858 1.092,0.988 l 0.286,0.053 c 0.078,0.025 0.156,0.051 0.156,0.155 v 0.546 l -0.026,0.053 c 0,0 -1.638,-0.053 -2.418,-0.053 -0.728,0 -2.86,0.053 -2.86,0.053 l -0.052,-0.053 v -0.546 c 0,-0.104 0.078,-0.155 0.182,-0.155 l 0.52,-0.053 c 0.78,-0.078 1.118,-0.494 1.118,-0.988 v -8.658 c 0,-0.57 -0.286,-0.729 -1.118,-0.805 l -0.52,-0.054 c -0.104,0 -0.182,-0.024 -0.182,-0.104 v -0.599 l 0.026,-0.052 c 0,0 2.132,0.052 2.938,0.052 0.729,0 2.366,-0.052 2.366,-0.052 l 0.026,0.052 v 0.572 c 0,0.078 -0.052,0.104 -0.156,0.13 l -0.286,0.053 c -0.806,0.155 -1.092,0.286 -1.092,0.807 v 3.927 c 0.858,0 1.352,-0.44 2.496,-1.664 1.04,-1.146 1.846,-2.104 1.846,-2.601 0,-0.209 -0.234,-0.441 -0.754,-0.521 -0.104,-0.024 -0.156,-0.052 -0.156,-0.13 v -0.6 l 0.026,-0.024 c 0,0 2.106,0.052 2.86,0.052 0.676,0 1.82,-0.052 1.82,-0.052 l 0.078,0.024 v 0.6 c 0,0.078 -0.078,0.13 -0.208,0.13 -1.014,0.078 -1.716,0.13 -2.652,1.196 l -2.236,2.572 c -0.442,0.47 -0.598,0.754 -0.598,0.963 0,0.156 0.104,0.285 0.234,0.441 l 3.926,4.732 c 0.312,0.363 0.936,0.52 1.456,0.623 l 0.13,0.025 c 0.078,0.025 0.182,0.077 0.182,0.155 v 0.546 l -0.078,0.026 c 0,0 -1.378,-0.026 -2.106,-0.026 -0.65,0 -1.586,0.026 -1.586,0.026 l -0.026,-0.026 v -0.312 c 0,-0.339 -0.026,-0.623 -0.39,-1.039 l -2.886,-3.589 c -0.39,-0.521 -0.806,-0.649 -1.378,-0.649 v 3.853 l 0,0 z"
   inkscape:connector-curvature="0" />
	<path
   id="path3908"
   d="m 59.282,130.77 c 0,0.572 0.26,0.91 1.092,0.988 l 0.546,0.053 c 0.078,0 0.156,0.051 0.156,0.155 v 0.546 l -0.026,0.053 c 0,0 -1.976,-0.053 -2.782,-0.053 -0.728,0 -2.756,0.053 -2.756,0.053 l -0.052,-0.053 v -0.546 c 0,-0.104 0.078,-0.155 0.182,-0.155 l 0.52,-0.053 c 0.858,-0.078 1.118,-0.494 1.118,-0.988 v -8.658 c 0,-0.57 -0.312,-0.729 -1.118,-0.805 l -0.52,-0.054 c -0.104,0 -0.182,-0.024 -0.182,-0.104 v -0.599 l 0.026,-0.052 c 0,0 2.054,0.052 2.86,0.052 0.702,0 2.704,-0.052 2.704,-0.052 l 0.026,0.052 v 0.572 c 0,0.078 -0.052,0.13 -0.156,0.13 l -0.546,0.053 c -0.806,0.077 -1.092,0.286 -1.092,0.807 v 8.658 z"
   inkscape:connector-curvature="0" />
	<path
   id="path3910"
   d="m 64.9,122.163 c 0,-0.806 -0.338,-0.832 -1.56,-0.91 -0.156,0 -0.182,-0.077 -0.182,-0.13 v -0.598 l 0.052,-0.026 c 0.39,0 1.924,0.052 2.678,0.052 0.728,0 1.768,-0.052 2.73,-0.052 3.69,0 4.366,1.819 4.366,3.173 0,1.561 -0.754,4.004 -4.444,4.004 -0.65,0 -1.17,-0.053 -1.639,-0.26 v 3.482 c 0,0.571 0.312,0.703 1.145,0.832 l 0.521,0.078 c 0.104,0.025 0.183,0.053 0.183,0.155 v 0.546 l -0.024,0.053 c 0,0 -2.081,-0.053 -2.887,-0.053 -0.728,0 -2.678,0.053 -2.678,0.053 l -0.026,-0.053 v -0.546 c 0,-0.104 0.052,-0.13 0.156,-0.155 l 0.546,-0.078 c 0.806,-0.104 1.066,-0.338 1.066,-0.832 l -0.003,-8.735 0,0 0,0 z m 2.002,4.525 c 0.52,0.209 1.17,0.234 1.69,0.234 1.561,0 2.312,-0.938 2.312,-2.938 0,-2.236 -1.014,-2.73 -2.442,-2.73 -1.249,0 -1.561,0.234 -1.561,0.91 l 0.001,4.524 0,0 z"
   inkscape:connector-curvature="0" />
	<path
   id="path3912"
   d="m 77.462,132.512 c -0.78,0 -2.573,0.053 -2.573,0.053 l -0.027,-0.053 v -0.572 c 0,-0.051 0.027,-0.129 0.156,-0.129 l 0.6,-0.053 c 0.807,-0.078 1.041,-0.598 1.041,-1.117 v -8.58 c 0,-0.6 -0.312,-0.703 -1.041,-0.754 l -0.6,-0.054 c -0.156,-0.024 -0.156,-0.077 -0.156,-0.104 v -0.599 l 0.027,-0.052 c 0,0 2.027,0.052 2.807,0.052 h 3.822 c 0.78,0 2.627,-0.052 2.627,-0.052 l 0.054,0.052 c 0.024,1.118 0.206,2.134 0.39,3.121 l -0.648,0.104 c -0.285,-0.963 -0.779,-2.34 -2.443,-2.34 h -2.08 c -0.494,0 -0.754,0.182 -0.754,0.623 v 3.771 h 1.949 c 0.729,0 0.91,-0.312 1.015,-0.832 l 0.155,-0.546 c 0,-0.078 0.053,-0.131 0.156,-0.131 h 0.44 c 0.054,0 0.054,0.027 0.054,0.078 -0.054,0.571 -0.156,1.301 -0.156,1.925 0,0.649 0.104,1.196 0.156,1.794 l -0.054,0.053 h -0.44 c -0.129,0 -0.184,-0.053 -0.184,-0.131 l -0.13,-0.571 c -0.104,-0.521 -0.338,-0.807 -1.017,-0.807 H 78.66 v 3.979 c 0,0.492 0.283,0.986 0.754,0.986 h 2.47 c 1.326,0 2.056,-0.832 2.366,-2.186 l 0.648,0.078 -0.521,2.989 -0.052,0.052 c 0,0 -1.534,-0.052 -2.314,-0.052 l -4.549,0.005 0,0 0,0 z"
   inkscape:connector-curvature="0" />
	<path
   id="path3914"
   d="m 87.24,131.811 0.598,-0.053 c 0.781,-0.078 1.041,-0.312 1.041,-1.117 v -8.58 c 0,-0.678 -0.184,-0.678 -1.041,-0.754 l -0.57,-0.054 c -0.104,0 -0.184,-0.052 -0.184,-0.13 v -0.572 l 0.025,-0.052 c 0,0 2.289,0.052 2.758,0.052 0.492,0 2.756,-0.052 3.432,-0.052 4.342,0 6.475,2.704 6.475,6.162 0,4.551 -3.225,5.901 -6.109,5.901 -2.08,0 -2.989,-0.053 -3.795,-0.053 -0.781,0 -2.758,0.053 -2.758,0.053 l -0.025,-0.053 v -0.546 c -0.003,-0.074 0.05,-0.152 0.153,-0.152 z m 5.799,0 c 2.859,0 4.473,-1.064 4.473,-4.707 0,-2.703 -0.599,-5.851 -4.967,-5.851 -1.014,0 -1.664,0.156 -1.664,0.808 v 8.58 c 0,0.726 0.181,1.17 2.158,1.17 z"
   inkscape:connector-curvature="0" />
	<path
   id="path3916"
   d="m 105.912,130.77 c 0,0.572 0.26,0.91 1.092,0.988 l 0.546,0.053 c 0.078,0 0.156,0.051 0.156,0.155 v 0.546 l -0.026,0.053 c 0,0 -1.976,-0.053 -2.781,-0.053 -0.729,0 -2.756,0.053 -2.756,0.053 l -0.053,-0.053 v -0.546 c 0,-0.104 0.078,-0.155 0.182,-0.155 l 0.521,-0.053 c 0.857,-0.078 1.118,-0.494 1.118,-0.988 v -8.658 c 0,-0.57 -0.313,-0.729 -1.118,-0.805 l -0.521,-0.054 c -0.104,0 -0.182,-0.024 -0.182,-0.104 v -0.599 l 0.026,-0.052 c 0,0 2.054,0.052 2.858,0.052 0.701,0 2.705,-0.052 2.705,-0.052 l 0.024,0.052 v 0.572 c 0,0.078 -0.054,0.13 -0.156,0.13 l -0.546,0.053 c -0.807,0.077 -1.092,0.286 -1.092,0.807 l 0.003,8.658 0,0 0,0 z"
   inkscape:connector-curvature="0" />
	<path
   id="path3918"
   d="m 113.922,131.758 0.754,0.053 c 0.104,0 0.208,0.078 0.208,0.207 v 0.494 l -0.052,0.053 c 0,0 -2.834,-0.053 -3.458,-0.053 -0.677,0 -2.341,0.053 -2.341,0.053 l -0.053,-0.053 v -0.494 c 0,-0.129 0.078,-0.207 0.209,-0.207 1.145,-0.078 1.793,-0.287 2.521,-1.951 l 5.771,-13.521 c 0.285,-0.676 0.494,-0.937 0.886,-0.937 0.362,0 0.493,0.261 0.7,0.781 l 5.33,14.092 c 0.365,1.015 0.886,1.404 1.926,1.508 l 0.285,0.025 c 0.131,0 0.261,0.077 0.261,0.209 v 0.492 l -0.078,0.053 c 0,0 -2.002,-0.053 -3.017,-0.053 -0.91,0 -3.459,0.053 -3.459,0.053 l -0.024,-0.053 v -0.492 c 0,-0.132 0.052,-0.209 0.185,-0.209 l 0.728,-0.053 c 0.987,-0.077 1.353,-0.391 1.092,-1.117 l -1.586,-4.396 h -5.41 c -0.624,0 -0.78,0.104 -0.909,0.44 l -1.509,3.771 c -0.26,0.654 0.078,1.227 1.04,1.305 z m 6.37,-6.606 -2.522,-6.941 h -0.052 l -2.6,6.604 c -0.104,0.262 0.077,0.338 0.649,0.338 h 4.525 l 0,-0.001 z"
   inkscape:connector-curvature="0" />
</g>

</svg>