<svg xmlns="http://www.w3.org/2000/svg" fill="none" viewBox="0 0 396 414"><g filter="url(#filter0_dd)"><rect width="96" height="96" x="20" y="53" fill="#F9F9F9" rx="20"/><path fill="#12100C" fill-rule="evenodd" d="M68.126 75.666c-6.36-.006-12.516 2.186-17.362 6.184-4.847 3.997-8.068 9.539-9.087 15.632-1.018 6.092.233 12.338 3.529 17.617 3.296 5.279 8.421 9.246 14.458 11.191 1.348.24 1.824-.574 1.824-1.259v-4.417c-7.476 1.579-9.054-3.492-9.054-3.492a6.978 6.978 0 00-2.974-3.81c-2.415-1.595.197-1.595.197-1.595a5.741 5.741 0 012.364.882 5.532 5.532 0 011.728 1.797c.363.64.853 1.203 1.442 1.659a5.799 5.799 0 001.988.995 5.902 5.902 0 002.23.179 5.843 5.843 0 002.128-.665 5.45 5.45 0 011.644-3.476c-5.949-.653-12.193-2.886-12.193-12.755a9.878 9.878 0 012.744-6.968 9.21 9.21 0 01.263-6.872s2.251-.702 7.362 2.663a26.068 26.068 0 0113.408 0c5.11-3.365 7.345-2.663 7.345-2.663a9.165 9.165 0 01.329 6.824 9.879 9.879 0 012.744 6.968c0 9.981-6.26 12.166-12.226 12.756a6.106 6.106 0 011.449 2.199 5.97 5.97 0 01.375 2.584v7.127c0 .845.477 1.499 1.84 1.244 5.969-1.997 11.018-5.975 14.255-11.234 3.238-5.259 4.456-11.458 3.44-17.504-1.016-6.045-4.202-11.548-8.994-15.535-4.793-3.988-10.883-6.203-17.196-6.255z" clip-rule="evenodd"/></g><g filter="url(#filter1_dd)"><rect width="96" height="96" x="150" y="15" fill="#F9F9F9" rx="20"/><path fill="#2684FF" d="M175.575 41.667h-.02a1.563 1.563 0 00-1.535 1.804l6.602 40.078a2.121 2.121 0 002.068 1.765h31.672a1.56 1.56 0 001.555-1.307l6.602-40.528a1.563 1.563 0 00-1.535-1.804h-.02l-45.389-.008zm27.8 28.966h-10.109l-2.737-14.3h15.295l-2.449 14.3z"/><path fill="url(#paint0_linear)" d="M220.418 56.333h-14.595l-2.45 14.3h-10.109L181.328 84.8c.378.328.861.51 1.361.514h31.679a1.561 1.561 0 001.556-1.307l4.494-27.675z"/></g><g filter="url(#filter2_dd)"><rect width="96" height="96" x="280" y="53" fill="#F9F9F9" rx="20"/><g clip-path="url(#clip0)"><path fill="#252F3E" d="M314.899 95.438c0 .762.08 1.379.219 1.832.16.452.36.946.639 1.481.1.165.14.33.14.473 0 .206-.12.412-.379.618l-1.258.864a.939.939 0 01-.518.185c-.2 0-.399-.103-.599-.288a6.352 6.352 0 01-.718-.967c-.2-.35-.399-.74-.619-1.214-1.556 1.893-3.512 2.839-5.866 2.839-1.676 0-3.013-.493-3.991-1.481-.978-.988-1.476-2.305-1.476-3.95 0-1.75.598-3.17 1.815-4.24 1.218-1.07 2.834-1.604 4.889-1.604.678 0 1.377.061 2.115.164.738.103 1.497.268 2.295.453V89.1c0-1.564-.32-2.655-.938-3.292-.639-.638-1.716-.947-3.253-.947a8.81 8.81 0 00-2.154.268c-.739.185-1.457.411-2.155.7a5.62 5.62 0 01-.699.267 1.182 1.182 0 01-.319.061c-.279 0-.419-.205-.419-.638v-1.008c0-.329.04-.576.14-.72.099-.144.279-.288.558-.432.699-.37 1.537-.679 2.514-.926.978-.267 2.016-.39 3.113-.39 2.375 0 4.111.555 5.228 1.666 1.097 1.11 1.656 2.798 1.656 5.062v6.666h.04zm-8.101 3.128c.658 0 1.337-.124 2.055-.37.718-.247 1.357-.7 1.896-1.317.319-.391.558-.823.678-1.317s.2-1.09.2-1.79v-.865a16.259 16.259 0 00-1.836-.35 14.594 14.594 0 00-1.876-.123c-1.337 0-2.314.268-2.973.823-.658.556-.977 1.338-.977 2.367 0 .967.239 1.687.738 2.18.479.515 1.177.762 2.095.762zm16.023 2.222c-.36 0-.599-.062-.759-.206-.159-.123-.299-.411-.419-.802l-4.689-15.906c-.12-.411-.179-.679-.179-.823 0-.329.159-.514.478-.514h1.956c.379 0 .638.062.778.206.16.123.279.411.399.802l3.352 13.622 3.113-13.622c.1-.411.22-.679.379-.802.16-.124.439-.206.798-.206h1.597c.379 0 .638.062.798.206.159.123.299.411.379.802l3.153 13.786 3.451-13.786c.12-.411.26-.679.4-.802.159-.124.419-.206.778-.206h1.855c.32 0 .499.164.499.514 0 .103-.02.206-.04.33a3.07 3.07 0 01-.139.514l-4.809 15.906c-.12.411-.26.678-.419.802-.16.123-.419.206-.758.206h-1.716c-.379 0-.639-.062-.799-.206-.159-.144-.299-.412-.379-.823l-3.092-13.272-3.073 13.251c-.1.412-.22.679-.379.823-.16.144-.439.206-.798.206h-1.716zm25.64.556a12.82 12.82 0 01-3.073-.371c-.998-.247-1.776-.514-2.295-.823-.319-.185-.539-.39-.618-.576-.08-.185-.12-.39-.12-.576v-1.05c0-.431.16-.637.459-.637.12 0 .239.02.359.061.12.042.299.124.499.206.678.309 1.417.556 2.195.72a11.63 11.63 0 002.374.247c1.257 0 2.235-.226 2.913-.679.679-.452 1.038-1.11 1.038-1.954 0-.577-.18-1.05-.539-1.44-.359-.392-1.037-.741-2.015-1.07l-2.893-.927c-1.457-.473-2.534-1.173-3.193-2.099-.658-.905-.998-1.913-.998-2.983 0-.864.18-1.626.539-2.284a5.238 5.238 0 011.437-1.687 6.256 6.256 0 012.075-1.07c.798-.247 1.636-.35 2.514-.35.439 0 .898.02 1.337.082.459.062.878.144 1.297.227.399.102.778.205 1.137.329.36.123.639.247.838.37.28.165.479.33.599.515.12.164.18.39.18.679v.967c0 .432-.16.658-.459.658-.16 0-.419-.082-.759-.247-1.137-.535-2.414-.802-3.831-.802-1.137 0-2.035.185-2.653.576-.619.39-.938.988-.938 1.831 0 .576.199 1.07.598 1.461.399.391 1.138.782 2.195 1.132l2.834.926c1.436.473 2.474 1.131 3.092 1.975.619.844.918 1.81.918 2.88 0 .885-.179 1.688-.519 2.388a5.502 5.502 0 01-1.456 1.81c-.619.515-1.357.885-2.215 1.153a9.226 9.226 0 01-2.853.432z"/><path fill="#F90" d="M352.232 111.343c-6.565 5-16.102 7.655-24.303 7.655-11.493 0-21.849-4.383-29.671-11.667-.619-.576-.06-1.358.678-.905 8.461 5.061 18.896 8.127 29.691 8.127 7.283 0 15.284-1.563 22.647-4.773 1.098-.515 2.036.74.958 1.563z"/><path fill="#F90" d="M354.966 108.133c-.838-1.111-5.547-.535-7.682-.267-.639.082-.739-.494-.16-.926 3.751-2.716 9.917-1.934 10.635-1.029.718.926-.199 7.284-3.711 10.329-.539.474-1.058.227-.818-.391.798-2.037 2.574-6.625 1.736-7.716z"/></g></g><g filter="url(#filter3_dd)"><rect width="96" height="96" x="20" y="173" fill="#F9F9F9" rx="20"/><path fill="#E24329" d="M68.294 244.803l-9.719-29.411h19.424l-9.705 29.411z"/><path fill="#FCA326" d="M91.61 215.392l2.96 8.935a1.963 1.963 0 01-.729 2.213l-25.55 18.263 23.319-29.411z"/><path fill="#E24329" d="M91.61 215.392H77.995l5.859-17.712c.3-.907 1.606-.907 1.917 0l5.837 17.712z"/><path fill="#FCA326" d="M44.96 215.392l-2.95 8.935a1.963 1.963 0 00.729 2.213l25.553 18.263-23.333-29.411z"/><path fill="#E24329" d="M44.961 215.392h13.613l-5.848-17.712c-.3-.907-1.606-.907-1.917 0l-5.848 17.712z"/><path fill="#FC6D26" d="M68.292 244.803l-9.72-29.411H44.96l23.333 29.411z"/><path fill="#FC6D26" d="M68.291 244.803l23.318-29.411H77.996l-9.705 29.411z"/></g><g filter="url(#filter4_dd)"><rect width="96" height="96" x="84" y="293" fill="#F9F9F9" rx="20"/><path fill="#0089D6" d="M130.056 358.81a8873.866 8873.866 0 0012.263-2.209l.115-.025-6.307-7.637c-3.47-4.2-6.308-7.653-6.308-7.673 0-.038 6.513-18.294 6.55-18.359.012-.022 4.444 7.767 10.744 18.882l10.805 19.065.082.146-20.045-.003-20.045-.002 12.146-2.185zM106 356.482c0-.011 2.972-5.263 6.604-11.671l6.605-11.651 7.696-6.575c4.234-3.616 7.709-6.579 7.722-6.585.014-.005-.041.137-.123.317l-8.358 18.248-8.208 17.921-5.969.007c-3.283.005-5.969-.001-5.969-.011z"/></g><g filter="url(#filter5_dd)"><rect width="96" height="96" x="280" y="173" fill="#F9F9F9" rx="20"/><path fill="#326DE6" d="M351.869 204.849c-.335-1.073-1.14-1.945-2.146-2.481l-20.455-9.792c-.536-.268-1.14-.335-1.676-.335-.537 0-1.141 0-1.677.134l-20.455 9.859a3.602 3.602 0 00-2.012 2.481l-5.03 22.065a4.23 4.23 0 00.738 3.219l14.151 17.504c.804.805 1.944 1.341 3.085 1.408h22.534c1.207.135 2.347-.402 3.085-1.408l14.151-17.504c.67-.939.939-2.079.804-3.219l-5.097-21.931z"/><path fill="#fff" d="M348.716 225.908c-.067 0-.135 0-.135-.067s-.134-.067-.268-.067c-.268-.067-.536-.067-.805-.067-.134 0-.268 0-.402-.068h-.067a13.545 13.545 0 01-2.28-.402.811.811 0 01-.47-.469c.067 0 0 0 0 0l-.536-.135c.268-1.944.134-3.956-.269-5.901a18.164 18.164 0 00-2.347-5.5l.403-.402v-.067c0-.201.067-.47.201-.604.603-.536 1.207-.939 1.878-1.341l.402-.201c.268-.134.469-.269.738-.403.067-.067.134-.067.201-.134s0-.067 0-.134c.604-.469.738-1.274.268-1.878a1.28 1.28 0 00-.939-.469c-.335 0-.67.134-.939.335l-.067.067c-.067.067-.134.134-.201.134-.201.201-.402.403-.536.604-.068.134-.202.201-.269.268a8.826 8.826 0 01-1.676 1.476c-.135.067-.269.134-.403.134-.067 0-.201 0-.268-.067h-.067l-.537.335c-.536-.537-1.14-1.073-1.676-1.61-2.482-1.945-5.567-3.152-8.719-3.487l-.067-.537v.067c-.201-.134-.268-.335-.335-.536 0-.738 0-1.476.134-2.28v-.067c0-.135.067-.269.067-.403.067-.268.067-.536.134-.805v-.402c.067-.671-.469-1.341-1.14-1.408-.402-.067-.805.134-1.14.469a1.326 1.326 0 00-.403.939v.335c0 .269.068.537.135.805.067.134.067.268.067.403v.067c.134.737.134 1.475.134 2.28-.067.201-.134.402-.336.536v.135l-.067.536c-.737.067-1.475.201-2.28.335-3.152.671-6.036 2.348-8.249 4.695l-.402-.268h-.067c-.067 0-.135.067-.269.067s-.268-.067-.402-.134c-.604-.47-1.207-1.006-1.677-1.543-.067-.134-.201-.201-.268-.268-.201-.201-.335-.403-.537-.604-.067-.067-.134-.067-.201-.134l-.067-.067a1.601 1.601 0 00-.939-.335c-.402 0-.737.134-.939.469-.402.604-.268 1.409.269 1.878.067 0 .067.067.067.067s.134.134.201.134c.201.134.469.269.738.403l.402.201c.671.402 1.341.805 1.878 1.341.134.134.268.403.201.604v-.067l.402.402c-.067.134-.134.201-.201.335-2.079 3.287-2.951 7.177-2.347 10.999l-.537.134c0 .067-.067.067-.067.067-.067.202-.268.336-.469.47-.738.201-1.476.335-2.28.402-.134 0-.269 0-.403.067-.268 0-.536.067-.805.067-.067 0-.134.068-.268.068-.067 0-.067 0-.134.067a1.308 1.308 0 00-1.073 1.542c.134.604.738 1.006 1.341.939.134 0 .202 0 .336-.067.067 0 .067 0 .067-.067s.201 0 .268 0c.268-.067.537-.201.738-.268.134-.067.268-.135.402-.135h.067c.738-.268 1.409-.469 2.213-.603h.067c.202 0 .403.067.537.201.067 0 .067.067.067.067l.604-.067c1.006 3.085 2.883 5.835 5.499 7.847.604.469 1.14.872 1.811 1.207l-.336.469c0 .068.068.068.068.068.134.201.134.469.067.67-.269.671-.671 1.342-1.073 1.945v.067c-.068.134-.135.201-.269.335-.134.135-.268.403-.469.671-.067.067-.067.134-.134.201 0 0 0 .067-.067.067-.336.671-.067 1.476.536 1.811.134.067.335.134.47.134.536 0 1.006-.335 1.274-.804 0 0 0-.068.067-.068 0-.067.067-.134.134-.201.067-.268.201-.469.268-.737l.134-.403c.202-.738.537-1.408.872-2.079.134-.201.336-.335.537-.402.067 0 .067 0 .067-.067l.268-.537c1.878.738 3.823 1.073 5.835 1.073 1.207 0 2.414-.134 3.621-.469.738-.134 1.476-.403 2.147-.604l.268.47c.067 0 .067 0 .067.067.201.067.402.201.536.402.336.671.671 1.341.872 2.079v.067l.134.403c.067.268.135.536.269.737.067.067.067.134.134.201 0 0 0 .068.067.068.268.469.738.804 1.274.804.201 0 .335-.067.537-.134.268-.134.536-.402.603-.738.067-.335.067-.67-.067-1.006 0-.067-.067-.067-.067-.067 0-.067-.067-.134-.134-.201a2.406 2.406 0 00-.469-.67c-.068-.135-.135-.202-.269-.336v-.134c-.469-.603-.805-1.274-1.073-1.945-.067-.201-.067-.469.067-.67 0-.068.067-.068.067-.068l-.201-.536c3.421-2.079 6.036-5.298 7.243-9.121l.537.067c.067 0 .067-.067.067-.067a.76.76 0 01.536-.201h.067c.738.134 1.476.335 2.147.603h.067c.134.067.268.134.402.134.268.135.469.269.738.336.067 0 .134.067.268.067.067 0 .067 0 .134.067a.604.604 0 00.335.067c.604 0 1.141-.402 1.342-.939a1.58 1.58 0 00-1.207-1.408zm-19.382-2.079l-1.811.872-1.811-.872-.469-1.945 1.274-1.61h2.012l1.274 1.61-.469 1.945zm10.931-4.36c.336 1.409.403 2.817.269 4.226l-6.372-1.811c-.603-.134-.939-.738-.804-1.342.067-.201.134-.335.268-.469l5.03-4.561a13.668 13.668 0 011.609 3.957zm-3.621-6.438l-5.5 3.89c-.469.268-1.14.201-1.475-.268a.612.612 0 01-.201-.47l-.403-6.774c2.951.336 5.567 1.61 7.579 3.622zm-12.139-3.42l1.341-.269-.335 6.707c0 .604-.537 1.073-1.14 1.073-.202 0-.336-.067-.537-.134l-5.566-3.957c1.743-1.677 3.889-2.884 6.237-3.42zm-8.182 5.901l4.963 4.427c.469.402.536 1.073.134 1.542-.134.202-.268.269-.537.336l-6.505 1.878a14.118 14.118 0 011.945-8.183zm-1.14 11.335l6.639-1.14c.537 0 1.073.335 1.14.871.067.202.067.47-.067.671l-2.548 6.17c-2.348-1.542-4.225-3.89-5.164-6.572zm15.224 8.316c-.939.201-1.878.335-2.884.335-1.409 0-2.884-.268-4.225-.671l3.286-5.968c.335-.403.872-.537 1.341-.269.201.134.335.269.537.47l3.219 5.835c-.403.067-.805.134-1.274.268zm8.182-5.835a12.808 12.808 0 01-4.024 4.024l-2.616-6.304c-.134-.537.134-1.073.604-1.274.201-.067.402-.135.603-.135l6.707 1.141c-.335.938-.738 1.81-1.274 2.548z"/></g><g filter="url(#filter6_dd)"><rect width="96" height="96" x="216" y="293" fill="#F9F9F9" rx="20"/><path fill="#EA4335" d="M272.395 330.643h1.803l5.138-5.138.252-2.182c-9.563-8.442-24.158-7.53-32.599 2.033a23.074 23.074 0 00-4.975 9.237 2.772 2.772 0 011.802-.107l10.276-1.696s.522-.866.795-.813c4.571-5.021 12.264-5.606 17.544-1.334h-.036z"/><path fill="#4285F4" d="M286.658 334.593a23.124 23.124 0 00-6.976-11.249l-7.21 7.211a12.823 12.823 0 014.705 10.169v1.281a6.42 6.42 0 010 12.839h-12.838l-1.281 1.298v7.7l1.281 1.281h12.838c9.219.071 16.752-7.345 16.823-16.564a16.701 16.701 0 00-7.342-13.966z"/><path fill="#34A853" d="M251.484 365.041h12.838v-10.276h-12.838a6.401 6.401 0 01-2.651-.578l-1.803.56-5.173 5.139-.451 1.802a16.57 16.57 0 0010.078 3.353z"/><path fill="#FBBC05" d="M251.482 331.707c-9.222.054-16.649 7.573-16.596 16.795a16.687 16.687 0 006.518 13.133l7.445-7.445a6.42 6.42 0 01-3.208-8.491 6.422 6.422 0 018.492-3.208 6.428 6.428 0 013.207 3.208l7.445-7.445a16.658 16.658 0 00-13.303-6.547z"/></g><g filter="url(#filter7_dd)"><rect width="96" height="96" x="150" y="158" fill="#F9F9F9" rx="20"/><path fill="url(#paint1_linear)" fill-rule="evenodd" d="M202.706 180.789c1.485 2.653.582 6.033-2.017 7.549l-16.159 9.427a1.406 1.406 0 00-.691 1.216v14.798c0 .502.264.966.691 1.216l12.791 7.462c.421.245.937.245 1.358 0l12.791-7.462c.427-.25.691-.714.691-1.216v-9.203l-11.498 6.622c-2.607 1.502-5.912.562-7.383-2.099-1.471-2.662-.55-6.037 2.057-7.538l16.451-9.477c5.012-2.886 11.212.81 11.212 6.684v16.134c0 3.779-1.983 7.269-5.197 9.143l-14.685 8.568a10.138 10.138 0 01-10.236 0l-14.685-8.568c-3.214-1.875-5.197-5.364-5.197-9.143v-17.045c0-3.779 1.983-7.268 5.197-9.143l17.114-9.984c2.599-1.516 5.909-.594 7.395 2.059z" clip-rule="evenodd"/></g><defs><filter id="filter0_dd" width="136" height="136" x="0" y="38" color-interpolation-filters="sRGB" filterUnits="userSpaceOnUse"><feFlood flood-opacity="0" result="BackgroundImageFix"/><feColorMatrix in="SourceAlpha" values="0 0 0 0 0 0 0 0 0 0 0 0 0 0 0 0 0 0 127 0"/><feOffset dy="5"/><feGaussianBlur stdDeviation="10"/><feColorMatrix values="0 0 0 0 0 0 0 0 0 0 0 0 0 0 0 0 0 0 0.12 0"/><feBlend in2="BackgroundImageFix" result="effect1_dropShadow"/><feColorMatrix in="SourceAlpha" values="0 0 0 0 0 0 0 0 0 0 0 0 0 0 0 0 0 0 127 0"/><feOffset dy="2"/><feGaussianBlur stdDeviation="2.5"/><feColorMatrix values="0 0 0 0 0 0 0 0 0 0 0 0 0 0 0 0 0 0 0.08 0"/><feBlend in2="effect1_dropShadow" result="effect2_dropShadow"/><feBlend in="SourceGraphic" in2="effect2_dropShadow" result="shape"/></filter><filter id="filter1_dd" width="136" height="136" x="130" y="0" color-interpolation-filters="sRGB" filterUnits="userSpaceOnUse"><feFlood flood-opacity="0" result="BackgroundImageFix"/><feColorMatrix in="SourceAlpha" values="0 0 0 0 0 0 0 0 0 0 0 0 0 0 0 0 0 0 127 0"/><feOffset dy="5"/><feGaussianBlur stdDeviation="10"/><feColorMatrix values="0 0 0 0 0 0 0 0 0 0 0 0 0 0 0 0 0 0 0.12 0"/><feBlend in2="BackgroundImageFix" result="effect1_dropShadow"/><feColorMatrix in="SourceAlpha" values="0 0 0 0 0 0 0 0 0 0 0 0 0 0 0 0 0 0 127 0"/><feOffset dy="2"/><feGaussianBlur stdDeviation="2.5"/><feColorMatrix values="0 0 0 0 0 0 0 0 0 0 0 0 0 0 0 0 0 0 0.08 0"/><feBlend in2="effect1_dropShadow" result="effect2_dropShadow"/><feBlend in="SourceGraphic" in2="effect2_dropShadow" result="shape"/></filter><filter id="filter2_dd" width="136" height="136" x="260" y="38" color-interpolation-filters="sRGB" filterUnits="userSpaceOnUse"><feFlood flood-opacity="0" result="BackgroundImageFix"/><feColorMatrix in="SourceAlpha" values="0 0 0 0 0 0 0 0 0 0 0 0 0 0 0 0 0 0 127 0"/><feOffset dy="5"/><feGaussianBlur stdDeviation="10"/><feColorMatrix values="0 0 0 0 0 0 0 0 0 0 0 0 0 0 0 0 0 0 0.12 0"/><feBlend in2="BackgroundImageFix" result="effect1_dropShadow"/><feColorMatrix in="SourceAlpha" values="0 0 0 0 0 0 0 0 0 0 0 0 0 0 0 0 0 0 127 0"/><feOffset dy="2"/><feGaussianBlur stdDeviation="2.5"/><feColorMatrix values="0 0 0 0 0 0 0 0 0 0 0 0 0 0 0 0 0 0 0.08 0"/><feBlend in2="effect1_dropShadow" result="effect2_dropShadow"/><feBlend in="SourceGraphic" in2="effect2_dropShadow" result="shape"/></filter><filter id="filter3_dd" width="136" height="136" x="0" y="158" color-interpolation-filters="sRGB" filterUnits="userSpaceOnUse"><feFlood flood-opacity="0" result="BackgroundImageFix"/><feColorMatrix in="SourceAlpha" values="0 0 0 0 0 0 0 0 0 0 0 0 0 0 0 0 0 0 127 0"/><feOffset dy="5"/><feGaussianBlur stdDeviation="10"/><feColorMatrix values="0 0 0 0 0 0 0 0 0 0 0 0 0 0 0 0 0 0 0.12 0"/><feBlend in2="BackgroundImageFix" result="effect1_dropShadow"/><feColorMatrix in="SourceAlpha" values="0 0 0 0 0 0 0 0 0 0 0 0 0 0 0 0 0 0 127 0"/><feOffset dy="2"/><feGaussianBlur stdDeviation="2.5"/><feColorMatrix values="0 0 0 0 0 0 0 0 0 0 0 0 0 0 0 0 0 0 0.08 0"/><feBlend in2="effect1_dropShadow" result="effect2_dropShadow"/><feBlend in="SourceGraphic" in2="effect2_dropShadow" result="shape"/></filter><filter id="filter4_dd" width="136" height="136" x="64" y="278" color-interpolation-filters="sRGB" filterUnits="userSpaceOnUse"><feFlood flood-opacity="0" result="BackgroundImageFix"/><feColorMatrix in="SourceAlpha" values="0 0 0 0 0 0 0 0 0 0 0 0 0 0 0 0 0 0 127 0"/><feOffset dy="5"/><feGaussianBlur stdDeviation="10"/><feColorMatrix values="0 0 0 0 0 0 0 0 0 0 0 0 0 0 0 0 0 0 0.12 0"/><feBlend in2="BackgroundImageFix" result="effect1_dropShadow"/><feColorMatrix in="SourceAlpha" values="0 0 0 0 0 0 0 0 0 0 0 0 0 0 0 0 0 0 127 0"/><feOffset dy="2"/><feGaussianBlur stdDeviation="2.5"/><feColorMatrix values="0 0 0 0 0 0 0 0 0 0 0 0 0 0 0 0 0 0 0.08 0"/><feBlend in2="effect1_dropShadow" result="effect2_dropShadow"/><feBlend in="SourceGraphic" in2="effect2_dropShadow" result="shape"/></filter><filter id="filter5_dd" width="136" height="136" x="260" y="158" color-interpolation-filters="sRGB" filterUnits="userSpaceOnUse"><feFlood flood-opacity="0" result="BackgroundImageFix"/><feColorMatrix in="SourceAlpha" values="0 0 0 0 0 0 0 0 0 0 0 0 0 0 0 0 0 0 127 0"/><feOffset dy="5"/><feGaussianBlur stdDeviation="10"/><feColorMatrix values="0 0 0 0 0 0 0 0 0 0 0 0 0 0 0 0 0 0 0.12 0"/><feBlend in2="BackgroundImageFix" result="effect1_dropShadow"/><feColorMatrix in="SourceAlpha" values="0 0 0 0 0 0 0 0 0 0 0 0 0 0 0 0 0 0 127 0"/><feOffset dy="2"/><feGaussianBlur stdDeviation="2.5"/><feColorMatrix values="0 0 0 0 0 0 0 0 0 0 0 0 0 0 0 0 0 0 0.08 0"/><feBlend in2="effect1_dropShadow" result="effect2_dropShadow"/><feBlend in="SourceGraphic" in2="effect2_dropShadow" result="shape"/></filter><filter id="filter6_dd" width="136" height="136" x="196" y="278" color-interpolation-filters="sRGB" filterUnits="userSpaceOnUse"><feFlood flood-opacity="0" result="BackgroundImageFix"/><feColorMatrix in="SourceAlpha" values="0 0 0 0 0 0 0 0 0 0 0 0 0 0 0 0 0 0 127 0"/><feOffset dy="5"/><feGaussianBlur stdDeviation="10"/><feColorMatrix values="0 0 0 0 0 0 0 0 0 0 0 0 0 0 0 0 0 0 0.12 0"/><feBlend in2="BackgroundImageFix" result="effect1_dropShadow"/><feColorMatrix in="SourceAlpha" values="0 0 0 0 0 0 0 0 0 0 0 0 0 0 0 0 0 0 127 0"/><feOffset dy="2"/><feGaussianBlur stdDeviation="2.5"/><feColorMatrix values="0 0 0 0 0 0 0 0 0 0 0 0 0 0 0 0 0 0 0.08 0"/><feBlend in2="effect1_dropShadow" result="effect2_dropShadow"/><feBlend in="SourceGraphic" in2="effect2_dropShadow" result="shape"/></filter><filter id="filter7_dd" width="136" height="136" x="130" y="143" color-interpolation-filters="sRGB" filterUnits="userSpaceOnUse"><feFlood flood-opacity="0" result="BackgroundImageFix"/><feColorMatrix in="SourceAlpha" values="0 0 0 0 0 0 0 0 0 0 0 0 0 0 0 0 0 0 127 0"/><feOffset dy="5"/><feGaussianBlur stdDeviation="10"/><feColorMatrix values="0 0 0 0 0 0 0 0 0 0 0 0 0 0 0 0 0 0 0.12 0"/><feBlend in2="BackgroundImageFix" result="effect1_dropShadow"/><feColorMatrix in="SourceAlpha" values="0 0 0 0 0 0 0 0 0 0 0 0 0 0 0 0 0 0 127 0"/><feOffset dy="2"/><feGaussianBlur stdDeviation="2.5"/><feColorMatrix values="0 0 0 0 0 0 0 0 0 0 0 0 0 0 0 0 0 0 0.08 0"/><feBlend in2="effect1_dropShadow" result="effect2_dropShadow"/><feBlend in="SourceGraphic" in2="effect2_dropShadow" result="shape"/></filter><linearGradient id="paint0_linear" x1="223.793" x2="199.672" y1="60.337" y2="79.163" gradientUnits="userSpaceOnUse"><stop stop-color="#0052CC"/><stop offset=".18" stop-color="#0052CC"/><stop offset="1" stop-color="#2684FF"/></linearGradient><linearGradient id="paint1_linear" x1="210.633" x2="184.206" y1="186.468" y2="227.164" gradientUnits="userSpaceOnUse"><stop stop-color="#FFB45B"/><stop offset="1" stop-color="#FF8A00"/></linearGradient><clipPath id="clip0"><path fill="#fff" d="M0 0h60v37H0z" transform="translate(298 82)"/></clipPath></defs></svg>