<svg width="456" height="380" fill="none" xmlns="http://www.w3.org/2000/svg"><path fill="#DADADA" d="M103 0h2v380h-2z"/><path d="M32.838 115.36c2.18 0 3.6-.94 4.26-2.2-.1.46-.14.92-.14 1.4v.44h2.4v-7.46h-6.2v2.22h3.8v.1c0 2-1.62 3.28-3.7 3.28-2.56 0-4.32-1.96-4.32-5.14 0-3.18 1.8-5.14 4.38-5.14 1.86 0 3.1 1.08 3.28 2.48h2.7c-.26-2.72-2.52-4.7-6.02-4.7-4.22 0-7.04 3.04-7.04 7.36 0 4.48 2.64 7.36 6.6 7.36zm8.562-11.6h2.56v-2.56H41.4v2.56zm.06 1.48V115h2.44v-9.76h-2.44zm9.062 9.94c.62 0 1.2-.1 1.44-.18v-1.84c-.24.04-.5.06-.74.06-1.04 0-1.44-.6-1.44-1.62v-4.42h2.4v-1.94h-2.4v-3.52h-2.44v3.52h-2.22v1.94h2.22v4.78c0 2.18 1.1 3.22 3.18 3.22zm5.557 3.9v-4.48c0-.28-.02-.54-.08-.94.62 1 1.46 1.7 3.1 1.7 2.48 0 4.38-2.02 4.38-5.18 0-3.1-1.7-5.26-4.28-5.26-1.54 0-2.58.68-3.2 1.72.06-.4.08-.66.08-.96v-.44h-2.44v13.84h2.44zm2.42-5.64c-1.48 0-2.52-1.34-2.52-3.3 0-2.02 1.06-3.28 2.52-3.28 1.56 0 2.5 1.36 2.5 3.28 0 1.96-1 3.3-2.5 3.3zm11.158 1.92c2.94 0 5.02-1.96 5.02-5.2 0-3.2-2.08-5.24-5.02-5.24-2.92 0-5 2.04-5 5.24 0 3.24 2.06 5.2 5 5.2zm0-1.92c-1.52 0-2.52-1.2-2.52-3.28 0-2.12 1.04-3.3 2.52-3.3 1.5 0 2.54 1.18 2.54 3.3 0 2.08-1.02 3.28-2.54 3.28zm10.687 1.92c1.8 0 2.68-.98 3.06-1.7-.08.34-.08.6-.08.94v.4h2.44v-14h-2.44v4.68c0 .3 0 .6.08.96-.56-.94-1.5-1.72-3.02-1.72-2.28 0-4.5 1.74-4.5 5.24 0 3.44 1.88 5.2 4.46 5.2zm.58-1.92c-1.46 0-2.56-1.28-2.56-3.3 0-1.94 1.1-3.28 2.56-3.28s2.54 1.28 2.54 3.28c0 1.96-1.08 3.3-2.54 3.3z" fill="#12100C"/><path d="M105 62h10a8 8 0 018 8v80a8 8 0 01-8 8h-10V62z" fill="url(#paint0_linear)"/><path d="M148.54 111.42l-4.7-1.72c-.52-.2-1.16-.44-1.92-.68.72-.24 1.36-.48 1.9-.68l4.72-1.82v-2.56l-8.92 3.74v2.62l8.92 3.76v-2.66zm8.961-10.42c-.36 1.56-1.64 2.46-3.46 2.72v2.38c1.5-.06 2.58-.74 3.22-1.84-.06.32-.08.64-.08.98V115h2.5v-14h-2.18zm7.217 14v-5.68c0-1.52.78-2.46 1.84-2.46 1.1 0 1.62.94 1.62 2.36V115h2.44v-5.68c0-1.48.8-2.46 1.86-2.46s1.62.94 1.62 2.36V115h2.44v-6.14c0-2.38-1.38-3.94-3.36-3.94-1.42 0-2.6.88-3.16 1.82-.36-.88-1.34-1.82-2.56-1.82-1.44 0-2.34.86-2.82 1.72.06-.32.08-.66.08-.96v-.44h-2.44V115h2.44zm13.961-11.24h2.56v-2.56h-2.56v2.56zm.06 1.48V115h2.44v-9.76h-2.44zm7.182 9.76v-5.72c0-1.36.88-2.42 2.08-2.42 1.14 0 1.84.9 1.84 2.34v5.8h2.44v-6.16c0-2.4-1.28-3.92-3.44-3.92-1.54 0-2.46.74-3 1.72.06-.38.08-.68.08-.96v-.44h-2.44V115h2.44z" fill="#12100C"/><path d="M39.569 264.24c1.584 0 2.944-.784 3.552-1.792V264h1.2v-5.856h-4.848v1.232h3.52v.208c0 2.272-1.328 3.44-3.376 3.44-2.272 0-3.824-1.936-3.824-4.56 0-3.104 1.664-4.688 3.904-4.688 1.584 0 2.8.928 3.024 2.272h1.552c-.256-2.064-2.112-3.504-4.576-3.504-2.912 0-5.44 2.064-5.44 5.92 0 3.264 2.032 5.776 5.312 5.776zm6.66-9.408h1.584v-1.648H46.23v1.648zm.113 1.456V264h1.376v-7.712H46.34zm6.326 7.792c.32 0 .608-.032.896-.096V262.8a3.807 3.807 0 01-.576.048c-.688 0-1.136-.288-1.136-1.184v-4.24h1.6v-1.136h-1.6v-2.544h-1.376v2.544h-1.44v1.136h1.44v4.384c0 1.712 1.04 2.272 2.192 2.272zm4.113-.08v-5.264h5.952V264h1.456v-11.2h-1.456v4.704h-5.952V252.8h-1.456V264h1.456zm12.52.24c1.024 0 1.968-.48 2.336-1.312V264h1.344v-7.712h-1.36v4.256c0 1.664-.704 2.624-1.968 2.624s-1.76-.784-1.76-2.256v-4.624h-1.376v4.912c0 1.952.976 3.04 2.784 3.04zm9.79 0c2.176 0 3.584-1.68 3.584-4.096 0-2.352-1.312-4.112-3.552-4.112a3.117 3.117 0 00-2.544 1.296V252.8h-1.376V264h1.376v-1.072c.48.784 1.44 1.312 2.512 1.312zm-.224-1.072c-1.392 0-2.368-1.232-2.368-3.04 0-1.872.976-3.008 2.368-3.008 1.44 0 2.368 1.248 2.368 3.024 0 1.792-.944 3.024-2.368 3.024zM5.83 288.24c2.656 0 4.512-1.472 4.816-3.856h-1.52c-.304 1.6-1.488 2.64-3.328 2.64-2.224 0-3.792-1.84-3.792-4.688 0-2.832 1.52-4.56 3.792-4.56 1.824 0 2.944.992 3.232 2.64h1.6c-.208-2.192-2.064-3.872-4.768-3.872-3.088 0-5.392 2.304-5.392 5.792 0 3.664 2.16 5.904 5.36 5.904zm9.755 0c2.208 0 3.792-1.648 3.792-4.112 0-2.4-1.584-4.096-3.792-4.096-2.224 0-3.792 1.696-3.792 4.096 0 2.464 1.568 4.112 3.792 4.112zm0-1.072c-1.472 0-2.368-1.232-2.368-3.04s.928-3.008 2.368-3.008 2.368 1.2 2.368 3.008-.896 3.04-2.368 3.04zm8.57 1.072c1.151 0 2.095-.592 2.511-1.312V288h1.376v-11.2h-1.376v4.528c-.352-.592-1.2-1.296-2.48-1.296-2.192 0-3.584 1.776-3.584 4.112 0 2.624 1.536 4.096 3.552 4.096zm.24-1.072c-1.409 0-2.369-1.216-2.369-3.024s.976-3.024 2.368-3.024 2.368 1.168 2.368 3.008c0 1.856-.992 3.04-2.368 3.04zm9.136 1.072c2.192 0 3.248-1.264 3.408-2.624h-1.36c-.192 1.184-1.088 1.552-2.032 1.552-1.328 0-2.352-1.008-2.384-2.768h5.856v-.272c0-2.48-1.264-4.096-3.568-4.096-2.112 0-3.664 1.712-3.664 4.08 0 2.672 1.44 4.128 3.744 4.128zm-2.32-4.816c.096-1.296.944-2.304 2.24-2.304 1.344 0 2.096.928 2.096 2.304H31.21zm10.256 4.816c1.968 0 3.152-1.104 3.152-2.48 0-1.28-.944-1.968-2.336-2.224l-1.2-.224c-.864-.16-1.312-.464-1.312-1.088 0-.656.592-1.104 1.52-1.104 1.04 0 1.696.464 1.808 1.392h1.36c-.096-1.568-1.216-2.48-3.072-2.48-1.744 0-2.992.96-2.992 2.272 0 1.184.912 1.92 2.352 2.192l1.168.224c.928.176 1.344.576 1.344 1.184 0 .784-.72 1.264-1.776 1.264-1.232 0-1.936-.672-1.984-1.712h-1.344c.032 1.648 1.232 2.784 3.312 2.784zm6.263 3.136V286.928c.496.784 1.408 1.312 2.512 1.312 2.128 0 3.584-1.664 3.584-4.112 0-2.352-1.328-4.096-3.552-4.096-1.152 0-2.112.624-2.544 1.312v-1.056h-1.376v11.088h1.376zm2.304-4.208c-1.408 0-2.384-1.232-2.384-3.04 0-1.84.992-3.008 2.384-3.008 1.424 0 2.352 1.232 2.352 3.008 0 1.792-.928 3.04-2.352 3.04zm7.696 1.072c1.152 0 1.984-.48 2.368-1.28V288h1.312v-5.056c0-1.776-1.088-2.912-3.008-2.912-1.936 0-3.04 1.264-3.088 2.672h1.376c.032-.96.64-1.584 1.824-1.584.896 0 1.552.496 1.552 1.344 0 .464-.192.672-.784.768l-1.648.256c-1.376.224-2.56.912-2.56 2.4 0 1.456 1.184 2.352 2.656 2.352zm.192-1.072c-.784 0-1.424-.48-1.424-1.28 0-.816.688-1.216 1.6-1.392l1.12-.208c.464-.096.752-.192.848-.336v1.136c0 1.248-.912 2.08-2.144 2.08zm8.94 1.072c2.113 0 3.329-1.152 3.473-2.832h-1.36c-.144 1.104-.912 1.76-2.048 1.76-1.489 0-2.465-1.2-2.465-3.04 0-1.712.96-3.008 2.432-3.008 1.152 0 1.84.752 1.968 1.76h1.425c-.16-1.744-1.537-2.848-3.36-2.848-2.193 0-3.889 1.664-3.889 4.096 0 2.736 1.728 4.112 3.825 4.112zm8.355 0c2.192 0 3.248-1.264 3.408-2.624h-1.36c-.192 1.184-1.088 1.552-2.032 1.552-1.328 0-2.352-1.008-2.384-2.768h5.856v-.272c0-2.48-1.264-4.096-3.568-4.096-2.112 0-3.664 1.712-3.664 4.08 0 2.672 1.44 4.128 3.744 4.128zm-2.32-4.816c.096-1.296.944-2.304 2.24-2.304 1.344 0 2.096.928 2.096 2.304h-4.336zm10.257 4.816c1.968 0 3.152-1.104 3.152-2.48 0-1.28-.944-1.968-2.336-2.224l-1.2-.224c-.864-.16-1.312-.464-1.312-1.088 0-.656.592-1.104 1.52-1.104 1.04 0 1.696.464 1.808 1.392h1.36c-.096-1.568-1.216-2.48-3.072-2.48-1.744 0-2.992.96-2.992 2.272 0 1.184.912 1.92 2.352 2.192l1.168.224c.928.176 1.344.576 1.344 1.184 0 .784-.72 1.264-1.776 1.264-1.232 0-1.936-.672-1.984-1.712h-1.344c.032 1.648 1.232 2.784 3.312 2.784z" fill="#12100C" fill-opacity=".7"/><path fill="#DADADA" d="M105 222h85v96h-85zM192 222h187a8 8 0 018 8v80a8 8 0 01-8 8H192v-96z"/><path d="M411.096 271.84v-1.264l-7.136-3.008v1.376l4.272 1.712c.464.192.896.368 1.344.544a80.23 80.23 0 00-1.36.544l-4.256 1.712v1.376l7.136-2.992zm7.43-7.04c-.368 1.216-1.649 2.304-2.945 2.448v1.408c1.136-.048 2.16-.768 2.689-1.616V276h1.408v-11.2h-1.152zm6.944 11.44c2.4 0 3.968-1.648 3.968-3.984 0-2.096-1.424-3.728-3.488-3.728-1.088 0-2.08.48-2.64 1.216.032-.256.064-.608.096-.832l.368-2.832h5.04v-1.28h-6.096l-.816 6.352h1.344c.256-.656 1.184-1.488 2.368-1.488 1.504 0 2.368 1.104 2.368 2.688 0 1.664-.944 2.752-2.56 2.752-1.424 0-2.256-.832-2.256-2.096h-1.44c0 1.92 1.44 3.232 3.744 3.232zm7.061-.24v-4.528c0-1.28.736-2.352 1.936-2.352 1.136 0 1.584.848 1.584 2.32V276h1.376v-4.592c0-1.232.688-2.288 1.904-2.288 1.184 0 1.616.816 1.616 2.272V276h1.376v-4.88c0-2.112-1.152-3.088-2.704-3.088-1.104 0-1.984.624-2.512 1.52-.448-1.024-1.312-1.52-2.32-1.52-1.008 0-1.792.544-2.256 1.296v-1.04h-1.376V276h1.376zm11.805-9.168h1.584v-1.648h-1.584v1.648zm.112 1.456V276h1.376v-7.712h-1.376zm4.967 7.712v-4.64c0-1.216.8-2.24 2.144-2.24 1.216 0 1.696.736 1.696 2.192V276h1.376v-4.864c0-1.984-1.072-3.104-2.848-3.104-1.04 0-1.968.624-2.368 1.296v-1.04h-1.376V276h1.376z" fill="#000"/><path d="M141.513 274v-.924h-4.38V265.6h-1.092v8.4h5.472zm3.297.18c1.656 0 2.844-1.236 2.844-3.084 0-1.8-1.188-3.072-2.844-3.072-1.668 0-2.844 1.272-2.844 3.072 0 1.848 1.176 3.084 2.844 3.084zm0-.804c-1.104 0-1.776-.924-1.776-2.28 0-1.356.696-2.256 1.776-2.256s1.776.9 1.776 2.256c0 1.356-.672 2.28-1.776 2.28zm5.779.804c.864 0 1.488-.36 1.776-.96v.78h.984v-3.792c0-1.332-.816-2.184-2.256-2.184-1.452 0-2.28.948-2.316 2.004h1.032c.024-.72.48-1.188 1.368-1.188.672 0 1.164.372 1.164 1.008 0 .348-.144.504-.588.576l-1.236.192c-1.032.168-1.92.684-1.92 1.8 0 1.092.888 1.764 1.992 1.764zm.144-.804c-.588 0-1.068-.36-1.068-.96 0-.612.516-.912 1.2-1.044l.84-.156c.348-.072.564-.144.636-.252v.852c0 .936-.684 1.56-1.608 1.56zm6.502.804c.864 0 1.572-.444 1.884-.984V274h1.032v-8.4h-1.032v3.396c-.264-.444-.9-.972-1.86-.972-1.644 0-2.688 1.332-2.688 3.084 0 1.968 1.152 3.072 2.664 3.072zm.18-.804c-1.056 0-1.776-.912-1.776-2.268 0-1.356.732-2.268 1.776-2.268s1.776.876 1.776 2.256c0 1.392-.744 2.28-1.776 2.28zM258.912 274v-3.636h2.184c1.524 0 2.88-.54 2.88-2.376 0-1.848-1.416-2.388-2.88-2.388h-3.276v8.4h1.092zm0-7.488h2.172c1.284 0 1.776.576 1.776 1.476 0 .888-.492 1.464-1.776 1.464h-2.172v-2.94zm7.14 7.488v-3.06c0-1.284.636-1.908 1.752-1.908.144 0 .24.012.324.024v-1.02c-.096-.012-.192-.012-.264-.012-.888 0-1.524.492-1.812 1.152v-.96h-1.032V274h1.032zm5.351.18c1.656 0 2.844-1.236 2.844-3.084 0-1.8-1.188-3.072-2.844-3.072-1.668 0-2.844 1.272-2.844 3.072 0 1.848 1.176 3.084 2.844 3.084zm0-.804c-1.104 0-1.776-.924-1.776-2.28 0-1.356.696-2.256 1.776-2.256s1.776.9 1.776 2.256c0 1.356-.672 2.28-1.776 2.28zm5.323-6.252v-1.236h-1.188v1.236h1.188zm-1.104 7.68c0 .744-.336.984-.852.984a.919.919 0 01-.3-.048v.924c.192.048.384.06.576.06 1.236 0 1.608-.912 1.608-1.608v-6.9h-1.032v6.588zm5.151-.624c1.644 0 2.436-.948 2.556-1.968h-1.02c-.144.888-.816 1.164-1.524 1.164-.996 0-1.764-.756-1.788-2.076h4.392v-.204c0-1.86-.948-3.072-2.676-3.072-1.584 0-2.748 1.284-2.748 3.06 0 2.004 1.08 3.096 2.808 3.096zm-1.74-3.612c.072-.972.708-1.728 1.68-1.728 1.008 0 1.572.696 1.572 1.728h-3.252zm8.16 3.612c1.584 0 2.496-.864 2.604-2.124h-1.02c-.108.828-.684 1.32-1.536 1.32-1.116 0-1.848-.9-1.848-2.28 0-1.284.72-2.256 1.824-2.256.864 0 1.38.564 1.476 1.32h1.068c-.12-1.308-1.152-2.136-2.52-2.136-1.644 0-2.916 1.248-2.916 3.072 0 2.052 1.296 3.084 2.868 3.084zm5.87-.12c.24 0 .456-.024.672-.072v-.888a2.856 2.856 0 01-.432.036c-.516 0-.852-.216-.852-.888v-3.18h1.2v-.852h-1.2v-1.908h-1.032v1.908h-1.08v.852h1.08v3.288c0 1.284.78 1.704 1.644 1.704zm7.697-.06c1.644 0 3.18-.492 3.18-2.364 0-1.044-.612-1.764-1.608-2.076.756-.24 1.404-.936 1.404-1.848 0-1.452-1.092-2.112-2.664-2.112h-3.276v8.4h2.964zm-1.872-7.488H301c1.176 0 1.62.54 1.62 1.284 0 .852-.612 1.344-1.704 1.344h-2.028v-2.628zm0 3.552h2.004c1.488 0 1.932.648 1.932 1.512 0 .996-.576 1.5-1.884 1.5h-2.052v-3.012zm8.463 4.116c.768 0 1.476-.36 1.752-.984V274h1.008v-5.784h-1.02v3.192c0 1.248-.528 1.968-1.476 1.968s-1.32-.588-1.32-1.692v-3.468h-1.032v3.684c0 1.464.732 2.28 2.088 2.28zm4.343-7.056h1.188v-1.236h-1.188v1.236zm.084 1.092V274h1.032v-5.784h-1.032zm2.693-2.616v8.4h1.032v-8.4h-1.032zm4.985 8.58c.864 0 1.572-.444 1.884-.984V274h1.032v-8.4h-1.032v3.396c-.264-.444-.9-.972-1.86-.972-1.644 0-2.688 1.332-2.688 3.084 0 1.968 1.152 3.072 2.664 3.072zm.18-.804c-1.056 0-1.776-.912-1.776-2.268 0-1.356.732-2.268 1.776-2.268s1.776.876 1.776 2.256c0 1.392-.744 2.28-1.776 2.28z" fill="#12100C" fill-opacity=".7"/><defs><linearGradient id="paint0_linear" x1="107.588" y1="75.8" x2="135.351" y2="81.464" gradientUnits="userSpaceOnUse"><stop stop-color="#FFAD33"/><stop offset="1" stop-color="#FF8A00"/></linearGradient></defs></svg>