<svg xmlns="http://www.w3.org/2000/svg" fill="none" viewBox="0 0 445 339"><path fill="#12100C" fill-opacity=".7" d="M37.74 332.24c1.583 0 2.943-.784 3.551-1.792V332h1.2v-5.856h-4.848v1.232h3.52v.208c0 2.272-1.328 3.44-3.376 3.44-2.272 0-3.824-1.936-3.824-4.56 0-3.104 1.664-4.688 3.904-4.688 1.584 0 2.8.928 3.024 2.272h1.552c-.256-2.064-2.112-3.504-4.576-3.504-2.912 0-5.44 2.064-5.44 5.92 0 3.264 2.032 5.776 5.312 5.776zm6.66-9.408h1.584v-1.648H44.4v1.648zm.112 1.456V332h1.376v-7.712h-1.376zm6.327 7.792c.32 0 .608-.032.896-.096V330.8a3.807 3.807 0 01-.576.048c-.688 0-1.136-.288-1.136-1.184v-4.24h1.6v-1.136h-1.6v-2.544h-1.376v2.544h-1.44v1.136h1.44v4.384c0 1.712 1.04 2.272 2.192 2.272zm4.113-.08v-5.264h5.952V332h1.456v-11.2h-1.456v4.704h-5.952V320.8h-1.456V332h1.456zm12.52.24c1.023 0 1.967-.48 2.335-1.312V332h1.344v-7.712h-1.36v4.256c0 1.664-.704 2.624-1.968 2.624s-1.76-.784-1.76-2.256v-4.624h-1.376v4.912c0 1.952.976 3.04 2.784 3.04zm9.79 0c2.176 0 3.584-1.68 3.584-4.096 0-2.352-1.312-4.112-3.552-4.112a3.117 3.117 0 00-2.544 1.296V320.8h-1.376V332h1.376v-1.072c.48.784 1.44 1.312 2.512 1.312zm-.224-1.072c-1.392 0-2.368-1.232-2.368-3.04 0-1.872.976-3.008 2.368-3.008 1.44 0 2.368 1.248 2.368 3.024 0 1.792-.944 3.024-2.368 3.024zm14.117 1.072c2.656 0 4.512-1.472 4.816-3.856h-1.52c-.304 1.6-1.488 2.64-3.328 2.64-2.224 0-3.792-1.84-3.792-4.688 0-2.832 1.52-4.56 3.792-4.56 1.824 0 2.944.992 3.232 2.64h1.6c-.208-2.192-2.064-3.872-4.768-3.872-3.088 0-5.392 2.304-5.392 5.792 0 3.664 2.16 5.904 5.36 5.904zm9.755 0c2.208 0 3.792-1.648 3.792-4.112 0-2.4-1.584-4.096-3.792-4.096-2.224 0-3.792 1.696-3.792 4.096 0 2.464 1.568 4.112 3.792 4.112zm0-1.072c-1.472 0-2.368-1.232-2.368-3.04s.928-3.008 2.368-3.008 2.368 1.2 2.368 3.008-.896 3.04-2.368 3.04zm8.569 1.072c1.152 0 2.096-.592 2.512-1.312V332h1.376v-11.2h-1.376v4.528c-.352-.592-1.2-1.296-2.48-1.296-2.192 0-3.584 1.776-3.584 4.112 0 2.624 1.536 4.096 3.552 4.096zm.24-1.072c-1.408 0-2.368-1.216-2.368-3.024s.976-3.024 2.368-3.024 2.368 1.168 2.368 3.008c0 1.856-.992 3.04-2.368 3.04zm9.136 1.072c2.192 0 3.248-1.264 3.408-2.624h-1.36c-.192 1.184-1.088 1.552-2.032 1.552-1.328 0-2.352-1.008-2.384-2.768h5.856v-.272c0-2.48-1.264-4.096-3.568-4.096-2.112 0-3.664 1.712-3.664 4.08 0 2.672 1.44 4.128 3.744 4.128zm-2.32-4.816c.096-1.296.944-2.304 2.24-2.304 1.344 0 2.096.928 2.096 2.304h-4.336zm10.257 4.816c1.968 0 3.152-1.104 3.152-2.48 0-1.28-.944-1.968-2.336-2.224l-1.2-.224c-.864-.16-1.312-.464-1.312-1.088 0-.656.592-1.104 1.52-1.104 1.04 0 1.696.464 1.808 1.392h1.36c-.096-1.568-1.216-2.48-3.072-2.48-1.744 0-2.992.96-2.992 2.272 0 1.184.912 1.92 2.352 2.192l1.168.224c.928.176 1.344.576 1.344 1.184 0 .784-.72 1.264-1.776 1.264-1.232 0-1.936-.672-1.984-1.712h-1.344c.032 1.648 1.232 2.784 3.312 2.784zm6.262 3.136V330.928c.496.784 1.408 1.312 2.512 1.312 2.128 0 3.584-1.664 3.584-4.112 0-2.352-1.328-4.096-3.552-4.096-1.152 0-2.112.624-2.544 1.312v-1.056h-1.376v11.088h1.376zm2.304-4.208c-1.408 0-2.384-1.232-2.384-3.04 0-1.84.992-3.008 2.384-3.008 1.424 0 2.352 1.232 2.352 3.008 0 1.792-.928 3.04-2.352 3.04zm7.696 1.072c1.152 0 1.984-.48 2.368-1.28V332h1.312v-5.056c0-1.776-1.088-2.912-3.008-2.912-1.936 0-3.04 1.264-3.088 2.672h1.376c.032-.96.64-1.584 1.824-1.584.896 0 1.552.496 1.552 1.344 0 .464-.192.672-.784.768l-1.648.256c-1.376.224-2.56.912-2.56 2.4 0 1.456 1.184 2.352 2.656 2.352zm.192-1.072c-.784 0-1.424-.48-1.424-1.28 0-.816.688-1.216 1.6-1.392l1.12-.208c.464-.096.752-.192.848-.336v1.136c0 1.248-.912 2.08-2.144 2.08zm8.941 1.072c2.112 0 3.328-1.152 3.472-2.832h-1.36c-.144 1.104-.912 1.76-2.048 1.76-1.488 0-2.464-1.2-2.464-3.04 0-1.712.96-3.008 2.432-3.008 1.152 0 1.84.752 1.968 1.76h1.424c-.16-1.744-1.536-2.848-3.36-2.848-2.192 0-3.888 1.664-3.888 4.096 0 2.736 1.728 4.112 3.824 4.112zm8.355 0c2.192 0 3.248-1.264 3.408-2.624h-1.36c-.192 1.184-1.088 1.552-2.032 1.552-1.328 0-2.352-1.008-2.384-2.768h5.856v-.272c0-2.48-1.264-4.096-3.568-4.096-2.112 0-3.664 1.712-3.664 4.08 0 2.672 1.44 4.128 3.744 4.128zm-2.32-4.816c.096-1.296.944-2.304 2.24-2.304 1.344 0 2.096.928 2.096 2.304h-4.336zm10.256 4.816c1.968 0 3.152-1.104 3.152-2.48 0-1.28-.944-1.968-2.336-2.224l-1.2-.224c-.864-.16-1.312-.464-1.312-1.088 0-.656.592-1.104 1.52-1.104 1.04 0 1.696.464 1.808 1.392h1.36c-.096-1.568-1.216-2.48-3.072-2.48-1.744 0-2.992.96-2.992 2.272 0 1.184.912 1.92 2.352 2.192l1.168.224c.928.176 1.344.576 1.344 1.184 0 .784-.72 1.264-1.776 1.264-1.232 0-1.936-.672-1.984-1.712h-1.344c.032 1.648 1.232 2.784 3.312 2.784z"/><rect width="39" height="96" x="96" y="243" fill="#DADADA" rx="8" transform="rotate(90 96 243)"/><path fill="#12100C" fill-opacity=".7" d="M34.594 266v-.96H30.19c.084-.312.552-.708 1.332-1.296l.589-.444c1.584-1.2 2.34-2.1 2.34-3.36 0-1.56-1.129-2.532-2.689-2.532-1.572 0-2.796 1.044-2.796 2.844v.276h1.08v-.156c0-1.38.697-2.1 1.716-2.1 1.008 0 1.596.72 1.596 1.68 0 1.068-.875 1.836-1.583 2.388l-1.14.876c-1.309.996-1.753 1.704-1.753 2.784h5.712zm6.481 0l2.196-5.784h-1.08l-1.44 4.188c-.084.24-.132.408-.192.564-.06-.156-.108-.324-.192-.564l-1.476-4.188h-1.128l2.22 5.784h1.092zm6.867.18c1.992 0 3.384-1.104 3.612-2.892h-1.14c-.228 1.2-1.116 1.98-2.496 1.98-1.668 0-2.844-1.38-2.844-3.516 0-2.124 1.14-3.42 2.844-3.42 1.368 0 2.208.744 2.424 1.98h1.2c-.156-1.644-1.548-2.904-3.576-2.904-2.316 0-4.044 1.728-4.044 4.344 0 2.748 1.62 4.428 4.02 4.428zm6.129-.18v-3.636h2.184c1.523 0 2.88-.54 2.88-2.376 0-1.848-1.416-2.388-2.88-2.388h-3.277v8.4h1.093zm0-7.488h2.172c1.283 0 1.776.576 1.776 1.476 0 .888-.492 1.464-1.776 1.464H54.07v-2.94zm9.43 7.668c1.968 0 3.168-1.128 3.168-3.456V257.6h-1.092v4.98c0 1.872-.72 2.688-2.076 2.688s-2.064-.84-2.064-2.688v-4.98h-1.092v5.124c0 2.328 1.188 3.456 3.156 3.456z"/><rect width="85" height="96" x="204" y="197" fill="#DADADA" rx="8" transform="rotate(90 204 197)"/><path fill="#12100C" fill-opacity=".7" d="M134.521 266v-2.148h1.548v-.96h-1.548V257.6h-1.416l-3.492 5.232v1.02h3.852V266h1.056zm-3.912-3.108c.096-.144.192-.3.276-.42l2.22-3.348.36-.576v4.344h-2.856zm10.233 3.288c1.188 0 2.208-.588 2.664-1.344V266h.9v-4.392h-3.636v.924h2.64v.156c0 1.704-.996 2.58-2.532 2.58-1.704 0-2.868-1.452-2.868-3.42 0-2.328 1.248-3.516 2.928-3.516 1.188 0 2.1.696 2.268 1.704h1.164c-.192-1.548-1.584-2.628-3.432-2.628-2.184 0-4.08 1.548-4.08 4.44 0 2.448 1.524 4.332 3.984 4.332zm8.236-.18c1.644 0 3.18-.492 3.18-2.364 0-1.044-.612-1.764-1.608-2.076.756-.24 1.404-.936 1.404-1.848 0-1.452-1.092-2.112-2.664-2.112h-3.276v8.4h2.964zm-1.872-7.488h2.112c1.176 0 1.62.54 1.62 1.284 0 .852-.612 1.344-1.704 1.344h-2.028v-2.628zm0 3.552h2.004c1.488 0 1.932.648 1.932 1.512 0 .996-.576 1.5-1.884 1.5h-2.052v-3.012zM157.677 266v-3.672h2.064c1.248 0 1.764.408 1.764 1.74V266h1.092v-2.232c0-1.104-.576-1.788-1.368-1.92.756-.228 1.548-.984 1.548-2.04 0-1.416-1.02-2.208-2.628-2.208h-3.564v8.4h1.092zm0-7.488h2.208c1.128 0 1.776.48 1.776 1.428s-.648 1.464-1.776 1.464h-2.208v-2.892zM171.49 266l-3.372-8.4h-1.32l-3.36 8.4h1.152l.96-2.496h3.768l.96 2.496h1.212zm-4.296-6.768c.084-.216.168-.432.24-.636.084.204.156.42.24.636l1.296 3.36h-3.072l1.296-3.36zm6.404 6.768v-7.344l2.868 7.344h1.224l2.856-7.356V266h1.08v-8.4h-1.68l-2.496 6.396c-.12.312-.228.588-.348.912l-.36-.912-2.52-6.396h-1.704v8.4h1.08z"/><path fill="#12100C" d="M319.599 333.36c2.18 0 3.6-.94 4.26-2.2-.1.46-.14.92-.14 1.4v.44h2.4v-7.46h-6.2v2.22h3.8v.1c0 2-1.62 3.28-3.7 3.28-2.56 0-4.32-1.96-4.32-5.14 0-3.18 1.8-5.14 4.38-5.14 1.86 0 3.1 1.08 3.28 2.48h2.7c-.26-2.72-2.52-4.7-6.02-4.7-4.22 0-7.04 3.04-7.04 7.36 0 4.48 2.64 7.36 6.6 7.36zm8.562-11.6h2.56v-2.56h-2.56v2.56zm.06 1.48V333h2.44v-9.76h-2.44zm9.062 9.94c.62 0 1.2-.1 1.44-.18v-1.84c-.24.04-.5.06-.74.06-1.04 0-1.44-.6-1.44-1.62v-4.42h2.4v-1.94h-2.4v-3.52h-2.44v3.52h-2.22v1.94h2.22v4.78c0 2.18 1.1 3.22 3.18 3.22zm5.557 3.9v-4.48c0-.28-.02-.54-.08-.94.62 1 1.46 1.7 3.1 1.7 2.48 0 4.38-2.02 4.38-5.18 0-3.1-1.7-5.26-4.28-5.26-1.54 0-2.58.68-3.2 1.72.06-.4.08-.66.08-.96v-.44h-2.44v13.84h2.44zm2.42-5.64c-1.48 0-2.52-1.34-2.52-3.3 0-2.02 1.06-3.28 2.52-3.28 1.56 0 2.5 1.36 2.5 3.28 0 1.96-1 3.3-2.5 3.3zm11.158 1.92c2.94 0 5.02-1.96 5.02-5.2 0-3.2-2.08-5.24-5.02-5.24-2.92 0-5 2.04-5 5.24 0 3.24 2.06 5.2 5 5.2zm0-1.92c-1.52 0-2.52-1.2-2.52-3.28 0-2.12 1.04-3.3 2.52-3.3 1.5 0 2.54 1.18 2.54 3.3 0 2.08-1.02 3.28-2.54 3.28zm10.687 1.92c1.8 0 2.68-.98 3.06-1.7-.08.34-.08.6-.08.94v.4h2.44v-14h-2.44v4.68c0 .3 0 .6.08.96-.56-.94-1.5-1.72-3.02-1.72-2.28 0-4.5 1.74-4.5 5.24 0 3.44 1.88 5.2 4.46 5.2zm.58-1.92c-1.46 0-2.56-1.28-2.56-3.3 0-1.94 1.1-3.28 2.56-3.28s2.54 1.28 2.54 3.28c0 1.96-1.08 3.3-2.54 3.3z"/><rect width="138" height="96" x="337" y="144" fill="url(#paint0_linear)" rx="8" transform="rotate(90 337 144)"/><path fill="#12100C" d="M272.691 266.216c1.728 0 3.012-1.26 3.012-3 0-1.644-1.14-2.724-2.652-2.724-1.056 0-1.812.624-2.208 1.236.036-.168.048-.372.06-.54.072-1.488.648-2.52 1.896-2.52.78 0 1.248.42 1.332 1.176h1.536c-.108-1.44-1.104-2.46-2.82-2.46-1.344 0-2.316.6-2.892 1.656-.72 1.32-.84 3.624-.288 5.064.516 1.344 1.5 2.112 3.024 2.112zm-.048-1.284c-.948 0-1.572-.624-1.572-1.62 0-.936.624-1.524 1.596-1.524.924 0 1.524.6 1.524 1.548 0 .984-.612 1.596-1.548 1.596zm9.678 1.068l2.148-5.856h-1.512l-1.272 3.864a5.727 5.727 0 00-.204.756c-.072-.3-.12-.504-.216-.756l-1.284-3.864h-1.572l2.208 5.856h1.704zm6.667.216c2.256 0 3.66-1.308 3.864-3.252h-1.572c-.168 1.116-.996 1.92-2.244 1.92-1.464 0-2.52-1.188-2.52-3.144 0-1.884 1.068-3.024 2.556-3.024 1.236 0 1.956.744 2.112 1.836h1.632c-.216-1.992-1.692-3.168-3.744-3.168-2.376 0-4.176 1.656-4.176 4.356 0 2.856 1.596 4.476 4.092 4.476zm6.571-.216v-3.36h1.956c1.692 0 3.072-.696 3.072-2.52 0-1.776-1.32-2.52-3.072-2.52h-3.528v8.4h1.572zm0-7.068h1.956c1.032 0 1.452.456 1.452 1.188s-.444 1.188-1.452 1.188h-1.956v-2.376zm9.401 7.284c2.136 0 3.408-1.236 3.408-3.42V257.6h-1.572v4.956c0 1.536-.648 2.328-1.836 2.328-1.2 0-1.836-.768-1.836-2.328V257.6h-1.584v5.196c0 2.184 1.272 3.42 3.42 3.42z"/><rect width="282" height="96" x="445" fill="url(#paint1_linear)" rx="8" transform="rotate(90 445 0)"/><path fill="#12100C" d="M370.134 257.6c-.216.936-.984 1.476-2.076 1.632v1.428c.9-.036 1.548-.444 1.932-1.104a3.154 3.154 0 00-.048.588V266h1.5v-8.4h-1.308zm8.662 8.4v-1.404h-4.032c.108-.228.336-.396 1.152-.984l.564-.396c1.212-.852 2.316-1.728 2.316-3.276 0-1.452-1.044-2.556-2.856-2.556-1.968 0-3.144 1.236-3.144 3.096v.072h1.608v-.084c0-1.104.516-1.8 1.536-1.8.828 0 1.332.468 1.332 1.26 0 .828-.636 1.404-1.548 2.052l-.492.348c-1.404.996-2.496 1.788-2.544 3.672h6.108zm4.882.216c1.308 0 2.16-.564 2.556-1.32-.06.276-.084.552-.084.84V266h1.44v-4.476h-3.72v1.332h2.28v.06c0 1.2-.972 1.968-2.22 1.968-1.536 0-2.592-1.176-2.592-3.084 0-1.908 1.08-3.084 2.628-3.084 1.116 0 1.86.648 1.968 1.488h1.62c-.156-1.632-1.512-2.82-3.612-2.82-2.532 0-4.224 1.824-4.224 4.416 0 2.688 1.584 4.416 3.96 4.416zm8.737-.216c1.692 0 3.288-.624 3.288-2.412 0-1.116-.78-1.8-1.884-2.028.864-.228 1.632-.792 1.632-1.836 0-1.524-1.248-2.124-2.868-2.124h-3.552v8.4h3.384zm-1.836-7.068h1.812c1.008 0 1.44.36 1.44.984 0 .672-.432 1.068-1.44 1.068h-1.812v-2.052zm0 3.348h1.896c1.092 0 1.608.348 1.608 1.188 0 .78-.516 1.2-1.608 1.2h-1.896v-2.388zm10.366 3.72v-3.408h1.764c1.02 0 1.38.36 1.38 1.356V266h1.584v-2.196c0-1.08-.516-1.776-1.476-1.944.804-.24 1.608-.9 1.608-2.052 0-1.464-1.14-2.208-2.712-2.208h-3.72v8.4h1.572zm0-7.068h1.848c.924 0 1.392.408 1.392 1.164s-.468 1.152-1.392 1.152h-1.848v-2.316zM414.927 266l-3.456-8.4h-1.8l-3.456 8.4h1.68l.852-2.292h3.576l.84 2.292h1.764zm-4.728-6.24c.132-.336.24-.624.348-.972.096.348.192.624.324.972l.96 2.616h-2.592l.96-2.616zm6.982 6.24v-5.652c0-.432-.012-.828-.036-1.2l2.436 6.852h1.92l2.304-6.852c-.024.36-.024.768-.024 1.2V266h1.512v-8.4h-2.484l-2.052 6.072c-.108.288-.156.528-.216.768-.048-.24-.12-.48-.216-.768l-2.136-6.072h-2.508v8.4h1.5z"/><defs><linearGradient id="paint0_linear" x1="356.838" x2="421.174" y1="157.8" y2="258.423" gradientUnits="userSpaceOnUse"><stop stop-color="#FFAD33"/><stop offset="1" stop-color="#FF8A00"/></linearGradient><linearGradient id="paint1_linear" x1="485.538" x2="525.937" y1="13.8" y2="142.918" gradientUnits="userSpaceOnUse"><stop stop-color="#FFAD33"/><stop offset="1" stop-color="#FF8A00"/></linearGradient></defs></svg>