<svg xmlns="http://www.w3.org/2000/svg" fill="none" viewBox="0 0 36 40"><path fill="url(#paint0_linear)" fill-rule="evenodd" d="M21.388 1.992c1.07 1.895.42 4.31-1.452 5.392L8.302 14.118c-.308.178-.498.51-.498.868v10.57c0 .36.19.69.498.869l9.209 5.33a.975.975 0 00.978 0l9.21-5.33c.307-.178.497-.51.497-.869v-6.573l-8.279 4.73a3.876 3.876 0 01-5.316-1.5c-1.059-1.9-.395-4.311 1.481-5.384l11.846-6.769C31.536 7.998 36 10.64 36 14.835v11.524a7.54 7.54 0 01-3.742 6.53l-10.573 6.12a7.345 7.345 0 01-7.37 0l-10.573-6.12A7.54 7.54 0 010 26.36V14.183a7.54 7.54 0 013.742-6.53L16.064.52a3.876 3.876 0 015.324 1.471z" clip-rule="evenodd"/><defs><linearGradient id="paint0_linear" x1="27.096" x2="8.281" y1="6.049" y2="35.254" gradientUnits="userSpaceOnUse"><stop stop-color="#FFB45B"/><stop offset="1" stop-color="#FF8A00"/></linearGradient></defs></svg>