<?xml version="1.0" standalone="no"?>
<!DOCTYPE svg PUBLIC "-//W3C//DTD SVG 20010904//EN"
 "http://www.w3.org/TR/2001/REC-SVG-20010904/DTD/svg10.dtd">
<svg version="1.0" xmlns="http://www.w3.org/2000/svg"
 width="100.000000pt" height="100.000000pt" viewBox="0 0 100.000000 100.000000"
 preserveAspectRatio="xMidYMid meet">
<g transform="translate(0.000000,100.000000) scale(0.100000,-0.100000)"
fill="#888888" stroke="none">
<path d="M407 993 c-41 -5 -43 -6 -52 -73 -5 -44 -8 -47 -64 -74 l-59 -28 -50
18 c-49 18 -51 18 -71 0 -12 -11 -21 -24 -21 -31 0 -7 -12 -25 -26 -40 -15
-16 -35 -54 -46 -84 -21 -63 -25 -53 47 -104 22 -16 25 -25 25 -82 0 -60 -2
-66 -27 -80 -66 -35 -66 -36 -40 -107 13 -35 32 -74 43 -85 10 -12 27 -33 37
-47 21 -30 38 -32 97 -11 39 14 44 14 69 -4 15 -11 39 -23 54 -26 22 -6 27
-14 32 -53 9 -68 10 -69 52 -75 46 -8 157 -7 198 2 27 5 31 11 40 60 10 49 14
56 45 69 19 8 42 20 51 28 14 13 22 13 60 0 67 -24 81 -21 109 24 14 22 28 40
31 40 7 0 59 123 59 139 0 5 -20 22 -43 37 l-44 27 1 62 c1 61 15 95 41 95 6
0 20 9 30 20 17 19 17 22 -5 79 -12 33 -31 70 -41 83 -11 13 -30 37 -43 53
l-24 30 -51 -18 -51 -18 -59 27 -59 27 -9 56 -8 56 -45 7 c-48 7 -120 7 -183
1z m201 -325 c112 -69 129 -225 33 -311 -78 -70 -195 -75 -271 -10 -119 99
-78 298 70 342 47 14 128 4 168 -21z"/>
</g>
</svg>
