<svg xmlns="http://www.w3.org/2000/svg" xmlns:xlink="http://www.w3.org/1999/xlink" fill="#fff" fill-rule="evenodd" stroke="#000" stroke-linecap="round" stroke-linejoin="round" viewBox="0 0 81 66"><use x=".5" y=".5" xlink:href="#a"/><symbol id="a" overflow="visible"><g fill-rule="nonzero" stroke="none"><path fill="#ea4335" d="M50.764 17.729h2.439l6.953-6.954.341-2.953C47.556-3.602 27.805-2.368 16.381 10.574a31.263 31.263 0 00-6.733 12.5 3.762 3.762 0 012.44-.144l13.907-2.295s.706-1.172 1.076-1.1a17.35 17.35 0 0123.742-1.806h-.048z"/><path fill="#4285f4" d="M70.064 23.074a31.3 31.3 0 00-9.441-15.223l-9.758 9.758a17.35 17.35 0 016.368 13.763v1.734a8.69 8.69 0 018.687 8.687 8.69 8.69 0 01-8.687 8.687H39.859l-1.734 1.758v10.421l1.734 1.734h17.374c12.476.096 22.671-9.94 22.767-22.416a22.6 22.6 0 00-9.936-18.901z"/><path fill="#34a853" d="M22.46 64.282h17.374V50.375H22.46a8.65 8.65 0 01-3.587-.783l-2.44.759-7.002 6.954-.61 2.439a22.422 22.422 0 0013.638 4.538z"/><path fill="#fbbc05" d="M22.46 19.17C9.979 19.242-.072 29.418 0 41.899a22.58 22.58 0 008.822 17.773l10.075-10.075a8.69 8.69 0 01-4.341-11.492 8.69 8.69 0 0111.492-4.341 8.704 8.704 0 014.341 4.341L40.463 28.03a22.54 22.54 0 00-18.003-8.86z"/></g></symbol></svg>