<svg viewBox="0 0 30 28" fill="none" xmlns="http://www.w3.org/2000/svg"><path d="M14.583 27.214L9.21 10.954h10.738l-5.365 16.26z" fill="#fff"/><path d="M27.476 10.954l1.637 4.94c.148.449-.012.944-.403 1.223L14.584 27.214l12.892-16.26z" fill="#fff" fill-opacity=".65"/><path d="M27.476 10.954h-7.527l3.24-9.793c.165-.5.888-.5 1.06 0l3.227 9.793z" fill="#fff"/><path d="M1.685 10.954l-1.63 4.94c-.148.449.012.944.403 1.223l14.127 10.097-12.9-16.26z" fill="#fff" fill-opacity=".65"/><path d="M1.685 10.954H9.21L5.978 1.161c-.166-.5-.888-.5-1.06 0l-3.233 9.793z" fill="#fff"/><path d="M14.585 27.214l-5.373-16.26H1.685l12.9 16.26z" fill="#fff" fill-opacity=".85"/><path d="M14.584 27.214l12.892-16.26h-7.527l-5.365 16.26z" fill="#fff" fill-opacity=".85"/></svg>