<svg width="24" height="24" viewBox="0 0 24 24" fill="none" xmlns="http://www.w3.org/2000/svg">
<g clip-path="url(#clip0)">
<path fill-rule="evenodd" clip-rule="evenodd" d="M23.9429 11.9714C23.9429 18.5831 18.5831 23.9429 11.9714 23.9429C5.35979 23.9429 0 18.5831 0 11.9714C0 5.35979 5.35979 0 11.9714 0C18.5831 0 23.9429 5.35979 23.9429 11.9714ZM19.67 11.0058C19.8587 11.2924 19.9587 11.6283 19.9573 11.9714C19.9573 12.6857 19.5287 13.3 18.9287 13.5714C18.9572 13.7462 18.9716 13.9229 18.9716 14.1C18.9716 16.8 15.843 18.9714 11.9859 18.9714C8.12872 18.9714 5.00015 16.7857 5.00015 14.1C5.00015 13.9143 5.01443 13.7429 5.04301 13.5714C4.8118 13.4666 4.60629 13.3125 4.44085 13.1199C4.27541 12.9273 4.15405 12.7009 4.08524 12.4566C4.01643 12.2122 4.00184 11.9557 4.04248 11.7051C4.08313 11.4545 4.17804 11.2158 4.32057 11.0057C4.46309 10.7956 4.6498 10.6192 4.86762 10.4888C5.08544 10.3584 5.32913 10.2772 5.58163 10.2508C5.83413 10.2244 6.08934 10.2535 6.32943 10.336C6.56952 10.4185 6.78868 10.5525 6.97158 10.7286C8.18586 9.85714 9.85729 9.3 11.7144 9.24286L12.6001 5.07143C12.606 5.03082 12.6205 4.99193 12.6426 4.95742C12.6648 4.92291 12.6942 4.89358 12.7287 4.87143C12.7859 4.82857 12.8716 4.81429 12.9573 4.82857L15.8573 5.44286C15.9919 5.17156 16.2209 4.95874 16.5013 4.84438C16.7818 4.73001 17.0943 4.72198 17.3802 4.82178C17.6662 4.92158 17.9058 5.12235 18.0542 5.38637C18.2025 5.65039 18.2494 5.9595 18.1859 6.25563C18.1225 6.55176 17.9531 6.81452 17.7096 6.99457C17.466 7.17462 17.1652 7.25956 16.8634 7.23344C16.5617 7.20731 16.2799 7.07192 16.071 6.85269C15.862 6.63346 15.7403 6.34549 15.7287 6.04286L13.1287 5.48572L12.3287 9.22857C14.1573 9.3 15.8001 9.85714 17.0001 10.7143C17.2463 10.4752 17.5575 10.3141 17.8948 10.2512C18.2322 10.1883 18.5805 10.2263 18.8963 10.3606C19.2121 10.4948 19.4812 10.7193 19.67 11.0058ZM8.08047 12.7387C8.01801 12.8895 7.98586 13.0511 7.98586 13.2143C7.98586 13.5439 8.11681 13.86 8.34989 14.0931C8.58297 14.3262 8.89909 14.4571 9.22872 14.4571C9.55835 14.4571 9.87447 14.3262 10.1076 14.0931C10.3406 13.86 10.4716 13.5439 10.4716 13.2143C10.4716 13.0511 10.4394 12.8895 10.377 12.7387C10.3145 12.5879 10.223 12.4509 10.1076 12.3355C9.99214 12.22 9.85513 12.1285 9.70434 12.066C9.55355 12.0036 9.39193 11.9714 9.22872 11.9714C9.06551 11.9714 8.90389 12.0036 8.7531 12.066C8.60231 12.1285 8.4653 12.22 8.34989 12.3355C8.23448 12.4509 8.14293 12.5879 8.08047 12.7387ZM11.9859 17.4286C12.4573 17.4286 14.0859 17.3714 14.943 16.5143C15.0573 16.3857 15.0573 16.1857 14.943 16.0571C14.8144 15.9286 14.6144 15.9286 14.4859 16.0571C13.9573 16.6 12.8001 16.7857 11.9859 16.7857C11.1716 16.7857 10.0287 16.6 9.48586 16.0571C9.35729 15.9286 9.15729 15.9286 9.02872 16.0571C8.90015 16.1857 8.90015 16.3857 9.02872 16.5143C9.87158 17.3571 11.5001 17.4286 11.9859 17.4286ZM13.8356 14.1074C14.0687 14.3405 14.3848 14.4714 14.7144 14.4714C15.0441 14.4714 15.3602 14.3405 15.5933 14.1074C15.8263 13.8743 15.9573 13.5582 15.9573 13.2286C15.9573 12.8989 15.8263 12.5828 15.5933 12.3497C15.3602 12.1167 15.0441 11.9857 14.7144 11.9857C14.3848 11.9857 14.0687 12.1167 13.8356 12.3497C13.6025 12.5828 13.4716 12.8989 13.4716 13.2286C13.4716 13.5582 13.6025 13.8743 13.8356 14.1074Z" fill="url(#paint0_linear)"/>
</g>
<defs>
<linearGradient id="paint0_linear" x1="3.44179" y1="3.44179" x2="21.0568" y2="22.6069" gradientUnits="userSpaceOnUse">
<stop stop-color="#FFAD33"/>
<stop offset="1" stop-color="#FF8A00"/>
</linearGradient>
<clipPath id="clip0">
<rect width="24" height="24" fill="white"/>
</clipPath>
</defs>
</svg>
