<svg xmlns="http://www.w3.org/2000/svg" width="20" height="20" viewBox="0 0 20 20">
    <path fill="#36C" fill-rule="evenodd" d="M10 20C4.477 20 0 15.523 0 10S4.477 0 10 0s10 4.477 10 10-4.477 10-10 10zm2.545-5.833v-.446a2.06 2.06 0 0 1-.574-.159.555.555 0 0 1-.262-.222.683.683 0 0 1-.092-.364V8.13l-.092-.091-2.99.158v.446c.122.012.257.04.406.085.148.045.259.092.332.14a.808.808 0 0 1 .244.26.712.712 0 0 1 .098.376v3.552c0 .15-.026.271-.08.363a.506.506 0 0 1-.274.21c-.073.029-.16.05-.262.062a7.332 7.332 0 0 1-.312.03v.446h3.858zm-.891-8.326c0-.309-.118-.573-.354-.793a1.202 1.202 0 0 0-.849-.33c-.33 0-.613.11-.851.33-.238.22-.357.484-.357.793 0 .31.119.573.357.79.238.219.522.327.851.327.326 0 .608-.108.846-.326.238-.218.357-.481.357-.79z"/>
</svg>
