<?xml version="1.0" encoding="UTF-8" standalone="no"?>
<!-- Created with Inkscape (http://www.inkscape.org/) -->

<svg
   xmlns:dc="http://purl.org/dc/elements/1.1/"
   xmlns:cc="http://creativecommons.org/ns#"
   xmlns:rdf="http://www.w3.org/1999/02/22-rdf-syntax-ns#"
   xmlns:svg="http://www.w3.org/2000/svg"
   xmlns="http://www.w3.org/2000/svg"
   version="1.1"
   width="220"
   height="70"
   id="svg2">
  <defs
     id="defs4" />
  <metadata
     id="metadata7">
    <rdf:RDF>
      <cc:Work
         rdf:about="">
        <dc:format>image/svg+xml</dc:format>
        <dc:type
           rdf:resource="http://purl.org/dc/dcmitype/StillImage" />
        <dc:title></dc:title>
      </cc:Work>
    </rdf:RDF>
  </metadata>
  <g
     transform="translate(0,-982.36218)"
     id="layer1">
    <g
       id="text2985"
       style="font-size:36.32448196px;font-style:normal;font-weight:normal;line-height:125%;letter-spacing:0px;word-spacing:0px;fill:#646464;fill-opacity:1;stroke:none;font-family:Sans">
      <path
         d="m 22.345866,1021.9142 c -2.1e-5,1.8092 -0.514381,3.2813 -1.543081,4.4164 -1.489889,1.6436 -3.760167,2.4654 -6.81084,2.4654 l -10.0921049,0 0,-24.2104 9.3649059,0 c 4.540543,0 6.810821,2.1048 6.81084,6.3142 -1.9e-5,1.2653 -0.24833,2.3235 -0.744936,3.1749 -0.41387,0.7213 -1.052386,1.3361 -1.915549,1.8446 1.93918,0.402 3.263509,1.1765 3.972991,2.3235 0.638495,1.0523 0.957753,2.2762 0.957774,3.6714 z m -8.087873,-10.1808 c -1.3e-5,-1.0996 -0.496636,-1.8268 -1.489871,-2.1816 -0.354742,-0.1182 -0.827717,-0.1773 -1.418925,-0.1773 l -1.152877,0 0,4.7356 1.152877,0 c 1.087831,10e-5 1.868239,-0.266 2.341226,-0.7981 0.378367,-0.4257 0.567557,-0.9518 0.56757,-1.5786 z m 1.791393,9.7552 c -1.5e-5,-1.4071 -0.727213,-2.2348 -2.181597,-2.4832 -0.461163,-0.071 -1.253395,-0.1064 -2.3767,-0.1064 l -1.294769,0 0,5.1081 1.401189,0 c 1.608103,10e-5 2.731417,-0.1891 3.369947,-0.5675 0.721272,-0.4257 1.081915,-1.076 1.08193,-1.951 z"
         id="path2986"
         style="font-variant:normal;font-weight:bold;font-stretch:normal;letter-spacing:-3.55979919px;fill:#646464;font-family:Aharoni;-inkscape-font-specification:Aharoni Bold" />
      <path
         d="m 28.452493,1006.0045 c -8e-6,0.9224 -0.31631,1.6998 -0.948906,2.3324 -0.632611,0.6326 -1.410063,0.9489 -2.332358,0.9489 -0.910481,0 -1.682021,-0.3192 -2.314622,-0.9578 -0.632606,-0.6385 -0.948907,-1.413 -0.948906,-2.3235 -1e-6,-0.9104 0.3163,-1.682 0.948906,-2.3146 0.632601,-0.6326 1.404141,-0.9489 2.314622,-0.9489 0.910471,0 1.684967,0.3163 2.32349,0.9489 0.638508,0.6326 0.957766,1.4042 0.957774,2.3146 z m -0.372468,22.7915 -5.817592,0 0,-16.4595 5.817592,0 z"
         id="path2988"
         style="font-variant:normal;font-weight:bold;font-stretch:normal;letter-spacing:-3.55979919px;fill:#646464;font-family:Aharoni;-inkscape-font-specification:Aharoni Bold" />
      <path
         d="m 47.719651,1020.5485 c -2.1e-5,2.7669 -0.951883,4.9899 -2.855587,6.669 -1.596307,1.4071 -3.417259,2.1106 -5.462861,2.1106 -1.26522,0 -2.394447,-0.2779 -3.387684,-0.8336 -0.603052,-0.3311 -1.164709,-0.8395 -1.684974,-1.5253 l 0,1.8268 -5.817592,0 0,-26.6403 5.817592,0 0,11.7948 c 0.626684,-0.6503 1.235639,-1.1174 1.826866,-1.4012 1.02871,-0.4966 2.128376,-0.7449 3.299001,-0.7449 2.010129,0 3.789696,0.6681 5.338706,2.0042 1.951002,1.6791 2.926512,3.9257 2.926533,6.7399 z m -6.048168,0.018 c -1.5e-5,-0.9105 -0.301537,-1.7205 -0.904565,-2.43 -0.744949,-0.8749 -1.696811,-1.3124 -2.855587,-1.3125 -1.040555,1e-4 -1.927382,0.3637 -2.660484,1.0908 -0.73312,0.7272 -1.099675,1.6111 -1.099667,2.6517 -8e-6,1.0405 0.366547,1.9244 1.099667,2.6516 0.733102,0.7272 1.619929,1.0908 2.660484,1.0908 1.170601,0 2.122462,-0.4375 2.855587,-1.3125 0.603028,-0.7213 0.90455,-1.5313 0.904565,-2.4299 z"
         id="path2990"
         style="font-variant:normal;font-weight:bold;font-stretch:normal;letter-spacing:-3.55979919px;fill:#646464;font-family:Aharoni;-inkscape-font-specification:Aharoni Bold" />
      <path
         d="m 77.327226,1028.796 -6.29648,0 -1.791393,-13.9409 -5.853066,13.9409 -2.500856,0 -5.587017,-13.9409 -2.057441,13.9409 -6.261007,0 4.114882,-24.2104 6.207798,0 4.913028,12.9122 5.196813,-12.9122 6.261007,0 z"
         id="path2992"
         style="font-variant:normal;font-weight:bold;font-stretch:normal;letter-spacing:-3.55979919px;fill:#646464;font-family:Aharoni;-inkscape-font-specification:Aharoni Bold" />
      <path
         d="m 95.778505,1028.796 -5.817593,0 0,-1.8268 c -0.55576,0.6976 -1.117417,1.206 -1.684973,1.5253 -0.99326,0.5557 -2.122487,0.8336 -3.387684,0.8336 -2.045625,0 -3.866577,-0.7035 -5.462862,-2.1106 -1.903726,-1.6791 -2.855588,-3.9021 -2.855586,-6.669 -2e-6,-2.8142 0.975508,-5.0608 2.926533,-6.7399 1.548987,-1.3361 3.328554,-2.0042 5.338705,-2.0042 1.170603,0 2.270269,0.2483 3.299001,0.7449 0.591205,0.2838 1.20016,0.7509 1.826866,1.4012 l 0,-1.614 5.817593,0 z m -5.640227,-8.2297 c -1.5e-5,-1.0406 -0.36657,-1.9245 -1.099667,-2.6517 -0.733125,-0.7271 -1.619952,-1.0907 -2.660485,-1.0908 -1.158799,10e-5 -2.11066,0.4376 -2.855586,1.3125 -0.603051,0.7095 -0.904573,1.5195 -0.904565,2.43 -8e-6,0.9104 0.301514,1.7204 0.904565,2.4299 0.733102,0.875 1.684963,1.3125 2.855586,1.3125 1.052358,0 1.942141,-0.3607 2.669353,-1.082 0.727185,-0.7212 1.090784,-1.6081 1.090799,-2.6604 z"
         id="path2994"
         style="font-variant:normal;font-weight:bold;font-stretch:normal;letter-spacing:-3.55979919px;fill:#646464;font-family:Aharoni;-inkscape-font-specification:Aharoni Bold" />
      <path
         d="m 113.59126,1028.796 -5.81759,0 0,-8.3362 c -10e-6,-1.4544 -0.16556,-2.418 -0.49663,-2.891 -0.48481,-0.6977 -1.21201,-1.0465 -2.18159,-1.0465 -0.88684,0 -1.63178,0.3016 -2.23481,0.9046 -0.54393,0.5439 -0.81589,1.3953 -0.81588,2.554 l 0,8.8151 -5.817594,0 0,-16.4595 5.817594,0 0,2.0752 c 0.67398,-0.7804 1.29476,-1.3303 1.86234,-1.6495 0.92229,-0.5203 2.07516,-0.7804 3.45863,-0.7804 1.77364,0 3.21621,0.4789 4.32772,1.4366 1.26519,1.0879 1.89779,2.7196 1.89781,4.8953 z"
         id="path2996"
         style="font-variant:normal;font-weight:bold;font-stretch:normal;letter-spacing:-3.55979919px;fill:#646464;font-family:Aharoni;-inkscape-font-specification:Aharoni Bold" />
      <path
         d="m 132.57463,1028.796 -5.81759,0 0,-1.8268 c -0.55576,0.6976 -1.11742,1.206 -1.68497,1.5253 -0.99326,0.5557 -2.12249,0.8336 -3.38769,0.8336 -2.04562,0 -3.86657,-0.7035 -5.46286,-2.1106 -1.90373,-1.6791 -2.85559,-3.9021 -2.85559,-6.669 0,-2.8142 0.97551,-5.0608 2.92654,-6.7399 1.54898,-1.3361 3.32855,-2.0042 5.3387,-2.0042 1.1706,0 2.27027,0.2483 3.299,0.7449 0.59121,0.2838 1.20016,0.7509 1.82687,1.4012 l 0,-1.614 5.81759,0 z m -5.64022,-8.2297 c -2e-5,-1.0406 -0.36658,-1.9245 -1.09967,-2.6517 -0.73313,-0.7271 -1.61995,-1.0907 -2.66049,-1.0908 -1.1588,10e-5 -2.11066,0.4376 -2.85558,1.3125 -0.60305,0.7095 -0.90458,1.5195 -0.90457,2.43 -1e-5,0.9104 0.30152,1.7204 0.90457,2.4299 0.7331,0.875 1.68496,1.3125 2.85558,1.3125 1.05236,0 1.94214,-0.3607 2.66936,-1.082 0.72718,-0.7212 1.09078,-1.6081 1.0908,-2.6604 z"
         id="path2998"
         style="font-variant:normal;font-weight:bold;font-stretch:normal;letter-spacing:-3.55979919px;fill:#646464;font-family:Aharoni;-inkscape-font-specification:Aharoni Bold" />
      <path
         d="m 151.45159,1027.6609 c -2e-5,1.4426 -0.10053,2.6073 -0.30152,3.4941 -0.31928,1.4189 -1.14698,2.69 -2.48312,3.8133 -1.6909,1.419 -3.93753,2.1284 -6.73989,2.1284 -2.93246,0 -5.26777,-0.7745 -7.00595,-2.3235 -1.15879,-1.0287 -1.89781,-2.1047 -2.21707,-3.228 -0.0355,-0.1183 -0.0828,-0.3666 -0.14189,-0.7449 l 6.54479,0 c 0.18918,0.5439 0.44341,0.9341 0.76267,1.1706 0.52027,0.3902 1.18243,0.5853 1.9865,0.5853 1.34797,0 2.3826,-0.4789 3.1039,-1.4367 0.44931,-0.603 0.67397,-1.4662 0.67399,-2.5895 l 0,-1.5608 c -0.69765,0.6385 -1.28296,1.0878 -1.75592,1.3479 -0.98144,0.544 -2.14023,0.8159 -3.47637,0.8159 -1.67907,0 -3.18076,-0.4316 -4.50509,-1.2948 -1.3598,-0.8868 -2.33531,-2.0988 -2.92653,-3.6359 -0.40203,-1.0406 -0.60304,-2.1698 -0.60304,-3.3877 0,-2.696 0.85726,-4.8894 2.5718,-6.5803 1.59628,-1.5726 3.51774,-2.3589 5.76438,-2.359 1.19425,10e-5 2.25845,0.2425 3.19258,0.7272 0.55574,0.2957 1.13513,0.7805 1.73819,1.4544 l 0,-1.7204 5.81759,0 z m -5.53381,-7.1479 c -1e-5,-1.0523 -0.36066,-1.9569 -1.08193,-2.7136 -0.7213,-0.7568 -1.60813,-1.1352 -2.66048,-1.1352 -1.17063,0 -2.1284,0.4493 -2.87333,1.348 -0.59122,0.7213 -0.88683,1.5549 -0.88682,2.5008 -1e-5,1.0524 0.36359,1.954 1.09079,2.7049 0.72719,0.7508 1.61698,1.1262 2.66936,1.1262 1.04053,0 1.9244,-0.3754 2.65161,-1.1262 0.72719,-0.7509 1.09079,-1.6525 1.0908,-2.7049 z"
         id="path3000"
         style="font-variant:normal;font-weight:bold;font-stretch:normal;letter-spacing:-3.55979919px;fill:#646464;font-family:Aharoni;-inkscape-font-specification:Aharoni Bold" />
      <path
         d="m 169.35302,1021.6304 -12.23823,0 c 0,2.4713 1.19426,3.707 3.58279,3.707 1.2179,0 2.15202,-0.5203 2.80238,-1.5608 l 5.62249,0 c -0.44935,1.4898 -1.11151,2.6427 -1.9865,3.4586 -1.58448,1.478 -3.70695,2.2171 -6.36742,2.2171 -3.38178,0 -5.92402,-1.0287 -7.62673,-3.0862 -1.27703,-1.5372 -1.91555,-3.4113 -1.91554,-5.6225 -1e-5,-2.625 0.79814,-4.7593 2.39443,-6.4029 1.59629,-1.6436 3.84883,-2.4653 6.75763,-2.4654 3.58277,10e-5 6.14275,1.3007 7.67993,3.9021 0.86316,1.4662 1.29475,3.1689 1.29477,5.1081 z m -5.42739,-3.3344 c -0.41386,-1.821 -1.51944,-2.7314 -3.31673,-2.7315 -0.99326,1e-4 -1.79732,0.2898 -2.41218,0.8691 -0.4848,0.4612 -0.79224,1.082 -0.9223,1.8624 z"
         id="path3002"
         style="font-variant:normal;font-weight:bold;font-stretch:normal;letter-spacing:-3.55979919px;fill:#646464;font-family:Aharoni;-inkscape-font-specification:Aharoni Bold" />
      <path
         d="m 181.45462,1017.7107 c -0.8159,-0.3902 -1.6436,-0.5853 -2.48312,-0.5853 -1.91556,0 -3.15712,0.7804 -3.72468,2.3412 -0.21285,0.5676 -0.31926,1.3302 -0.31926,2.288 l 0,7.0414 -5.81759,0 0,-16.4595 5.81759,0 0,2.6959 c 0.61486,-0.9577 1.27703,-1.6494 1.9865,-2.0751 0.95776,-0.5676 2.0929,-0.8514 3.40542,-0.8514 0.30742,0 0.6858,0.018 1.13514,0.053 z"
         id="path3004"
         style="font-variant:normal;font-weight:bold;font-stretch:normal;letter-spacing:-3.55979919px;fill:#646464;font-family:Aharoni;-inkscape-font-specification:Aharoni Bold" />
    </g>
    <path
       d="m 194.62883,992.2005 c 1.72897,0.1228 3.43768,0.4543 5.1815,0.9788 11.05134,3.3268 18.66904,15.1201 15.015,26.6906 -2.8389,8.9895 -12.49662,15.1557 -21.98318,11.9876 -7.20654,-2.4066 -12.19964,-10.2993 -9.45706,-17.9864 2.02991,-5.6896 8.38669,-9.6438 14.5474,-7.2637 4.4244,1.7093 7.54307,6.8428 5.45716,11.7372 -0.72343,1.6975 -2.02163,3.0305 -3.66707,3.8342 -1.64545,0.8037 -3.79928,0.9785 -5.73597,0.043 -1.29115,-0.6234 -2.25564,-1.6113 -2.84358,-2.9313 -0.58792,-1.3202 -0.72874,-3.1666 0.14776,-4.7059 0.55934,-0.9824 1.33548,-1.6454 2.41963,-2.0625 -1.97969,0.2603 -3.8654,1.3899 -4.59032,3.4217 -1.48306,4.1569 1.45901,8.749 5.67454,10.1568 5.9723,1.9944 12.36937,-2.0985 14.25297,-8.0629 2.54854,-8.07 -2.96087,-16.5916 -10.95897,-18.9993 -19.81851,-3.2034 -25.96678,10.2433 -34.0482,11.9075 3.38676,-11.7283 18.48571,-19.606 30.58842,-18.7461 z m 2.29529,21.5135 c -1.79781,0.098 -1.57998,2.939 0.15128,3.0158 1.7313,0.077 1.64651,-3.1142 -0.15128,-3.0158 z"
       id="path2987"
       style="font-size:medium;font-style:normal;font-variant:normal;font-weight:normal;font-stretch:normal;text-indent:0;text-align:start;text-decoration:none;line-height:normal;letter-spacing:normal;word-spacing:normal;text-transform:none;direction:ltr;block-progression:tb;writing-mode:lr-tb;text-anchor:start;baseline-shift:baseline;color:#000000;fill:#00d100;fill-opacity:1;stroke:none;stroke-width:3.0999999;marker:none;visibility:visible;display:inline;overflow:visible;enable-background:accumulate;font-family:Sans;-inkscape-font-specification:Sans" />
  </g>
</svg>
