<svg width="488" height="223" viewBox="0 0 488 223" fill="none" xmlns="http://www.w3.org/2000/svg" style="border-radius: 20px">
   <rect width="488" height="223" rx="20" fill="#12100C" fill-opacity="0.7"/>
   <path d="M36.376 80.256C37.832 80.256 38.952 79.536 39.464 78.48C39.448 78.832 39.432 79.2 39.432 79.536V80H40.904V74.096H36.456V75.536H39.32V75.728C39.32 77.744 38.184 78.832 36.6 78.832C34.536 78.832 33.416 76.912 33.416 74.448C33.416 71.664 34.648 69.968 36.632 69.968C37.944 69.968 38.888 70.816 39.096 72.128H40.872C40.632 70 39.032 68.528 36.648 68.528C33.72 68.528 31.656 70.768 31.656 74.448C31.656 77.824 33.464 80.256 36.376 80.256ZM44.1988 69.056V70.928H46.0388V69.056H44.1988ZM45.9908 72.256H42.9188V73.536H44.4067V78.704H42.5987V80H47.5428V78.704H45.9908V72.256ZM53.7659 80.128C54.1979 80.128 54.6299 80.064 54.9339 79.984V78.672C54.6459 78.72 54.3899 78.736 54.1179 78.736C52.8539 78.736 52.3099 78.272 52.3099 77.056V73.536H54.8539V72.256H52.3099V69.6H50.7259V72.256H48.5019V73.536H50.7259V77.248C50.7259 79.312 51.9259 80.128 53.7659 80.128ZM58.3676 83.328V79.616C58.3676 79.392 58.3676 79.184 58.3516 78.928C58.8476 79.712 59.6636 80.256 60.8476 80.256C62.9276 80.256 64.3996 78.608 64.3996 76.128C64.3996 73.728 63.0556 72 60.8956 72C59.7116 72 58.8156 72.592 58.3516 73.328C58.3676 73.104 58.3676 72.928 58.3676 72.736V72.256H56.7836V83.328H58.3676ZM60.5436 79.008C59.2156 79.008 58.2876 77.84 58.2876 76.128C58.2876 74.368 59.2316 73.264 60.5436 73.264C61.9036 73.264 62.7516 74.432 62.7516 76.128C62.7516 77.824 61.8716 79.008 60.5436 79.008ZM69.5644 80.256C71.8204 80.256 73.4364 78.64 73.4364 76.128C73.4364 73.664 71.8204 72 69.5644 72C67.2924 72 65.6924 73.664 65.6924 76.128C65.6924 78.64 67.2924 80.256 69.5644 80.256ZM69.5644 79.008C68.1884 79.008 67.3244 77.888 67.3244 76.128C67.3244 74.368 68.2204 73.264 69.5644 73.264C70.9084 73.264 71.8044 74.368 71.8044 76.128C71.8044 77.888 70.9404 79.008 69.5644 79.008ZM78.3169 80.256C79.5649 80.256 80.4129 79.6 80.7969 78.928C80.7649 79.136 80.7649 79.36 80.7649 79.6V80H82.3649V68.8H80.7649V72.64C80.7649 72.864 80.7649 73.088 80.7969 73.328C80.4129 72.672 79.5969 72 78.3329 72C76.2849 72 74.7489 73.632 74.7489 76.144C74.7489 78.816 76.2689 80.256 78.3169 80.256ZM78.6369 79.008C77.3089 79.008 76.3809 77.872 76.3809 76.128C76.3809 74.416 77.3249 73.264 78.6369 73.264C79.9489 73.264 80.8769 74.368 80.8769 76.128C80.8769 77.872 79.9329 79.008 78.6369 79.008Z" fill="#FF8A00"/>
   <path d="M86.0733 80L90.4093 68.8H88.9053L84.5693 80H86.0733ZM96.0055 80L97.5415 73.264C97.6375 72.848 97.7175 72.384 97.8295 71.872C97.9095 72.384 98.0215 72.848 98.1015 73.264L99.5735 80H101.622L103.83 68.8H102.198L100.806 76.688C100.726 77.184 100.646 77.664 100.55 78.192C100.47 77.68 100.358 77.184 100.246 76.688L98.8215 70.08H96.8695L95.3975 76.688C95.3015 77.168 95.1895 77.664 95.0935 78.176C95.0135 77.648 94.9335 77.184 94.8535 76.688L93.4615 68.8H91.7655L93.9575 80H96.0055ZM108.441 80.256C110.697 80.256 112.314 78.64 112.314 76.128C112.314 73.664 110.697 72 108.441 72C106.169 72 104.569 73.664 104.569 76.128C104.569 78.64 106.169 80.256 108.441 80.256ZM108.441 79.008C107.065 79.008 106.201 77.888 106.201 76.128C106.201 74.368 107.097 73.264 108.441 73.264C109.786 73.264 110.681 74.368 110.681 76.128C110.681 77.888 109.817 79.008 108.441 79.008ZM116.298 80V76.176C116.298 74.4 117.306 73.552 119.034 73.552C119.338 73.552 119.578 73.584 119.77 73.6V72.064C119.562 72.032 119.37 72.016 119.146 72.016C117.578 72.016 116.698 72.848 116.282 73.76C116.298 73.456 116.298 73.056 116.298 72.736V72.256H114.698V80H116.298ZM125.283 75.552L128.595 72.256H126.563L124.083 74.816C123.891 75.008 123.683 75.248 123.491 75.456V68.8H121.907V80H123.491V77.328L124.211 76.624L126.851 80H128.963L125.283 75.552ZM133.458 80.256C135.442 80.256 136.674 79.152 136.674 77.744C136.674 76.432 135.698 75.728 134.258 75.456L133.154 75.248C132.242 75.072 131.842 74.8 131.842 74.224C131.842 73.616 132.418 73.216 133.282 73.216C134.258 73.216 134.882 73.696 134.962 74.56H136.546C136.466 72.976 135.282 72 133.33 72C131.522 72 130.258 72.976 130.258 74.304C130.258 75.536 131.186 76.288 132.69 76.576L133.778 76.784C134.674 76.96 135.09 77.296 135.09 77.872C135.09 78.592 134.434 79.04 133.442 79.04C132.29 79.04 131.634 78.4 131.586 77.408H130.002C130.066 79.12 131.33 80.256 133.458 80.256ZM140.369 83.328V79.616C140.369 79.392 140.369 79.184 140.353 78.928C140.849 79.712 141.665 80.256 142.849 80.256C144.929 80.256 146.401 78.608 146.401 76.128C146.401 73.728 145.057 72 142.897 72C141.713 72 140.817 72.592 140.353 73.328C140.369 73.104 140.369 72.928 140.369 72.736V72.256H138.785V83.328H140.369ZM142.545 79.008C141.217 79.008 140.289 77.84 140.289 76.128C140.289 74.368 141.233 73.264 142.545 73.264C143.905 73.264 144.753 74.432 144.753 76.128C144.753 77.824 143.873 79.008 142.545 79.008ZM150.621 80.256C151.869 80.256 152.749 79.728 153.133 78.944C153.117 79.184 153.101 79.408 153.101 79.632V80H154.605V75.088C154.605 73.168 153.597 72 151.437 72C149.453 72 148.221 73.216 148.141 74.704H149.757C149.805 73.808 150.413 73.216 151.533 73.216C152.461 73.216 153.037 73.696 153.037 74.432C153.037 74.864 152.829 75.104 152.221 75.2L150.701 75.408C149.181 75.632 147.933 76.272 147.933 77.872C147.933 79.36 149.149 80.256 150.621 80.256ZM150.941 79.04C150.173 79.04 149.565 78.608 149.565 77.856C149.565 77.056 150.237 76.704 151.181 76.528L152.157 76.352C152.637 76.256 152.941 76.16 153.053 76.016V77.04C153.053 78.24 152.141 79.04 150.941 79.04ZM160.471 80.256C162.663 80.256 163.911 79.056 164.103 77.264H162.503C162.375 78.304 161.687 79.008 160.535 79.008C159.159 79.008 158.231 77.856 158.231 76.128C158.231 74.416 159.191 73.264 160.535 73.264C161.671 73.264 162.311 74.016 162.407 74.976H164.039C163.863 73.2 162.551 72 160.551 72C158.327 72 156.599 73.616 156.599 76.112C156.599 78.8 158.247 80.256 160.471 80.256ZM169.404 80.256C171.564 80.256 172.748 79.008 172.908 77.552H171.308C171.148 78.608 170.332 79.008 169.42 79.008C168.14 79.008 167.212 78.032 167.18 76.464H172.972V76.128C172.972 73.632 171.66 72 169.324 72C167.164 72 165.564 73.696 165.564 76.096C165.564 78.784 167.084 80.256 169.404 80.256ZM167.212 75.328C167.308 74.128 168.124 73.216 169.324 73.216C170.556 73.216 171.292 74.064 171.308 75.328H167.212Z" fill="#FFE4BC"/>
   <path d="M185.512 76.288C185.56 75.84 185.864 75.552 186.312 75.552C186.664 75.552 187.08 75.696 187.544 75.856C188.088 76.048 188.68 76.24 189.304 76.24C190.504 76.24 191.416 75.52 191.464 74.128H190.024C189.944 74.608 189.656 74.864 189.176 74.864C188.824 74.864 188.392 74.72 187.912 74.544C187.416 74.352 186.824 74.144 186.248 74.144C185.192 74.144 184.104 74.736 184.072 76.288H185.512ZM201.412 76.848C201.412 75.072 200.052 74.16 198.34 73.744L197.956 73.664V69.968C198.916 70.224 199.492 70.992 199.54 72.032H201.188C201.076 70.144 199.892 68.848 197.956 68.576V67.008H196.66V68.56C194.66 68.736 193.22 70 193.22 71.712C193.22 73.424 194.58 74.432 196.26 74.832L196.66 74.928V78.88C195.38 78.64 194.564 77.68 194.516 76.304H192.884C192.98 78.512 194.372 80 196.66 80.224V81.776H197.956V80.224C200.068 79.984 201.412 78.576 201.412 76.848ZM194.836 71.648C194.836 70.64 195.556 70.032 196.66 69.888V73.36C195.46 73.056 194.836 72.496 194.836 71.648ZM197.956 75.216C199.092 75.52 199.78 76.032 199.78 76.976C199.78 77.968 199.06 78.672 197.956 78.864V75.216ZM212.735 80.256C214.719 80.256 215.951 79.152 215.951 77.744C215.951 76.432 214.975 75.728 213.535 75.456L212.431 75.248C211.519 75.072 211.119 74.8 211.119 74.224C211.119 73.616 211.695 73.216 212.559 73.216C213.535 73.216 214.159 73.696 214.239 74.56H215.823C215.743 72.976 214.559 72 212.607 72C210.799 72 209.535 72.976 209.535 74.304C209.535 75.536 210.463 76.288 211.967 76.576L213.055 76.784C213.951 76.96 214.367 77.296 214.367 77.872C214.367 78.592 213.711 79.04 212.719 79.04C211.567 79.04 210.911 78.4 210.863 77.408H209.279C209.343 79.12 210.607 80.256 212.735 80.256ZM220.861 80.256C222.03 80.256 222.878 79.728 223.261 78.928C223.246 79.136 223.23 79.376 223.23 79.584V80H224.798V72.256H223.214V76.608C223.214 78.096 222.51 78.992 221.31 78.992C220.109 78.992 219.629 78.192 219.629 76.848V72.256H218.029V77.152C218.029 79.152 219.101 80.256 220.861 80.256ZM230.161 80.256C231.409 80.256 232.257 79.6 232.641 78.928C232.609 79.136 232.609 79.36 232.609 79.6V80H234.209V68.8H232.609V72.64C232.609 72.864 232.609 73.088 232.641 73.328C232.257 72.672 231.441 72 230.177 72C228.129 72 226.593 73.632 226.593 76.144C226.593 78.816 228.113 80.256 230.161 80.256ZM230.481 79.008C229.153 79.008 228.225 77.872 228.225 76.128C228.225 74.416 229.169 73.264 230.481 73.264C231.793 73.264 232.721 74.368 232.721 76.128C232.721 77.872 231.777 79.008 230.481 79.008ZM239.917 80.256C242.173 80.256 243.789 78.64 243.789 76.128C243.789 73.664 242.173 72 239.917 72C237.645 72 236.045 73.664 236.045 76.128C236.045 78.64 237.645 80.256 239.917 80.256ZM239.917 79.008C238.541 79.008 237.677 77.888 237.677 76.128C237.677 74.368 238.573 73.264 239.917 73.264C241.261 73.264 242.157 74.368 242.157 76.128C242.157 77.888 241.293 79.008 239.917 79.008ZM254.607 80.256C255.855 80.256 256.735 79.728 257.119 78.944C257.103 79.184 257.087 79.408 257.087 79.632V80H258.591V75.088C258.591 73.168 257.583 72 255.423 72C253.439 72 252.207 73.216 252.127 74.704H253.743C253.791 73.808 254.399 73.216 255.519 73.216C256.447 73.216 257.023 73.696 257.023 74.432C257.023 74.864 256.815 75.104 256.207 75.2L254.687 75.408C253.167 75.632 251.919 76.272 251.919 77.872C251.919 79.36 253.135 80.256 254.607 80.256ZM254.927 79.04C254.159 79.04 253.551 78.608 253.551 77.856C253.551 77.056 254.223 76.704 255.167 76.528L256.143 76.352C256.623 76.256 256.927 76.16 257.039 76.016V77.04C257.039 78.24 256.127 79.04 254.927 79.04ZM262.457 83.328V79.616C262.457 79.392 262.457 79.184 262.441 78.928C262.937 79.712 263.753 80.256 264.937 80.256C267.017 80.256 268.489 78.608 268.489 76.128C268.489 73.728 267.145 72 264.985 72C263.801 72 262.905 72.592 262.441 73.328C262.457 73.104 262.457 72.928 262.457 72.736V72.256H260.873V83.328H262.457ZM264.633 79.008C263.305 79.008 262.377 77.84 262.377 76.128C262.377 74.368 263.321 73.264 264.633 73.264C265.993 73.264 266.841 74.432 266.841 76.128C266.841 77.824 265.961 79.008 264.633 79.008ZM274.567 80.128C274.999 80.128 275.431 80.064 275.735 79.984V78.672C275.447 78.72 275.191 78.736 274.919 78.736C273.655 78.736 273.111 78.272 273.111 77.056V73.536H275.655V72.256H273.111V69.6H271.527V72.256H269.303V73.536H271.527V77.248C271.527 79.312 272.727 80.128 274.567 80.128ZM282.355 76.592V75.12H278.035V76.592H282.355ZM288.567 83.6C290.967 83.6 292.343 82.32 292.343 79.664V72.256H290.759V72.64C290.759 72.88 290.759 73.104 290.775 73.328C290.359 72.608 289.591 72 288.279 72C286.375 72 284.775 73.52 284.775 75.92C284.775 78.336 286.199 79.84 288.295 79.84C289.447 79.84 290.359 79.312 290.775 78.56C290.759 78.784 290.759 78.992 290.759 79.248V80.144C290.759 81.664 289.879 82.352 288.599 82.352C287.415 82.352 286.727 81.696 286.711 80.672H285.111C285.111 82.432 286.439 83.6 288.567 83.6ZM288.647 78.592C287.335 78.592 286.423 77.52 286.423 75.92C286.423 74.352 287.335 73.264 288.647 73.264C289.943 73.264 290.855 74.384 290.855 75.92C290.855 77.52 289.943 78.592 288.647 78.592ZM298.036 80.256C300.196 80.256 301.38 79.008 301.54 77.552H299.94C299.78 78.608 298.964 79.008 298.052 79.008C296.772 79.008 295.844 78.032 295.812 76.464H301.604V76.128C301.604 73.632 300.292 72 297.956 72C295.796 72 294.196 73.696 294.196 76.096C294.196 78.784 295.716 80.256 298.036 80.256ZM295.844 75.328C295.94 74.128 296.756 73.216 297.956 73.216C299.188 73.216 299.924 74.064 299.94 75.328H295.844ZM307.882 80.128C308.314 80.128 308.746 80.064 309.05 79.984V78.672C308.762 78.72 308.506 78.736 308.234 78.736C306.97 78.736 306.426 78.272 306.426 77.056V73.536H308.97V72.256H306.426V69.6H304.842V72.256H302.618V73.536H304.842V77.248C304.842 79.312 306.042 80.128 307.882 80.128ZM318.789 69.056V70.928H320.629V69.056H318.789ZM320.581 72.256H317.509V73.536H318.997V78.704H317.189V80H322.133V78.704H320.581V72.256ZM325.588 80V75.408C325.588 74.24 326.356 73.264 327.588 73.264C328.74 73.264 329.252 74.016 329.252 75.36V80H330.836V75.152C330.836 73.184 329.78 72 327.988 72C326.836 72 325.972 72.608 325.556 73.328C325.572 73.104 325.588 72.912 325.588 72.72V72.256H323.988V80H325.588ZM336.278 80.256C338.262 80.256 339.494 79.152 339.494 77.744C339.494 76.432 338.518 75.728 337.078 75.456L335.974 75.248C335.062 75.072 334.662 74.8 334.662 74.224C334.662 73.616 335.238 73.216 336.102 73.216C337.078 73.216 337.702 73.696 337.782 74.56H339.366C339.286 72.976 338.102 72 336.15 72C334.342 72 333.078 72.976 333.078 74.304C333.078 75.536 334.006 76.288 335.51 76.576L336.598 76.784C337.494 76.96 337.91 77.296 337.91 77.872C337.91 78.592 337.254 79.04 336.262 79.04C335.11 79.04 334.454 78.4 334.406 77.408H332.822C332.886 79.12 334.15 80.256 336.278 80.256ZM345.974 80.128C346.406 80.128 346.838 80.064 347.142 79.984V78.672C346.854 78.72 346.598 78.736 346.326 78.736C345.062 78.736 344.518 78.272 344.518 77.056V73.536H347.062V72.256H344.518V69.6H342.934V72.256H340.71V73.536H342.934V77.248C342.934 79.312 344.134 80.128 345.974 80.128ZM351.504 80.256C352.752 80.256 353.632 79.728 354.016 78.944C354 79.184 353.984 79.408 353.984 79.632V80H355.488V75.088C355.488 73.168 354.48 72 352.32 72C350.336 72 349.104 73.216 349.024 74.704H350.64C350.688 73.808 351.296 73.216 352.416 73.216C353.344 73.216 353.92 73.696 353.92 74.432C353.92 74.864 353.712 75.104 353.104 75.2L351.584 75.408C350.064 75.632 348.816 76.272 348.816 77.872C348.816 79.36 350.032 80.256 351.504 80.256ZM351.824 79.04C351.056 79.04 350.448 78.608 350.448 77.856C350.448 77.056 351.12 76.704 352.064 76.528L353.04 76.352C353.52 76.256 353.824 76.16 353.936 76.016V77.04C353.936 78.24 353.024 79.04 351.824 79.04ZM361.002 68.8H357.882V70.096H359.418V78.704H357.562V80H362.586V78.704H361.002V68.8ZM367.561 68.8H364.441V70.096H365.977V78.704H364.121V80H369.145V78.704H367.561V68.8ZM378.937 83.328V79.616C378.937 79.392 378.937 79.184 378.921 78.928C379.417 79.712 380.233 80.256 381.417 80.256C383.497 80.256 384.969 78.608 384.969 76.128C384.969 73.728 383.625 72 381.465 72C380.281 72 379.385 72.592 378.921 73.328C378.937 73.104 378.937 72.928 378.937 72.736V72.256H377.353V83.328H378.937ZM381.113 79.008C379.785 79.008 378.857 77.84 378.857 76.128C378.857 74.368 379.801 73.264 381.113 73.264C382.473 73.264 383.321 74.432 383.321 76.128C383.321 77.824 382.441 79.008 381.113 79.008ZM388.102 69.056V70.928H389.942V69.056H388.102ZM389.894 72.256H386.822V73.536H388.31V78.704H386.502V80H391.446V78.704H389.894V72.256ZM394.901 80V75.408C394.901 74.24 395.669 73.264 396.901 73.264C398.053 73.264 398.565 74.016 398.565 75.36V80H400.149V75.152C400.149 73.184 399.093 72 397.301 72C396.149 72 395.285 72.608 394.869 73.328C394.885 73.104 394.901 72.912 394.901 72.72V72.256H393.301V80H394.901ZM406.744 80.128C407.176 80.128 407.608 80.064 407.912 79.984V78.672C407.624 78.72 407.368 78.736 407.096 78.736C405.832 78.736 405.288 78.272 405.288 77.056V73.536H407.832V72.256H405.288V69.6H403.704V72.256H401.48V73.536H403.704V77.248C403.704 79.312 404.904 80.128 406.744 80.128ZM412.274 80.256C413.522 80.256 414.402 79.728 414.786 78.944C414.77 79.184 414.754 79.408 414.754 79.632V80H416.258V75.088C416.258 73.168 415.25 72 413.09 72C411.106 72 409.874 73.216 409.794 74.704H411.41C411.458 73.808 412.066 73.216 413.186 73.216C414.114 73.216 414.69 73.696 414.69 74.432C414.69 74.864 414.482 75.104 413.874 75.2L412.354 75.408C410.834 75.632 409.586 76.272 409.586 77.872C409.586 79.36 410.802 80.256 412.274 80.256ZM412.594 79.04C411.826 79.04 411.218 78.608 411.218 77.856C411.218 77.056 411.89 76.704 412.834 76.528L413.81 76.352C414.29 76.256 414.594 76.16 414.706 76.016V77.04C414.706 78.24 413.794 79.04 412.594 79.04Z" fill="#F9F9F9"/>
   <path d="M34.344 105V101.176C34.344 99.4 35.352 98.552 37.08 98.552C37.384 98.552 37.624 98.584 37.816 98.6V97.064C37.608 97.032 37.416 97.016 37.192 97.016C35.624 97.016 34.744 97.848 34.328 98.76C34.344 98.456 34.344 98.056 34.344 97.736V97.256H32.744V105H34.344ZM43.1233 105.256C45.2833 105.256 46.4672 104.008 46.6273 102.552H45.0273C44.8673 103.608 44.0512 104.008 43.1393 104.008C41.8593 104.008 40.9313 103.032 40.8993 101.464H46.6913V101.128C46.6913 98.632 45.3793 97 43.0433 97C40.8832 97 39.2832 98.696 39.2832 101.096C39.2832 103.784 40.8033 105.256 43.1233 105.256ZM40.9313 100.328C41.0273 99.128 41.8433 98.216 43.0433 98.216C44.2753 98.216 45.0113 99.064 45.0273 100.328H40.9313ZM51.1115 105.256C52.3595 105.256 53.2395 104.728 53.6235 103.944C53.6075 104.184 53.5915 104.408 53.5915 104.632V105H55.0955V100.088C55.0955 98.168 54.0875 97 51.9275 97C49.9435 97 48.7115 98.216 48.6315 99.704H50.2475C50.2955 98.808 50.9035 98.216 52.0235 98.216C52.9515 98.216 53.5275 98.696 53.5275 99.432C53.5275 99.864 53.3195 100.104 52.7115 100.2L51.1915 100.408C49.6715 100.632 48.4235 101.272 48.4235 102.872C48.4235 104.36 49.6395 105.256 51.1115 105.256ZM51.4315 104.04C50.6635 104.04 50.0555 103.608 50.0555 102.856C50.0555 102.056 50.7275 101.704 51.6715 101.528L52.6475 101.352C53.1275 101.256 53.4315 101.16 53.5435 101.016V102.04C53.5435 103.24 52.6315 104.04 51.4315 104.04ZM60.4174 105.256C61.6654 105.256 62.5134 104.6 62.8974 103.928C62.8654 104.136 62.8654 104.36 62.8654 104.6V105H64.4654V93.8H62.8654V97.64C62.8654 97.864 62.8654 98.088 62.8974 98.328C62.5134 97.672 61.6974 97 60.4334 97C58.3854 97 56.8494 98.632 56.8494 101.144C56.8494 103.816 58.3694 105.256 60.4174 105.256ZM60.7374 104.008C59.4094 104.008 58.4814 102.872 58.4814 101.128C58.4814 99.416 59.4254 98.264 60.7374 98.264C62.0494 98.264 62.9774 99.368 62.9774 101.128C62.9774 102.872 62.0334 104.008 60.7374 104.008ZM68.1417 94.056V95.928H69.9818V94.056H68.1417ZM69.9338 97.256H66.8617V98.536H68.3497V103.704H66.5417V105H71.4858V103.704H69.9338V97.256ZM74.9409 105V100.408C74.9409 99.24 75.7089 98.264 76.9409 98.264C78.0929 98.264 78.6049 99.016 78.6049 100.36V105H80.1889V100.152C80.1889 98.184 79.1329 97 77.3409 97C76.1889 97 75.3249 97.608 74.9089 98.328C74.9249 98.104 74.9409 97.912 74.9409 97.72V97.256H73.3409V105H74.9409ZM85.7749 108.6C88.1749 108.6 89.5509 107.32 89.5509 104.664V97.256H87.9669V97.64C87.9669 97.88 87.9669 98.104 87.9829 98.328C87.5669 97.608 86.7989 97 85.4869 97C83.5829 97 81.9829 98.52 81.9829 100.92C81.9829 103.336 83.4069 104.84 85.5029 104.84C86.6549 104.84 87.5669 104.312 87.9829 103.56C87.9669 103.784 87.9669 103.992 87.9669 104.248V105.144C87.9669 106.664 87.0869 107.352 85.8069 107.352C84.6229 107.352 83.9349 106.696 83.9189 105.672H82.3189C82.3189 107.432 83.6469 108.6 85.7749 108.6ZM85.8549 103.592C84.5429 103.592 83.6309 102.52 83.6309 100.92C83.6309 99.352 84.5429 98.264 85.8549 98.264C87.1509 98.264 88.0629 99.384 88.0629 100.92C88.0629 102.52 87.1509 103.592 85.8549 103.592ZM99.757 108.328V104.616C99.757 104.392 99.757 104.184 99.741 103.928C100.237 104.712 101.053 105.256 102.237 105.256C104.317 105.256 105.789 103.608 105.789 101.128C105.789 98.728 104.445 97 102.285 97C101.101 97 100.205 97.592 99.741 98.328C99.757 98.104 99.757 97.928 99.757 97.736V97.256H98.173V108.328H99.757ZM101.933 104.008C100.605 104.008 99.677 102.84 99.677 101.128C99.677 99.368 100.621 98.264 101.933 98.264C103.293 98.264 104.141 99.432 104.141 101.128C104.141 102.824 103.261 104.008 101.933 104.008ZM110.01 105.256C111.258 105.256 112.138 104.728 112.522 103.944C112.506 104.184 112.49 104.408 112.49 104.632V105H113.994V100.088C113.994 98.168 112.986 97 110.826 97C108.842 97 107.61 98.216 107.53 99.704H109.146C109.194 98.808 109.802 98.216 110.922 98.216C111.85 98.216 112.426 98.696 112.426 99.432C112.426 99.864 112.218 100.104 111.61 100.2L110.09 100.408C108.57 100.632 107.322 101.272 107.322 102.872C107.322 104.36 108.538 105.256 110.01 105.256ZM110.33 104.04C109.562 104.04 108.954 103.608 108.954 102.856C108.954 102.056 109.626 101.704 110.57 101.528L111.546 101.352C112.026 101.256 112.33 101.16 112.442 101.016V102.04C112.442 103.24 111.53 104.04 110.33 104.04ZM119.86 105.256C122.052 105.256 123.3 104.056 123.492 102.264H121.892C121.764 103.304 121.076 104.008 119.924 104.008C118.548 104.008 117.62 102.856 117.62 101.128C117.62 99.416 118.58 98.264 119.924 98.264C121.06 98.264 121.7 99.016 121.796 99.976H123.428C123.252 98.2 121.94 97 119.94 97C117.716 97 115.988 98.616 115.988 101.112C115.988 103.8 117.636 105.256 119.86 105.256ZM128.921 100.552L132.233 97.256H130.201L127.721 99.816C127.529 100.008 127.321 100.248 127.129 100.456V93.8H125.545V105H127.129V102.328L127.849 101.624L130.489 105H132.601L128.921 100.552ZM136.375 105.256C137.623 105.256 138.503 104.728 138.887 103.944C138.871 104.184 138.855 104.408 138.855 104.632V105H140.359V100.088C140.359 98.168 139.351 97 137.191 97C135.207 97 133.975 98.216 133.895 99.704H135.511C135.559 98.808 136.167 98.216 137.287 98.216C138.215 98.216 138.791 98.696 138.791 99.432C138.791 99.864 138.583 100.104 137.975 100.2L136.455 100.408C134.935 100.632 133.687 101.272 133.687 102.872C133.687 104.36 134.903 105.256 136.375 105.256ZM136.695 104.04C135.927 104.04 135.319 103.608 135.319 102.856C135.319 102.056 135.991 101.704 136.935 101.528L137.911 101.352C138.391 101.256 138.695 101.16 138.807 101.016V102.04C138.807 103.24 137.895 104.04 136.695 104.04ZM146.032 108.6C148.432 108.6 149.808 107.32 149.808 104.664V97.256H148.224V97.64C148.224 97.88 148.224 98.104 148.24 98.328C147.824 97.608 147.056 97 145.744 97C143.84 97 142.24 98.52 142.24 100.92C142.24 103.336 143.664 104.84 145.76 104.84C146.912 104.84 147.824 104.312 148.24 103.56C148.224 103.784 148.224 103.992 148.224 104.248V105.144C148.224 106.664 147.344 107.352 146.064 107.352C144.88 107.352 144.192 106.696 144.176 105.672H142.576C142.576 107.432 143.904 108.6 146.032 108.6ZM146.112 103.592C144.8 103.592 143.888 102.52 143.888 100.92C143.888 99.352 144.8 98.264 146.112 98.264C147.408 98.264 148.32 99.384 148.32 100.92C148.32 102.52 147.408 103.592 146.112 103.592ZM155.501 105.256C157.661 105.256 158.845 104.008 159.005 102.552H157.405C157.245 103.608 156.429 104.008 155.517 104.008C154.237 104.008 153.309 103.032 153.277 101.464H159.069V101.128C159.069 98.632 157.757 97 155.421 97C153.261 97 151.661 98.696 151.661 101.096C151.661 103.784 153.181 105.256 155.501 105.256ZM153.309 100.328C153.405 99.128 154.221 98.216 155.421 98.216C156.653 98.216 157.389 99.064 157.405 100.328H153.309ZM170.675 93.8H167.555V95.096H169.091V103.704H167.235V105H172.259V103.704H170.675V93.8ZM175.426 94.056V95.928H177.266V94.056H175.426ZM177.218 97.256H174.146V98.536H175.634V103.704H173.826V105H178.77V103.704H177.218V97.256ZM183.809 105.256C185.793 105.256 187.025 104.152 187.025 102.744C187.025 101.432 186.049 100.728 184.609 100.456L183.505 100.248C182.593 100.072 182.193 99.8 182.193 99.224C182.193 98.616 182.769 98.216 183.633 98.216C184.609 98.216 185.233 98.696 185.313 99.56H186.897C186.817 97.976 185.633 97 183.681 97C181.873 97 180.609 97.976 180.609 99.304C180.609 100.536 181.537 101.288 183.041 101.576L184.129 101.784C185.025 101.96 185.441 102.296 185.441 102.872C185.441 103.592 184.785 104.04 183.793 104.04C182.641 104.04 181.985 103.4 181.937 102.408H180.353C180.417 104.12 181.681 105.256 183.809 105.256ZM193.505 105.128C193.937 105.128 194.369 105.064 194.673 104.984V103.672C194.385 103.72 194.129 103.736 193.857 103.736C192.593 103.736 192.049 103.272 192.049 102.056V98.536H194.593V97.256H192.049V94.6H190.465V97.256H188.241V98.536H190.465V102.248C190.465 104.312 191.665 105.128 193.505 105.128ZM199.771 105.256C201.755 105.256 202.987 104.152 202.987 102.744C202.987 101.432 202.011 100.728 200.571 100.456L199.467 100.248C198.555 100.072 198.155 99.8 198.155 99.224C198.155 98.616 198.731 98.216 199.595 98.216C200.571 98.216 201.195 98.696 201.275 99.56H202.859C202.779 97.976 201.595 97 199.643 97C197.835 97 196.571 97.976 196.571 99.304C196.571 100.536 197.499 101.288 199.003 101.576L200.091 101.784C200.987 101.96 201.403 102.296 201.403 102.872C201.403 103.592 200.747 104.04 199.755 104.04C198.603 104.04 197.947 103.4 197.899 102.408H196.315C196.379 104.12 197.643 105.256 199.771 105.256ZM208.378 105V102.84H206.218V105H208.378ZM215.015 105V102.84H212.855V105H215.015ZM221.652 105V102.84H219.492V105H221.652ZM234.312 105.256C235.56 105.256 236.408 104.6 236.792 103.928C236.76 104.136 236.76 104.36 236.76 104.6V105H238.36V93.8H236.76V97.64C236.76 97.864 236.76 98.088 236.792 98.328C236.408 97.672 235.592 97 234.328 97C232.28 97 230.744 98.632 230.744 101.144C230.744 103.816 232.264 105.256 234.312 105.256ZM234.632 104.008C233.304 104.008 232.376 102.872 232.376 101.128C232.376 99.416 233.32 98.264 234.632 98.264C235.944 98.264 236.872 99.368 236.872 101.128C236.872 102.872 235.928 104.008 234.632 104.008ZM244.068 105.256C246.324 105.256 247.94 103.64 247.94 101.128C247.94 98.664 246.324 97 244.068 97C241.796 97 240.196 98.664 240.196 101.128C240.196 103.64 241.796 105.256 244.068 105.256ZM244.068 104.008C242.692 104.008 241.828 102.888 241.828 101.128C241.828 99.368 242.724 98.264 244.068 98.264C245.412 98.264 246.308 99.368 246.308 101.128C246.308 102.888 245.444 104.008 244.068 104.008ZM251.445 105V100.408C251.445 99.24 252.213 98.264 253.445 98.264C254.597 98.264 255.109 99.016 255.109 100.36V105H256.693V100.152C256.693 98.184 255.637 97 253.845 97C252.693 97 251.829 97.608 251.413 98.328C251.429 98.104 251.445 97.912 251.445 97.72V97.256H249.845V105H251.445ZM262.423 105.256C264.583 105.256 265.767 104.008 265.927 102.552H264.327C264.167 103.608 263.351 104.008 262.439 104.008C261.159 104.008 260.231 103.032 260.199 101.464H265.991V101.128C265.991 98.632 264.679 97 262.343 97C260.183 97 258.583 98.696 258.583 101.096C258.583 103.784 260.103 105.256 262.423 105.256ZM260.231 100.328C260.327 99.128 261.143 98.216 262.343 98.216C263.575 98.216 264.311 99.064 264.327 100.328H260.231Z" fill="#F9F9F9"/>
   <path d="M36.136 130C38.344 130 40.424 129.28 40.424 126.832C40.424 125.408 39.512 124.464 38.152 124.08C39.208 123.76 40.136 122.896 40.136 121.616C40.136 119.648 38.6 118.8 36.472 118.8H32.264V130H36.136ZM33.944 120.224H36.328C37.8 120.224 38.392 120.848 38.392 121.792C38.392 122.832 37.672 123.44 36.248 123.44H33.944V120.224ZM33.944 124.864H36.28C38.056 124.864 38.68 125.568 38.68 126.72C38.68 127.936 37.944 128.56 36.312 128.56H33.944V124.864ZM44.9341 130.256C46.1021 130.256 46.9501 129.728 47.3341 128.928C47.3181 129.136 47.3021 129.376 47.3021 129.584V130H48.8701V122.256H47.2861V126.608C47.2861 128.096 46.5821 128.992 45.3821 128.992C44.1821 128.992 43.7021 128.192 43.7021 126.848V122.256H42.1021V127.152C42.1021 129.152 43.1741 130.256 44.9341 130.256ZM52.6172 119.056V120.928H54.4573V119.056H52.6172ZM54.4093 122.256H51.3372V123.536H52.8252V128.704H51.0172V130H55.9613V128.704H54.4093V122.256ZM60.9844 118.8H57.8644V120.096H59.4004V128.704H57.5444V130H62.5684V128.704H60.9844V118.8ZM67.3515 130.256C68.5995 130.256 69.4475 129.6 69.8315 128.928C69.7995 129.136 69.7995 129.36 69.7995 129.6V130H71.3995V118.8H69.7995V122.64C69.7995 122.864 69.7995 123.088 69.8315 123.328C69.4475 122.672 68.6315 122 67.3675 122C65.3195 122 63.7835 123.632 63.7835 126.144C63.7835 128.816 65.3035 130.256 67.3515 130.256ZM67.6715 129.008C66.3435 129.008 65.4155 127.872 65.4155 126.128C65.4155 124.416 66.3595 123.264 67.6715 123.264C68.9835 123.264 69.9115 124.368 69.9115 126.128C69.9115 127.872 68.9675 129.008 67.6715 129.008ZM75.0759 119.056V120.928H76.9159V119.056H75.0759ZM76.8679 122.256H73.7959V123.536H75.2839V128.704H73.4759V130H78.4199V128.704H76.8679V122.256ZM81.875 130V125.408C81.875 124.24 82.643 123.264 83.875 123.264C85.027 123.264 85.539 124.016 85.539 125.36V130H87.123V125.152C87.123 123.184 86.067 122 84.275 122C83.123 122 82.259 122.608 81.843 123.328C81.859 123.104 81.875 122.912 81.875 122.72V122.256H80.275V130H81.875ZM92.709 133.6C95.109 133.6 96.485 132.32 96.485 129.664V122.256H94.901V122.64C94.901 122.88 94.901 123.104 94.917 123.328C94.501 122.608 93.733 122 92.421 122C90.517 122 88.917 123.52 88.917 125.92C88.917 128.336 90.341 129.84 92.437 129.84C93.589 129.84 94.501 129.312 94.917 128.56C94.901 128.784 94.901 128.992 94.901 129.248V130.144C94.901 131.664 94.021 132.352 92.741 132.352C91.557 132.352 90.869 131.696 90.853 130.672H89.253C89.253 132.432 90.581 133.6 92.709 133.6ZM92.789 128.592C91.477 128.592 90.565 127.52 90.565 125.92C90.565 124.352 91.477 123.264 92.789 123.264C94.085 123.264 94.997 124.384 94.997 125.92C94.997 127.52 94.085 128.592 92.789 128.592ZM108.147 130.256C109.395 130.256 110.243 129.6 110.627 128.928C110.595 129.136 110.595 129.36 110.595 129.6V130H112.195V118.8H110.595V122.64C110.595 122.864 110.595 123.088 110.627 123.328C110.243 122.672 109.427 122 108.163 122C106.115 122 104.579 123.632 104.579 126.144C104.579 128.816 106.099 130.256 108.147 130.256ZM108.467 129.008C107.139 129.008 106.211 127.872 106.211 126.128C106.211 124.416 107.155 123.264 108.467 123.264C109.779 123.264 110.707 124.368 110.707 126.128C110.707 127.872 109.763 129.008 108.467 129.008ZM117.983 130.256C120.143 130.256 121.327 129.008 121.487 127.552H119.887C119.727 128.608 118.911 129.008 117.999 129.008C116.719 129.008 115.791 128.032 115.759 126.464H121.551V126.128C121.551 123.632 120.239 122 117.903 122C115.743 122 114.143 123.696 114.143 126.096C114.143 128.784 115.663 130.256 117.983 130.256ZM115.791 125.328C115.887 124.128 116.703 123.216 117.903 123.216C119.135 123.216 119.871 124.064 119.887 125.328H115.791ZM125.044 133.328V129.616C125.044 129.392 125.044 129.184 125.028 128.928C125.524 129.712 126.34 130.256 127.524 130.256C129.604 130.256 131.076 128.608 131.076 126.128C131.076 123.728 129.732 122 127.572 122C126.388 122 125.492 122.592 125.028 123.328C125.044 123.104 125.044 122.928 125.044 122.736V122.256H123.46V133.328H125.044ZM127.22 129.008C125.892 129.008 124.964 127.84 124.964 126.128C124.964 124.368 125.908 123.264 127.22 123.264C128.58 123.264 129.428 124.432 129.428 126.128C129.428 127.824 128.548 129.008 127.22 129.008ZM136.321 130.256C138.481 130.256 139.665 129.008 139.825 127.552H138.225C138.065 128.608 137.249 129.008 136.337 129.008C135.057 129.008 134.129 128.032 134.097 126.464H139.889V126.128C139.889 123.632 138.577 122 136.241 122C134.081 122 132.481 123.696 132.481 126.096C132.481 128.784 134.001 130.256 136.321 130.256ZM134.129 125.328C134.225 124.128 135.041 123.216 136.241 123.216C137.473 123.216 138.209 124.064 138.225 125.328H134.129ZM143.461 130V125.408C143.461 124.24 144.229 123.264 145.461 123.264C146.613 123.264 147.125 124.016 147.125 125.36V130H148.709V125.152C148.709 123.184 147.653 122 145.861 122C144.709 122 143.845 122.608 143.429 123.328C143.445 123.104 143.461 122.912 143.461 122.72V122.256H141.861V130H143.461ZM153.943 130.256C155.191 130.256 156.039 129.6 156.423 128.928C156.391 129.136 156.391 129.36 156.391 129.6V130H157.991V118.8H156.391V122.64C156.391 122.864 156.391 123.088 156.423 123.328C156.039 122.672 155.223 122 153.959 122C151.911 122 150.375 123.632 150.375 126.144C150.375 128.816 151.895 130.256 153.943 130.256ZM154.263 129.008C152.935 129.008 152.007 127.872 152.007 126.128C152.007 124.416 152.951 123.264 154.263 123.264C155.575 123.264 156.503 124.368 156.503 126.128C156.503 127.872 155.559 129.008 154.263 129.008ZM163.779 130.256C165.939 130.256 167.123 129.008 167.283 127.552H165.683C165.523 128.608 164.707 129.008 163.795 129.008C162.515 129.008 161.587 128.032 161.555 126.464H167.347V126.128C167.347 123.632 166.035 122 163.699 122C161.539 122 159.939 123.696 159.939 126.096C159.939 128.784 161.459 130.256 163.779 130.256ZM161.587 125.328C161.683 124.128 162.499 123.216 163.699 123.216C164.931 123.216 165.667 124.064 165.683 125.328H161.587ZM170.919 130V125.408C170.919 124.24 171.687 123.264 172.919 123.264C174.071 123.264 174.583 124.016 174.583 125.36V130H176.167V125.152C176.167 123.184 175.111 122 173.319 122C172.167 122 171.303 122.608 170.887 123.328C170.903 123.104 170.919 122.912 170.919 122.72V122.256H169.319V130H170.919ZM181.945 130.256C184.137 130.256 185.385 129.056 185.577 127.264H183.977C183.849 128.304 183.161 129.008 182.009 129.008C180.633 129.008 179.705 127.856 179.705 126.128C179.705 124.416 180.665 123.264 182.009 123.264C183.145 123.264 183.785 124.016 183.881 124.976H185.513C185.337 123.2 184.025 122 182.025 122C179.801 122 178.073 123.616 178.073 126.112C178.073 128.8 179.721 130.256 181.945 130.256ZM190.096 133.328L194.224 122.256H192.56L190.912 127.216C190.8 127.52 190.704 127.824 190.608 128.16C190.496 127.824 190.384 127.504 190.272 127.216L188.464 122.256H186.688L189.76 129.808L188.4 133.328H190.096ZM206.502 130.128C206.934 130.128 207.366 130.064 207.67 129.984V128.672C207.382 128.72 207.126 128.736 206.854 128.736C205.59 128.736 205.046 128.272 205.046 127.056V123.536H207.59V122.256H205.046V119.6H203.462V122.256H201.238V123.536H203.462V127.248C203.462 129.312 204.662 130.128 206.502 130.128ZM211.664 130V126.176C211.664 124.4 212.672 123.552 214.4 123.552C214.704 123.552 214.944 123.584 215.136 123.6V122.064C214.928 122.032 214.736 122.016 214.512 122.016C212.944 122.016 212.064 122.848 211.648 123.76C211.664 123.456 211.664 123.056 211.664 122.736V122.256H210.064V130H211.664ZM220.443 130.256C222.603 130.256 223.787 129.008 223.947 127.552H222.347C222.187 128.608 221.371 129.008 220.459 129.008C219.179 129.008 218.251 128.032 218.219 126.464H224.011V126.128C224.011 123.632 222.699 122 220.363 122C218.203 122 216.603 123.696 216.603 126.096C216.603 128.784 218.123 130.256 220.443 130.256ZM218.251 125.328C218.347 124.128 219.163 123.216 220.363 123.216C221.595 123.216 222.331 124.064 222.347 125.328H218.251ZM229.455 130.256C231.615 130.256 232.799 129.008 232.959 127.552H231.359C231.199 128.608 230.383 129.008 229.471 129.008C228.191 129.008 227.263 128.032 227.231 126.464H233.023V126.128C233.023 123.632 231.711 122 229.375 122C227.215 122 225.615 123.696 225.615 126.096C225.615 128.784 227.135 130.256 229.455 130.256ZM227.263 125.328C227.359 124.128 228.175 123.216 229.375 123.216C230.607 123.216 231.343 124.064 231.359 125.328H227.263ZM238.212 130V127.84H236.052V130H238.212ZM244.849 130V127.84H242.689V130H244.849ZM251.486 130V127.84H249.326V130H251.486ZM264.146 130.256C265.394 130.256 266.242 129.6 266.626 128.928C266.594 129.136 266.594 129.36 266.594 129.6V130H268.194V118.8H266.594V122.64C266.594 122.864 266.594 123.088 266.626 123.328C266.242 122.672 265.426 122 264.162 122C262.114 122 260.578 123.632 260.578 126.144C260.578 128.816 262.098 130.256 264.146 130.256ZM264.466 129.008C263.138 129.008 262.21 127.872 262.21 126.128C262.21 124.416 263.154 123.264 264.466 123.264C265.778 123.264 266.706 124.368 266.706 126.128C266.706 127.872 265.762 129.008 264.466 129.008ZM273.902 130.256C276.158 130.256 277.774 128.64 277.774 126.128C277.774 123.664 276.158 122 273.902 122C271.63 122 270.03 123.664 270.03 126.128C270.03 128.64 271.63 130.256 273.902 130.256ZM273.902 129.008C272.526 129.008 271.662 127.888 271.662 126.128C271.662 124.368 272.558 123.264 273.902 123.264C275.246 123.264 276.142 124.368 276.142 126.128C276.142 127.888 275.278 129.008 273.902 129.008ZM281.278 130V125.408C281.278 124.24 282.046 123.264 283.278 123.264C284.43 123.264 284.942 124.016 284.942 125.36V130H286.526V125.152C286.526 123.184 285.47 122 283.678 122C282.526 122 281.662 122.608 281.246 123.328C281.262 123.104 281.278 122.912 281.278 122.72V122.256H279.678V130H281.278ZM292.256 130.256C294.416 130.256 295.6 129.008 295.76 127.552H294.16C294 128.608 293.184 129.008 292.272 129.008C290.992 129.008 290.064 128.032 290.032 126.464H295.824V126.128C295.824 123.632 294.512 122 292.176 122C290.016 122 288.416 123.696 288.416 126.096C288.416 128.784 289.936 130.256 292.256 130.256ZM290.064 125.328C290.16 124.128 290.976 123.216 292.176 123.216C293.408 123.216 294.144 124.064 294.16 125.328H290.064Z" fill="#F9F9F9"/>
   <rect width="488" height="44" fill="#696662"/>
   <circle cx="30" cy="22" r="6" fill="#807C78"/>
   <path d="M36.376 179.256C37.832 179.256 38.952 178.536 39.464 177.48C39.448 177.832 39.432 178.2 39.432 178.536V179H40.904V173.096H36.456V174.536H39.32V174.728C39.32 176.744 38.184 177.832 36.6 177.832C34.536 177.832 33.416 175.912 33.416 173.448C33.416 170.664 34.648 168.968 36.632 168.968C37.944 168.968 38.888 169.816 39.096 171.128H40.872C40.632 169 39.032 167.528 36.648 167.528C33.72 167.528 31.656 169.768 31.656 173.448C31.656 176.824 33.464 179.256 36.376 179.256ZM44.1988 168.056V169.928H46.0388V168.056H44.1988ZM45.9908 171.256H42.9188V172.536H44.4067V177.704H42.5987V179H47.5428V177.704H45.9908V171.256ZM53.7659 179.128C54.1979 179.128 54.6299 179.064 54.9339 178.984V177.672C54.6459 177.72 54.3899 177.736 54.1179 177.736C52.8539 177.736 52.3099 177.272 52.3099 176.056V172.536H54.8539V171.256H52.3099V168.6H50.7259V171.256H48.5019V172.536H50.7259V176.248C50.7259 178.312 51.9259 179.128 53.7659 179.128ZM58.3676 182.328V178.616C58.3676 178.392 58.3676 178.184 58.3516 177.928C58.8476 178.712 59.6636 179.256 60.8476 179.256C62.9276 179.256 64.3996 177.608 64.3996 175.128C64.3996 172.728 63.0556 171 60.8956 171C59.7116 171 58.8156 171.592 58.3516 172.328C58.3676 172.104 58.3676 171.928 58.3676 171.736V171.256H56.7836V182.328H58.3676ZM60.5436 178.008C59.2156 178.008 58.2876 176.84 58.2876 175.128C58.2876 173.368 59.2316 172.264 60.5436 172.264C61.9036 172.264 62.7516 173.432 62.7516 175.128C62.7516 176.824 61.8716 178.008 60.5436 178.008ZM69.5644 179.256C71.8204 179.256 73.4364 177.64 73.4364 175.128C73.4364 172.664 71.8204 171 69.5644 171C67.2924 171 65.6924 172.664 65.6924 175.128C65.6924 177.64 67.2924 179.256 69.5644 179.256ZM69.5644 178.008C68.1884 178.008 67.3244 176.888 67.3244 175.128C67.3244 173.368 68.2204 172.264 69.5644 172.264C70.9084 172.264 71.8044 173.368 71.8044 175.128C71.8044 176.888 70.9404 178.008 69.5644 178.008ZM78.3169 179.256C79.5649 179.256 80.4129 178.6 80.7969 177.928C80.7649 178.136 80.7649 178.36 80.7649 178.6V179H82.3649V167.8H80.7649V171.64C80.7649 171.864 80.7649 172.088 80.7969 172.328C80.4129 171.672 79.5969 171 78.3329 171C76.2849 171 74.7489 172.632 74.7489 175.144C74.7489 177.816 76.2689 179.256 78.3169 179.256ZM78.6369 178.008C77.3089 178.008 76.3809 176.872 76.3809 175.128C76.3809 173.416 77.3249 172.264 78.6369 172.264C79.9489 172.264 80.8769 173.368 80.8769 175.128C80.8769 176.872 79.9329 178.008 78.6369 178.008Z" fill="#FF8A00"/>
   <path d="M86.0733 179L90.4093 167.8H88.9053L84.5693 179H86.0733ZM96.0055 179L97.5415 172.264C97.6375 171.848 97.7175 171.384 97.8295 170.872C97.9095 171.384 98.0215 171.848 98.1015 172.264L99.5735 179H101.622L103.83 167.8H102.198L100.806 175.688C100.726 176.184 100.646 176.664 100.55 177.192C100.47 176.68 100.358 176.184 100.246 175.688L98.8215 169.08H96.8695L95.3975 175.688C95.3015 176.168 95.1895 176.664 95.0935 177.176C95.0135 176.648 94.9335 176.184 94.8535 175.688L93.4615 167.8H91.7655L93.9575 179H96.0055ZM108.441 179.256C110.697 179.256 112.314 177.64 112.314 175.128C112.314 172.664 110.697 171 108.441 171C106.169 171 104.569 172.664 104.569 175.128C104.569 177.64 106.169 179.256 108.441 179.256ZM108.441 178.008C107.065 178.008 106.201 176.888 106.201 175.128C106.201 173.368 107.097 172.264 108.441 172.264C109.786 172.264 110.681 173.368 110.681 175.128C110.681 176.888 109.817 178.008 108.441 178.008ZM116.298 179V175.176C116.298 173.4 117.306 172.552 119.034 172.552C119.338 172.552 119.578 172.584 119.77 172.6V171.064C119.562 171.032 119.37 171.016 119.146 171.016C117.578 171.016 116.698 171.848 116.282 172.76C116.298 172.456 116.298 172.056 116.298 171.736V171.256H114.698V179H116.298ZM125.283 174.552L128.595 171.256H126.563L124.083 173.816C123.891 174.008 123.683 174.248 123.491 174.456V167.8H121.907V179H123.491V176.328L124.211 175.624L126.851 179H128.963L125.283 174.552ZM133.458 179.256C135.442 179.256 136.674 178.152 136.674 176.744C136.674 175.432 135.698 174.728 134.258 174.456L133.154 174.248C132.242 174.072 131.842 173.8 131.842 173.224C131.842 172.616 132.418 172.216 133.282 172.216C134.258 172.216 134.882 172.696 134.962 173.56H136.546C136.466 171.976 135.282 171 133.33 171C131.522 171 130.258 171.976 130.258 173.304C130.258 174.536 131.186 175.288 132.69 175.576L133.778 175.784C134.674 175.96 135.09 176.296 135.09 176.872C135.09 177.592 134.434 178.04 133.442 178.04C132.29 178.04 131.634 177.4 131.586 176.408H130.002C130.066 178.12 131.33 179.256 133.458 179.256ZM140.369 182.328V178.616C140.369 178.392 140.369 178.184 140.353 177.928C140.849 178.712 141.665 179.256 142.849 179.256C144.929 179.256 146.401 177.608 146.401 175.128C146.401 172.728 145.057 171 142.897 171C141.713 171 140.817 171.592 140.353 172.328C140.369 172.104 140.369 171.928 140.369 171.736V171.256H138.785V182.328H140.369ZM142.545 178.008C141.217 178.008 140.289 176.84 140.289 175.128C140.289 173.368 141.233 172.264 142.545 172.264C143.905 172.264 144.753 173.432 144.753 175.128C144.753 176.824 143.873 178.008 142.545 178.008ZM150.621 179.256C151.869 179.256 152.749 178.728 153.133 177.944C153.117 178.184 153.101 178.408 153.101 178.632V179H154.605V174.088C154.605 172.168 153.597 171 151.437 171C149.453 171 148.221 172.216 148.141 173.704H149.757C149.805 172.808 150.413 172.216 151.533 172.216C152.461 172.216 153.037 172.696 153.037 173.432C153.037 173.864 152.829 174.104 152.221 174.2L150.701 174.408C149.181 174.632 147.933 175.272 147.933 176.872C147.933 178.36 149.149 179.256 150.621 179.256ZM150.941 178.04C150.173 178.04 149.565 177.608 149.565 176.856C149.565 176.056 150.237 175.704 151.181 175.528L152.157 175.352C152.637 175.256 152.941 175.16 153.053 175.016V176.04C153.053 177.24 152.141 178.04 150.941 178.04ZM160.471 179.256C162.663 179.256 163.911 178.056 164.103 176.264H162.503C162.375 177.304 161.687 178.008 160.535 178.008C159.159 178.008 158.231 176.856 158.231 175.128C158.231 173.416 159.191 172.264 160.535 172.264C161.671 172.264 162.311 173.016 162.407 173.976H164.039C163.863 172.2 162.551 171 160.551 171C158.327 171 156.599 172.616 156.599 175.112C156.599 177.8 158.247 179.256 160.471 179.256ZM169.404 179.256C171.564 179.256 172.748 178.008 172.908 176.552H171.308C171.148 177.608 170.332 178.008 169.42 178.008C168.14 178.008 167.212 177.032 167.18 175.464H172.972V175.128C172.972 172.632 171.66 171 169.324 171C167.164 171 165.564 172.696 165.564 175.096C165.564 177.784 167.084 179.256 169.404 179.256ZM167.212 174.328C167.308 173.128 168.124 172.216 169.324 172.216C170.556 172.216 171.292 173.064 171.308 174.328H167.212Z" fill="#FFE4BC"/>
   <path d="M185.512 175.288C185.56 174.84 185.864 174.552 186.312 174.552C186.664 174.552 187.08 174.696 187.544 174.856C188.088 175.048 188.68 175.24 189.304 175.24C190.504 175.24 191.416 174.52 191.464 173.128H190.024C189.944 173.608 189.656 173.864 189.176 173.864C188.824 173.864 188.392 173.72 187.912 173.544C187.416 173.352 186.824 173.144 186.248 173.144C185.192 173.144 184.104 173.736 184.072 175.288H185.512ZM201.412 175.848C201.412 174.072 200.052 173.16 198.34 172.744L197.956 172.664V168.968C198.916 169.224 199.492 169.992 199.54 171.032H201.188C201.076 169.144 199.892 167.848 197.956 167.576V166.008H196.66V167.56C194.66 167.736 193.22 169 193.22 170.712C193.22 172.424 194.58 173.432 196.26 173.832L196.66 173.928V177.88C195.38 177.64 194.564 176.68 194.516 175.304H192.884C192.98 177.512 194.372 179 196.66 179.224V180.776H197.956V179.224C200.068 178.984 201.412 177.576 201.412 175.848ZM194.836 170.648C194.836 169.64 195.556 169.032 196.66 168.888V172.36C195.46 172.056 194.836 171.496 194.836 170.648ZM197.956 174.216C199.092 174.52 199.78 175.032 199.78 175.976C199.78 176.968 199.06 177.672 197.956 177.864V174.216Z" fill="#F9F9F9"/>
   <rect x="210" y="165" width="10" height="18" fill="#F9F9F9"/>
   </svg>
