<svg width="362" height="282" fill="none" xmlns="http://www.w3.org/2000/svg"><circle cx="181.289" cy="136.981" r="116.528" fill="url(#paint0_linear)"/><g filter="url(#filter0_d)" stroke="#fff" stroke-width="2"><rect x="284.156" y="5" width="53.409" height="53.409" rx="26.704" transform="rotate(90 284.156 5)" fill="#FFB45B"/><rect x="132.473" y="215.553" width="53.409" height="53.409" rx="26.704" transform="rotate(90 132.473 215.553)" fill="#FF8A00"/><path d="M241.52 53.522L120.66 220.44"/></g><path d="M8.931 249.701h2.108v-4.943h4.835v-1.767H11.04v-3.159h5.347v-1.767H8.93v11.636zm9.28 0h2.107v-4.943h4.835v-1.767h-4.835v-3.159h5.347v-1.767H18.21v11.636zm13.301.159c2.517 0 4.318-1.386 4.324-3.278-.006-1.455-1.08-2.67-2.432-2.898v-.079c1.176-.262 1.994-1.318 2-2.58-.006-1.79-1.653-3.119-3.892-3.119-2.256 0-3.904 1.324-3.898 3.119-.006 1.262.801 2.318 2 2.58v.079a2.93 2.93 0 00-2.432 2.898c-.005 1.892 1.79 3.278 4.33 3.278zm0-1.625c-1.318 0-2.17-.727-2.16-1.801-.01-1.113.904-1.903 2.16-1.903 1.239 0 2.148.795 2.159 1.903-.011 1.074-.858 1.801-2.159 1.801zm0-5.301c-1.08 0-1.852-.699-1.841-1.71-.011-1 .739-1.67 1.841-1.67 1.085 0 1.83.67 1.84 1.67-.01 1.017-.777 1.71-1.84 1.71zm7.704 6.767l.96-2.869h4.375l.966 2.869h2.25l-4.103-11.636h-2.602l-4.096 11.636h2.25zm1.528-4.562l1.574-4.688h.09l1.575 4.688h-3.239zm12.647 4.784c2.807.006 4.483-2.21 4.483-6.029 0-3.795-1.688-5.988-4.483-5.988s-4.477 2.187-4.483 5.988c0 3.813 1.676 6.029 4.483 6.029zm0-1.779c-1.449 0-2.358-1.454-2.352-4.25.005-2.772.909-4.232 2.352-4.232 1.449 0 2.352 1.46 2.358 4.232 0 2.796-.904 4.25-2.358 4.25zm10.576 1.779c2.807.006 4.483-2.21 4.483-6.029 0-3.795-1.688-5.988-4.483-5.988-2.796 0-4.477 2.187-4.483 5.988 0 3.813 1.676 6.029 4.483 6.029zm0-1.779c-1.449 0-2.358-1.454-2.352-4.25.005-2.772.909-4.232 2.352-4.232 1.449 0 2.352 1.46 2.358 4.232 0 2.796-.904 4.25-2.358 4.25z" fill="#FF8A00"/><path d="M302.103 35.925h2.108V30.98h4.835v-1.767h-4.835v-3.159h5.346v-1.767h-7.454v11.637zm9.279 0h2.108V30.98h4.835v-1.767h-4.835v-3.159h5.346v-1.767h-7.454v11.637zm9.279 0h4.71c2.665 0 3.971-1.358 3.971-3.17 0-1.762-1.25-2.796-2.488-2.859v-.113c1.136-.268 2.034-1.063 2.034-2.478 0-1.733-1.25-3.017-3.773-3.017h-4.454v11.637zm2.108-1.762v-3.409h2.323c1.302 0 2.108.796 2.108 1.835 0 .927-.636 1.574-2.164 1.574h-2.267zm0-4.926v-3.21h2.13c1.239 0 1.881.653 1.881 1.551 0 1.023-.83 1.66-1.926 1.66h-2.085zm7.987 4.529h5.552v2.159h2.011v-2.16h1.489v-1.732h-1.489v-7.745h-2.625l-4.938 7.801v1.677zm5.574-1.733h-3.415v-.091l3.324-5.267h.091v5.358zm9.242 4.05c2.461 0 4.176-1.67 4.176-3.982 0-2.239-1.556-3.852-3.67-3.852-.943 0-1.778.375-2.21.886h-.068l.335-3.085h5.005v-1.762h-6.75l-.607 6 1.903.313c.392-.432 1.131-.722 1.829-.716 1.279.005 2.199.949 2.194 2.267.005 1.301-.892 2.227-2.137 2.227-1.051 0-1.897-.665-1.971-1.62h-2.046c.057 1.933 1.745 3.325 4.017 3.325zm6.097-.158h4.711c2.664 0 3.971-1.358 3.971-3.17 0-1.762-1.25-2.796-2.488-2.859v-.113c1.136-.268 2.034-1.063 2.034-2.478 0-1.733-1.25-3.017-3.773-3.017h-4.455v11.637zm2.108-1.762v-3.409h2.324c1.301 0 2.108.796 2.108 1.835 0 .927-.636 1.574-2.165 1.574h-2.267zm0-4.926v-3.21h2.131c1.239 0 1.881.653 1.881 1.551 0 1.023-.83 1.66-1.926 1.66h-2.086z" fill="#FFB45B"/><defs><linearGradient id="paint0_linear" x1="240.173" y1="55.696" x2="132.925" y2="226.07" gradientUnits="userSpaceOnUse"><stop stop-color="#FFB45B"/><stop offset="1" stop-color="#FF8A00"/></linearGradient><filter id="filter0_d" x="70.063" y="0" width="223.092" height="281.962" filterUnits="userSpaceOnUse" color-interpolation-filters="sRGB"><feFlood flood-opacity="0" result="BackgroundImageFix"/><feColorMatrix in="SourceAlpha" values="0 0 0 0 0 0 0 0 0 0 0 0 0 0 0 0 0 0 127 0"/><feOffset dy="4"/><feGaussianBlur stdDeviation="4"/><feColorMatrix values="0 0 0 0 0 0 0 0 0 0 0 0 0 0 0 0 0 0 0.1 0"/><feBlend in2="BackgroundImageFix" result="effect1_dropShadow"/><feBlend in="SourceGraphic" in2="effect1_dropShadow" result="shape"/></filter></defs></svg>