<svg xmlns="http://www.w3.org/2000/svg" width="230" height="40" fill="none"><path fill="#12100C" d="M40.371 20c0 11.046-8.954 20-20 20-6.692 0-12.616-3.286-16.246-8.333h4.857c2.455 0 4.728-.777 6.587-2.097 1.407.98 3.049 1.541 4.802 1.541 5.216 0 9.445-4.974 9.445-11.111 0-6.136-4.229-11.111-9.445-11.111-1.919 0-3.704.673-5.195 1.83a11.335 11.335 0 00-6.194-1.83H3.74C7.327 3.529 13.437 0 20.371 0c11.046 0 20 8.954 20 20z"/><path fill="#12100C" d="M1.94 12.222A19.937 19.937 0 00.37 20c0 2.974.65 5.797 1.814 8.333h6.797a8.018 8.018 0 004.174-1.164c-1.391-1.935-2.23-4.437-2.23-7.169 0-2.549.73-4.897 1.957-6.772a8.02 8.02 0 00-3.9-1.006H1.94zM15.422 15.437C14.709 16.66 14.26 18.2 14.26 20c0 1.95.527 3.596 1.346 4.863a8.018 8.018 0 001.432-4.585 8.02 8.02 0 00-1.616-4.84zM18.053 27.166c.751.401 1.547.612 2.318.612 2.888 0 6.111-2.954 6.111-7.778s-3.223-7.778-6.11-7.778c-.877 0-1.784.272-2.623.786a11.342 11.342 0 012.622 7.27c0 2.588-.863 4.975-2.318 6.888z"/><mask id="a" width="181" height="29" x="49.371" y="7.674" fill="#000" maskUnits="userSpaceOnUse"><path fill="#fff" d="M49.371 7.674h181v29h-181z"/><path d="M50.371 27.328h2.308V10.79H50.37V8.674h7.154c3.385 0 5.949.834 7.692 2.5 1.77 1.641 2.654 4.077 2.654 7.308 0 3.667-.961 6.41-2.884 8.23-1.924 1.821-4.539 2.732-7.847 2.732h-6.769v-2.116zm4.615 0h2.385c2.564 0 4.539-.705 5.923-2.115 1.385-1.436 2.077-3.59 2.077-6.462 0-2.666-.64-4.654-1.923-5.961-1.256-1.334-3.27-2-6.038-2h-2.423v16.538zM79.561 27.328c1.667 0 3.308-.526 4.923-1.577v2.27c-1.666.948-3.41 1.422-5.23 1.422-2.308 0-4.129-.717-5.462-2.153-1.334-1.462-2-3.36-2-5.693 0-2.615.654-4.654 1.961-6.115 1.334-1.461 3.077-2.192 5.231-2.192 1.872 0 3.32.64 4.346 1.923 1.026 1.256 1.539 3.013 1.539 5.269v1.192H74.292c.077 1.77.525 3.154 1.346 4.154.846 1 2.154 1.5 3.923 1.5zm3-7.77c-.128-2.768-1.41-4.153-3.846-4.153-1.282 0-2.282.372-3 1.115-.692.718-1.128 1.731-1.308 3.039h8.154zM94.814 29.444h-2.423l-5-14.039h-1.884V13.29h6.153v2.115h-1.846L93.7 26.444h.115l4.154-11.039h-1.692V13.29h5.385v2.115h-1.539l-5.308 14.039zM104.029 19.02c0-3.102.872-5.602 2.616-7.5 1.743-1.897 4.077-2.846 7-2.846 2.846 0 5.089.91 6.73 2.731 1.667 1.82 2.5 4.27 2.5 7.346 0 3.282-.871 5.885-2.615 7.808-1.744 1.923-4.038 2.884-6.885 2.884-2.82 0-5.089-.935-6.807-2.807-1.693-1.898-2.539-4.436-2.539-7.616zm2.5-.153c0 2.564.616 4.615 1.846 6.153 1.231 1.539 2.924 2.308 5.077 2.308 2.18 0 3.872-.77 5.077-2.308 1.231-1.538 1.846-3.59 1.846-6.153 0-2.436-.589-4.385-1.769-5.847-1.154-1.487-2.859-2.23-5.115-2.23-2.231 0-3.949.718-5.154 2.154-1.205 1.41-1.808 3.384-1.808 5.923zM132.957 34.251v2.116h-6.923V34.25h2.307V15.405h-2.307V13.29h4.461l.154 1.846h.154c1.333-1.23 2.795-1.846 4.385-1.846 1.846 0 3.346.73 4.5 2.192 1.153 1.436 1.73 3.295 1.73 5.577 0 2.487-.679 4.513-2.038 6.077-1.334 1.538-3.051 2.308-5.154 2.308a8.742 8.742 0 01-3.5-.731l-.077.038v5.5h2.308zm-2.308-7.577c.949.436 2.039.654 3.269.654 1.59 0 2.821-.461 3.693-1.384.871-.95 1.307-2.45 1.307-4.5 0-1.924-.397-3.41-1.192-4.462-.769-1.051-1.846-1.577-3.231-1.577-1.359 0-2.641.654-3.846 1.962v9.307zM145.525 17.713c0-1.41.576-2.5 1.73-3.27 1.18-.769 2.705-1.153 4.577-1.153 1.59 0 3.269.282 5.039.846v3.77h-2.308v-2.193a11.712 11.712 0 00-2.923-.346c-1.026 0-1.885.166-2.577.5-.692.333-1.038.846-1.038 1.538 0 .41.076.756.23 1.038.18.257.436.488.77.693.333.18.756.359 1.269.538.513.18 1.102.372 1.769.577.641.205 1.282.423 1.923.654.641.23 1.218.513 1.731.846.513.334.923.757 1.231 1.27.333.487.5 1.102.5 1.846 0 1.435-.603 2.564-1.808 3.384-1.205.795-2.795 1.192-4.769 1.192-1.77 0-3.487-.346-5.154-1.038v-3.577h2.308v2.192c.948.231 1.961.347 3.038.347 1.077 0 1.987-.167 2.731-.5.769-.36 1.154-.91 1.154-1.654 0-.795-.347-1.372-1.039-1.731-.666-.359-1.615-.718-2.846-1.077a34.236 34.236 0 01-1.962-.615 9.408 9.408 0 01-1.769-.846 4.536 4.536 0 01-1.307-1.308c-.334-.513-.5-1.154-.5-1.923zM161.932 27.559c0-.616.166-1.103.5-1.462.359-.359.846-.538 1.461-.538.59 0 1.052.18 1.385.538.359.334.538.795.538 1.385 0 .615-.179 1.103-.538 1.462-.359.333-.846.5-1.462.5-.589 0-1.051-.167-1.384-.5-.334-.36-.5-.821-.5-1.385zM183.348 28.213c-1.615.82-3.359 1.23-5.231 1.23-2.333 0-4.231-.692-5.692-2.076-1.436-1.385-2.154-3.32-2.154-5.808 0-2.616.756-4.641 2.269-6.077 1.539-1.461 3.5-2.192 5.885-2.192 1.718 0 3.359.333 4.923 1v3.615h-2.308v-2.154c-.743-.256-1.666-.384-2.769-.384-1.769 0-3.128.5-4.077 1.5-.949.974-1.423 2.384-1.423 4.23 0 2.052.474 3.59 1.423 4.616.949 1.025 2.346 1.538 4.192 1.538 1.667 0 3.321-.449 4.962-1.346v2.308zM186.294 21.444c0-2.513.705-4.5 2.115-5.962 1.41-1.461 3.205-2.192 5.385-2.192 2.153 0 3.871.692 5.153 2.077 1.308 1.359 1.962 3.269 1.962 5.73 0 2.564-.692 4.603-2.077 6.116-1.359 1.487-3.141 2.23-5.346 2.23-2.154 0-3.898-.717-5.231-2.153-1.308-1.436-1.961-3.385-1.961-5.846zm2.5-.347c0 2.052.423 3.603 1.269 4.654.846 1.051 2.064 1.577 3.654 1.577 1.513 0 2.666-.5 3.461-1.5.821-1 1.231-2.487 1.231-4.461 0-2-.41-3.488-1.231-4.462-.795-1-2.013-1.5-3.654-1.5-1.461 0-2.615.462-3.461 1.385-.846.897-1.269 2.333-1.269 4.307zM203.861 27.328h2.308V15.405h-2.308V13.29h4.462l.154 2.192h.077c1.359-1.461 2.987-2.192 4.884-2.192 2.026 0 3.398.846 4.116 2.538h.115c1.436-1.692 3.167-2.538 5.192-2.538 1.462 0 2.565.41 3.308 1.23.769.821 1.154 1.975 1.154 3.462v9.346h2.308v2.116h-6.923v-2.116h2.307v-8.73c0-1.129-.243-1.936-.731-2.424-.487-.512-1.179-.769-2.076-.769-1.616 0-3.052.82-4.308 2.462v9.461h2.308v2.116h-6.923v-2.116h2.307v-8.73c0-1.129-.243-1.936-.731-2.424-.487-.512-1.179-.769-2.076-.769-1.616 0-3.052.82-4.308 2.462v9.461h2.308v2.116h-6.924v-2.116z"/></mask><path fill="#12100C" d="M50.371 27.328h2.308V10.79H50.37V8.674h7.154c3.385 0 5.949.834 7.692 2.5 1.77 1.641 2.654 4.077 2.654 7.308 0 3.667-.961 6.41-2.884 8.23-1.924 1.821-4.539 2.732-7.847 2.732h-6.769v-2.116zm4.615 0h2.385c2.564 0 4.539-.705 5.923-2.115 1.385-1.436 2.077-3.59 2.077-6.462 0-2.666-.64-4.654-1.923-5.961-1.256-1.334-3.27-2-6.038-2h-2.423v16.538zM79.561 27.328c1.667 0 3.308-.526 4.923-1.577v2.27c-1.666.948-3.41 1.422-5.23 1.422-2.308 0-4.129-.717-5.462-2.153-1.334-1.462-2-3.36-2-5.693 0-2.615.654-4.654 1.961-6.115 1.334-1.461 3.077-2.192 5.231-2.192 1.872 0 3.32.64 4.346 1.923 1.026 1.256 1.539 3.013 1.539 5.269v1.192H74.292c.077 1.77.525 3.154 1.346 4.154.846 1 2.154 1.5 3.923 1.5zm3-7.77c-.128-2.768-1.41-4.153-3.846-4.153-1.282 0-2.282.372-3 1.115-.692.718-1.128 1.731-1.308 3.039h8.154zM94.814 29.444h-2.423l-5-14.039h-1.884V13.29h6.153v2.115h-1.846L93.7 26.444h.115l4.154-11.039h-1.692V13.29h5.385v2.115h-1.539l-5.308 14.039zM104.029 19.02c0-3.102.872-5.602 2.616-7.5 1.743-1.897 4.077-2.846 7-2.846 2.846 0 5.089.91 6.73 2.731 1.667 1.82 2.5 4.27 2.5 7.346 0 3.282-.871 5.885-2.615 7.808-1.744 1.923-4.038 2.884-6.885 2.884-2.82 0-5.089-.935-6.807-2.807-1.693-1.898-2.539-4.436-2.539-7.616zm2.5-.153c0 2.564.616 4.615 1.846 6.153 1.231 1.539 2.924 2.308 5.077 2.308 2.18 0 3.872-.77 5.077-2.308 1.231-1.538 1.846-3.59 1.846-6.153 0-2.436-.589-4.385-1.769-5.847-1.154-1.487-2.859-2.23-5.115-2.23-2.231 0-3.949.718-5.154 2.154-1.205 1.41-1.808 3.384-1.808 5.923zM132.957 34.251v2.116h-6.923V34.25h2.307V15.405h-2.307V13.29h4.461l.154 1.846h.154c1.333-1.23 2.795-1.846 4.385-1.846 1.846 0 3.346.73 4.5 2.192 1.153 1.436 1.73 3.295 1.73 5.577 0 2.487-.679 4.513-2.038 6.077-1.334 1.538-3.051 2.308-5.154 2.308a8.742 8.742 0 01-3.5-.731l-.077.038v5.5h2.308zm-2.308-7.577c.949.436 2.039.654 3.269.654 1.59 0 2.821-.461 3.693-1.384.871-.95 1.307-2.45 1.307-4.5 0-1.924-.397-3.41-1.192-4.462-.769-1.051-1.846-1.577-3.231-1.577-1.359 0-2.641.654-3.846 1.962v9.307zM145.525 17.713c0-1.41.576-2.5 1.73-3.27 1.18-.769 2.705-1.153 4.577-1.153 1.59 0 3.269.282 5.039.846v3.77h-2.308v-2.193a11.712 11.712 0 00-2.923-.346c-1.026 0-1.885.166-2.577.5-.692.333-1.038.846-1.038 1.538 0 .41.076.756.23 1.038.18.257.436.488.77.693.333.18.756.359 1.269.538.513.18 1.102.372 1.769.577.641.205 1.282.423 1.923.654.641.23 1.218.513 1.731.846.513.334.923.757 1.231 1.27.333.487.5 1.102.5 1.846 0 1.435-.603 2.564-1.808 3.384-1.205.795-2.795 1.192-4.769 1.192-1.77 0-3.487-.346-5.154-1.038v-3.577h2.308v2.192c.948.231 1.961.347 3.038.347 1.077 0 1.987-.167 2.731-.5.769-.36 1.154-.91 1.154-1.654 0-.795-.347-1.372-1.039-1.731-.666-.359-1.615-.718-2.846-1.077a34.236 34.236 0 01-1.962-.615 9.408 9.408 0 01-1.769-.846 4.536 4.536 0 01-1.307-1.308c-.334-.513-.5-1.154-.5-1.923zM161.932 27.559c0-.616.166-1.103.5-1.462.359-.359.846-.538 1.461-.538.59 0 1.052.18 1.385.538.359.334.538.795.538 1.385 0 .615-.179 1.103-.538 1.462-.359.333-.846.5-1.462.5-.589 0-1.051-.167-1.384-.5-.334-.36-.5-.821-.5-1.385zM183.348 28.213c-1.615.82-3.359 1.23-5.231 1.23-2.333 0-4.231-.692-5.692-2.076-1.436-1.385-2.154-3.32-2.154-5.808 0-2.616.756-4.641 2.269-6.077 1.539-1.461 3.5-2.192 5.885-2.192 1.718 0 3.359.333 4.923 1v3.615h-2.308v-2.154c-.743-.256-1.666-.384-2.769-.384-1.769 0-3.128.5-4.077 1.5-.949.974-1.423 2.384-1.423 4.23 0 2.052.474 3.59 1.423 4.616.949 1.025 2.346 1.538 4.192 1.538 1.667 0 3.321-.449 4.962-1.346v2.308zM186.294 21.444c0-2.513.705-4.5 2.115-5.962 1.41-1.461 3.205-2.192 5.385-2.192 2.153 0 3.871.692 5.153 2.077 1.308 1.359 1.962 3.269 1.962 5.73 0 2.564-.692 4.603-2.077 6.116-1.359 1.487-3.141 2.23-5.346 2.23-2.154 0-3.898-.717-5.231-2.153-1.308-1.436-1.961-3.385-1.961-5.846zm2.5-.347c0 2.052.423 3.603 1.269 4.654.846 1.051 2.064 1.577 3.654 1.577 1.513 0 2.666-.5 3.461-1.5.821-1 1.231-2.487 1.231-4.461 0-2-.41-3.488-1.231-4.462-.795-1-2.013-1.5-3.654-1.5-1.461 0-2.615.462-3.461 1.385-.846.897-1.269 2.333-1.269 4.307zM203.861 27.328h2.308V15.405h-2.308V13.29h4.462l.154 2.192h.077c1.359-1.461 2.987-2.192 4.884-2.192 2.026 0 3.398.846 4.116 2.538h.115c1.436-1.692 3.167-2.538 5.192-2.538 1.462 0 2.565.41 3.308 1.23.769.821 1.154 1.975 1.154 3.462v9.346h2.308v2.116h-6.923v-2.116h2.307v-8.73c0-1.129-.243-1.936-.731-2.424-.487-.512-1.179-.769-2.076-.769-1.616 0-3.052.82-4.308 2.462v9.461h2.308v2.116h-6.923v-2.116h2.307v-8.73c0-1.129-.243-1.936-.731-2.424-.487-.512-1.179-.769-2.076-.769-1.616 0-3.052.82-4.308 2.462v9.461h2.308v2.116h-6.924v-2.116z"/><path stroke="#12100C" stroke-opacity=".7" stroke-width=".6" d="M50.371 27.328h2.308V10.79H50.37V8.674h7.154c3.385 0 5.949.834 7.692 2.5 1.77 1.641 2.654 4.077 2.654 7.308 0 3.667-.961 6.41-2.884 8.23-1.924 1.821-4.539 2.732-7.847 2.732h-6.769v-2.116zm4.615 0h2.385c2.564 0 4.539-.705 5.923-2.115 1.385-1.436 2.077-3.59 2.077-6.462 0-2.666-.64-4.654-1.923-5.961-1.256-1.334-3.27-2-6.038-2h-2.423v16.538zM79.561 27.328c1.667 0 3.308-.526 4.923-1.577v2.27c-1.666.948-3.41 1.422-5.23 1.422-2.308 0-4.129-.717-5.462-2.153-1.334-1.462-2-3.36-2-5.693 0-2.615.654-4.654 1.961-6.115 1.334-1.461 3.077-2.192 5.231-2.192 1.872 0 3.32.64 4.346 1.923 1.026 1.256 1.539 3.013 1.539 5.269v1.192H74.292c.077 1.77.525 3.154 1.346 4.154.846 1 2.154 1.5 3.923 1.5zm3-7.77c-.128-2.768-1.41-4.153-3.846-4.153-1.282 0-2.282.372-3 1.115-.692.718-1.128 1.731-1.308 3.039h8.154zM94.814 29.444h-2.423l-5-14.039h-1.884V13.29h6.153v2.115h-1.846L93.7 26.444h.115l4.154-11.039h-1.692V13.29h5.385v2.115h-1.539l-5.308 14.039zM104.029 19.02c0-3.102.872-5.602 2.616-7.5 1.743-1.897 4.077-2.846 7-2.846 2.846 0 5.089.91 6.73 2.731 1.667 1.82 2.5 4.27 2.5 7.346 0 3.282-.871 5.885-2.615 7.808-1.744 1.923-4.038 2.884-6.885 2.884-2.82 0-5.089-.935-6.807-2.807-1.693-1.898-2.539-4.436-2.539-7.616zm2.5-.153c0 2.564.616 4.615 1.846 6.153 1.231 1.539 2.924 2.308 5.077 2.308 2.18 0 3.872-.77 5.077-2.308 1.231-1.538 1.846-3.59 1.846-6.153 0-2.436-.589-4.385-1.769-5.847-1.154-1.487-2.859-2.23-5.115-2.23-2.231 0-3.949.718-5.154 2.154-1.205 1.41-1.808 3.384-1.808 5.923zM132.957 34.251v2.116h-6.923V34.25h2.307V15.405h-2.307V13.29h4.461l.154 1.846h.154c1.333-1.23 2.795-1.846 4.385-1.846 1.846 0 3.346.73 4.5 2.192 1.153 1.436 1.73 3.295 1.73 5.577 0 2.487-.679 4.513-2.038 6.077-1.334 1.538-3.051 2.308-5.154 2.308a8.742 8.742 0 01-3.5-.731l-.077.038v5.5h2.308zm-2.308-7.577c.949.436 2.039.654 3.269.654 1.59 0 2.821-.461 3.693-1.384.871-.95 1.307-2.45 1.307-4.5 0-1.924-.397-3.41-1.192-4.462-.769-1.051-1.846-1.577-3.231-1.577-1.359 0-2.641.654-3.846 1.962v9.307zM145.525 17.713c0-1.41.576-2.5 1.73-3.27 1.18-.769 2.705-1.153 4.577-1.153 1.59 0 3.269.282 5.039.846v3.77h-2.308v-2.193a11.712 11.712 0 00-2.923-.346c-1.026 0-1.885.166-2.577.5-.692.333-1.038.846-1.038 1.538 0 .41.076.756.23 1.038.18.257.436.488.77.693.333.18.756.359 1.269.538.513.18 1.102.372 1.769.577.641.205 1.282.423 1.923.654.641.23 1.218.513 1.731.846.513.334.923.757 1.231 1.27.333.487.5 1.102.5 1.846 0 1.435-.603 2.564-1.808 3.384-1.205.795-2.795 1.192-4.769 1.192-1.77 0-3.487-.346-5.154-1.038v-3.577h2.308v2.192c.948.231 1.961.347 3.038.347 1.077 0 1.987-.167 2.731-.5.769-.36 1.154-.91 1.154-1.654 0-.795-.347-1.372-1.039-1.731-.666-.359-1.615-.718-2.846-1.077a34.236 34.236 0 01-1.962-.615 9.408 9.408 0 01-1.769-.846 4.536 4.536 0 01-1.307-1.308c-.334-.513-.5-1.154-.5-1.923zM161.932 27.559c0-.616.166-1.103.5-1.462.359-.359.846-.538 1.461-.538.59 0 1.052.18 1.385.538.359.334.538.795.538 1.385 0 .615-.179 1.103-.538 1.462-.359.333-.846.5-1.462.5-.589 0-1.051-.167-1.384-.5-.334-.36-.5-.821-.5-1.385zM183.348 28.213c-1.615.82-3.359 1.23-5.231 1.23-2.333 0-4.231-.692-5.692-2.076-1.436-1.385-2.154-3.32-2.154-5.808 0-2.616.756-4.641 2.269-6.077 1.539-1.461 3.5-2.192 5.885-2.192 1.718 0 3.359.333 4.923 1v3.615h-2.308v-2.154c-.743-.256-1.666-.384-2.769-.384-1.769 0-3.128.5-4.077 1.5-.949.974-1.423 2.384-1.423 4.23 0 2.052.474 3.59 1.423 4.616.949 1.025 2.346 1.538 4.192 1.538 1.667 0 3.321-.449 4.962-1.346v2.308zM186.294 21.444c0-2.513.705-4.5 2.115-5.962 1.41-1.461 3.205-2.192 5.385-2.192 2.153 0 3.871.692 5.153 2.077 1.308 1.359 1.962 3.269 1.962 5.73 0 2.564-.692 4.603-2.077 6.116-1.359 1.487-3.141 2.23-5.346 2.23-2.154 0-3.898-.717-5.231-2.153-1.308-1.436-1.961-3.385-1.961-5.846zm2.5-.347c0 2.052.423 3.603 1.269 4.654.846 1.051 2.064 1.577 3.654 1.577 1.513 0 2.666-.5 3.461-1.5.821-1 1.231-2.487 1.231-4.461 0-2-.41-3.488-1.231-4.462-.795-1-2.013-1.5-3.654-1.5-1.461 0-2.615.462-3.461 1.385-.846.897-1.269 2.333-1.269 4.307zM203.861 27.328h2.308V15.405h-2.308V13.29h4.462l.154 2.192h.077c1.359-1.461 2.987-2.192 4.884-2.192 2.026 0 3.398.846 4.116 2.538h.115c1.436-1.692 3.167-2.538 5.192-2.538 1.462 0 2.565.41 3.308 1.23.769.821 1.154 1.975 1.154 3.462v9.346h2.308v2.116h-6.923v-2.116h2.307v-8.73c0-1.129-.243-1.936-.731-2.424-.487-.512-1.179-.769-2.076-.769-1.616 0-3.052.82-4.308 2.462v9.461h2.308v2.116h-6.923v-2.116h2.307v-8.73c0-1.129-.243-1.936-.731-2.424-.487-.512-1.179-.769-2.076-.769-1.616 0-3.052.82-4.308 2.462v9.461h2.308v2.116h-6.924v-2.116z" mask="url(#a)"/></svg>