<svg xmlns="http://www.w3.org/2000/svg" width="334" height="40" fill="none"><g fill="#12100C" clip-path="url(#clip0)"><path d="M.041.874v6.894h9.815v31.425h8.503V7.768h9.608V.874H.041zM218.893.874v6.894h9.816v31.425h8.501V7.768h9.607V.874h-27.924zM31.092 39.194h8.61V22.57h10.69v16.623h8.504V.804h-8.66v14.873H39.647V.805h-8.556v38.389zM162.873.805h-8.557v38.389l8.583-18.444-.026-19.945z"/><path d="M162.898 20.75l.028 18.444 9.259-19.95V.804l-9.287 19.946z"/><path d="M154.316 39.195h8.61l-.027-18.444-8.583 18.444zM180.741.805l-8.555 18.439v19.95l8.581-18.444-.026-19.945zM172.186.805v18.439l8.555-18.44h-8.555z"/><path d="M190.052.805l-9.286 19.945.027 18.444L198.607.804h-8.555z"/><path d="M172.186 39.195h8.609l-.028-18.444-8.581 18.444zM125.924 39.122h24.129v-6.894h-15.626V22.57h11.915v-6.895h-12.019V7.768h15.73V.874h-24.129v38.248zM64.098 39.122h24.128v-6.894H72.602V22.57h11.915v-6.895h-12.02V7.768h15.729V.874H64.098v38.248zM93.484 39.194h7.478v-17.9c0-.998-.192-5.888-.234-6.99h.234c2.143 4.673 2.205 4.84 3.106 6.36l9.699 18.53h6.734V.805h-7.478v14.342c0 1.469 0 1.782.14 4.418l.185 3.883h-.226c-.151-.262-.719-1.679-.886-1.994a54.414 54.414 0 00-1.418-2.626L101.304.806h-7.819v38.388zM252.062.883l-10.869 38.31h8.244l1.995-7.874h11.811l1.941 7.873h8.241L262.297.883h-10.235zm9.501 24.416h-8.659l4.198-17.539h.21l4.251 17.54zM273.327 25.285c0 7.874 1.995 9.98 3.535 11.442 2.353 2.266 5.381 3.273 9.747 3.273 1.644 0 5.58-.35 8.311-2.465 3.203-2.469 3.728-5.164 4.043-6.686.262-1.627.317-1.944.368-4.724h-8.505c0 4.146-1.023 6.98-4.418 6.98-4.574 0-4.574-4.04-4.574-6.14V12.31c0-1.06.054-2.95 1.389-4.206.868-.79 2.187-1.21 3.239-1.21 4.208 0 4.311 4.2 4.364 6.097h8.505c-.106-3.106-.525-7.796-4.016-10.471C292.618.463 289.144 0 286.824 0c-8.888 0-13.498 4.89-13.498 13.675v11.61h.001zM302.145 39.194h8.61V.804h-8.61v38.39zM322.722.804l-11.649 18.523 12.754 19.868h10.131l-13.7-20.498L332.017.806l-9.295-.001zM210.122.874c-8.04 0-12.105 4.444-12.105 10.751 0 7.542 4.444 9.213 10.252 11.452 6.377 2.231 8.12 2.852 8.12 5.714 0 3.48-3.649 4.312-5.68 4.312-3.656 0-6.359-1.976-7.6-5.196l-5.88 4.314c3.149 6.159 6.666 7.777 13.884 7.777 2.143 0 5.634-.577 7.796-1.933 5.248-3.29 5.248-8.391 5.248-10.106 0-3.585-1.618-6.08-2.075-6.703-1.46-2.083-4.076-3.639-6.385-4.47l-5.399-1.768c-2.607-.84-5.389-1.049-5.389-3.75 0-.405.106-3.23 4.356-3.502h6.711V.874h-5.854z"/></g><defs><clipPath id="clip0"><path fill="#fff" d="M0 0h333.916v40H0z" transform="translate(.041)"/></clipPath></defs></svg>