<svg xmlns="http://www.w3.org/2000/svg" width="274" height="40" fill="none"><g fill="#12100C" clip-path="url(#clip0)"><path d="M112.397 21.568c-1.683 1.282-3.446 2.484-5.289 3.686-1.763 1.122-3.366 2.004-4.809 2.485-1.442.48-2.324.4-2.885-.24-.48-.802-.48-2.084-.08-3.687.4-1.603 1.042-3.286 1.763-5.05.802-1.602 1.443-3.205 2.004-4.808.561-1.602.801-3.285.801-4.968 0-1.683-.561-3.366-1.523-4.969-.881-1.362-2.163-2.404-3.927-3.045C96.69.33 94.767-.07 92.603.01c-2.163 0-4.247.4-6.33 1.202-1.604.641-3.126 1.523-4.489 2.805-1.362 1.282-2.404 2.885-3.205 4.728a10.79 10.79 0 00-.561 2.725c-.08 1.122-.16 2.084-.16 3.045v1.443a98.395 98.395 0 00-2.966 2.244 23.88 23.88 0 00-3.285 3.125c-1.122 1.363-2.084 2.645-2.885 4.007-.802 1.283-1.283 2.324-1.443 3.046-.08.32 0 1.042.24 2.404.24 1.282.962 2.805 2.004 4.488 1.042 1.683 2.885 3.285 5.29 4.728 0 0 .08 0 .16-.16l.16-.16c-.08 0-.32-.321-.882-.962-.56-.641-1.041-1.443-1.522-2.404-.481-.962-.722-2.004-.641-3.046.08-1.442 1.041-2.805 2.804-4.007 1.763-1.202 4.809-2.324 9.136-3.205a10.601 10.601 0 003.206-1.443c.882-.641 1.362-.962 1.442-1.042-.32 3.446.24 6.572 1.844 9.377 1.282 2.404 3.045 4.487 5.129 6.41l19.955-19.954v-.08c-.882.48-2.004 1.282-3.206 2.244zm-26.126-11.06c-.32.802-.64 1.683-.961 2.485-.321.801-.481 1.282-.481 1.442.08.08.24.32.56.722.321.32.482.56.562.72 0 .161-.08.722-.32 1.443-.241.722-.722 1.283-1.523 1.683-.962.401-1.844.401-2.725.24-.882-.24-1.523-.48-2.004-.8-.48-.321-.801-.562-.801-.562l8.174-8.895v.32c0-.08-.16.321-.48 1.203zM268.992 6.983c2.404 0 4.247 1.844 4.247 4.168s-1.843 4.167-4.247 4.167c-2.405 0-4.328-1.843-4.328-4.167s1.923-4.168 4.328-4.168zm-.081.802c-1.843 0-3.205 1.522-3.205 3.285 0 1.844 1.362 3.286 3.286 3.286 1.843 0 3.205-1.442 3.205-3.286-.08-1.763-1.362-3.285-3.286-3.285zm-.641 5.45h-.961V9.146c.4-.08.881-.16 1.602-.16.802 0 1.122.16 1.443.32.24.16.401.481.401.882 0 .48-.321.801-.882.962v.08c.401.16.641.48.802 1.042.16.64.16.881.32 1.042h-1.042c-.16-.16-.16-.481-.32-.962-.08-.481-.321-.641-.882-.641h-.481v1.522zm0-2.325h.481c.561 0 .962-.16.962-.64 0-.402-.321-.642-.882-.642-.24 0-.4 0-.561.08v1.202zM.762 4.739h23.32v7.052h-6.41v19.073H7.252V11.791H.762V4.739z"/><path d="M44.438 30.864h-8.815v-11.06c0-.72-.16-1.281-.401-1.602-.24-.32-.641-.48-1.202-.48-.561 0-.882.16-1.202.48-.32.32-.401.962-.401 1.923v10.82h-8.896V4.738h8.896v10.418c.641-1.042 1.362-1.763 2.244-2.244.881-.481 2.003-.722 3.366-.722.962 0 1.763.08 2.484.321.721.24 1.282.48 1.763.882.481.4.882.801 1.202 1.282.32.48.561 1.122.722 2.003.16.722.24 1.764.24 3.206v10.98zM66.315 23.331H53.733v.641c0 1.202.16 2.004.561 2.404.4.401.962.642 1.843.642.641 0 1.202-.16 1.603-.561.4-.401.641-.882.721-1.603h7.694c0 .801-.32 1.683-.882 2.645a7.041 7.041 0 01-2.083 2.243c-.802.561-1.764.962-2.966 1.283-1.202.32-2.644.48-4.327.48-1.523 0-2.805-.16-3.927-.4-1.122-.24-2.164-.721-2.965-1.363-.882-.64-1.603-1.442-2.244-2.404-.481-.721-.802-1.522-1.042-2.484s-.4-2.004-.4-3.045c0-1.844.24-3.366.8-4.649.401-.961 1.123-1.843 2.004-2.644.962-.802 2.004-1.443 3.046-1.763 1.442-.481 3.125-.722 4.968-.722s3.446.24 4.648.722c1.283.48 2.324 1.202 3.286 2.244.721.801 1.282 1.763 1.683 2.885.4 1.122.561 2.564.561 4.087v1.362zm-7.934-3.846c0-1.042-.16-1.683-.32-2.084-.401-.641-1.042-.882-1.924-.882-.881 0-1.522.32-1.923.882-.32.4-.48 1.122-.48 2.084h4.647zM113.68 4.656h15.627c3.286 0 5.61.561 6.892 1.763 1.362 1.122 2.004 2.805 2.004 4.889 0 .881-.161 1.683-.401 2.404-.241.721-.561 1.362-1.042 1.843-.481.48-.962.882-1.603 1.202-.481.24-1.202.561-2.164.882 1.042.16 1.844.4 2.405.64.561.241.961.642 1.282 1.043.32.4.561.961.721 1.763.16.721.401 2.163.641 4.247.321 2.565.722 4.408 1.122 5.69h-10.178c-.16-.4-.24-.801-.32-1.202-.08-.4-.16-1.042-.321-2.084l-.481-3.526c-.16-.881-.32-1.442-.48-1.763-.161-.32-.401-.56-.722-.641-.32-.08-.881-.16-1.602-.16h-1.122v9.296H113.68V4.656zm10.177 10.98h.802c.721 0 1.362-.081 1.923-.241.561-.16.962-.481 1.282-.882.321-.4.401-.961.401-1.603 0-.801-.24-1.362-.721-1.763-.481-.4-1.443-.56-2.885-.56h-.802v5.048z"/><path d="M159.6 23.331h-12.582v.641c0 1.202.16 2.004.561 2.404.401.401.962.642 1.843.642.642 0 1.203-.16 1.603-.561.401-.401.641-.882.721-1.603h7.694c0 .801-.321 1.683-.882 2.645a7.044 7.044 0 01-2.083 2.243c-.802.561-1.763.962-2.965 1.283-1.203.32-2.645.48-4.328.48-1.523 0-2.805-.16-3.927-.4-1.122-.24-2.084-.721-2.965-1.363-.882-.64-1.603-1.442-2.244-2.404-.481-.721-.801-1.522-1.042-2.484-.24-.962-.4-2.004-.4-3.045 0-1.844.32-3.366.801-4.649.401-.961 1.122-1.843 2.003-2.644.962-.802 1.924-1.443 3.046-1.763 1.442-.481 3.125-.722 4.968-.722 1.844 0 3.446.24 4.649.722 1.282.48 2.324 1.202 3.285 2.244.722.801 1.283 1.763 1.683 2.885.401 1.122.561 2.564.561 4.087.08.48 0 .961 0 1.362zm-7.854-3.846c0-1.042-.08-1.683-.32-2.084-.401-.641-1.042-.882-1.923-.882-.882 0-1.523.32-1.924.882-.32.4-.481 1.122-.481 2.084h4.648zM173.459 14.675l.321-1.923h8.254v15.787c0 1.683-.08 2.885-.24 3.607-.24 1.041-.641 2.003-1.122 2.724-.561.722-1.282 1.363-2.164 1.924-.881.56-2.083.881-3.366 1.202-1.282.32-2.724.4-4.247.4-3.526 0-6.01-.56-7.453-1.682-1.443-1.122-2.244-2.645-2.324-4.568h8.495c0 .48.16.801.481 1.041.32.24.721.401 1.362.401.882 0 1.523-.32 1.843-.881.241-.481.401-1.283.401-2.565V28.3c-.481.721-1.202 1.282-2.164 1.763-.962.4-2.084.641-3.366.641-2.725 0-4.728-.962-6.251-2.805-1.202-1.522-1.763-3.446-1.763-5.93 0-3.126.722-5.45 2.244-7.133 1.523-1.683 3.366-2.484 5.69-2.484 1.362 0 2.484.24 3.286.641.801.32 1.523.962 2.083 1.683zm-2.324 10.98c.561 0 .962-.161 1.283-.401.32-.24.561-.642.641-1.122.08-.481.16-1.443.16-2.725 0-1.202-.08-2.004-.16-2.484-.16-.481-.321-.802-.641-1.122-.321-.24-.641-.321-1.122-.321-.481 0-.882.08-1.202.4-.321.321-.561.562-.722 1.043-.16.56-.24 1.683-.24 3.205 0 1.042.08 1.843.16 2.244.08.4.321.802.641 1.042.401.16.722.24 1.202.24zM183.402 10.347v-5.53h8.655v5.53h-8.655zm0 2.404h8.655v18.112h-8.655V12.75zM192.855 25.014h8.014c0 .882.161 1.523.481 1.924.321.4.802.56 1.443.56s1.122-.16 1.442-.4c.321-.24.481-.641.481-1.202 0-.481-.16-.802-.4-1.042-.321-.24-1.042-.481-2.244-.641l-3.206-.561c-1.362-.24-2.484-.561-3.206-.962-.48-.24-.881-.56-1.282-1.042-.401-.48-.721-.881-.881-1.442-.161-.561-.321-1.122-.321-1.843 0-1.523.401-2.725 1.202-3.607.802-.881 1.843-1.603 3.206-2.083 1.282-.481 3.045-.642 5.129-.642 1.522 0 2.885.16 4.247.401 1.282.24 2.404.721 3.206 1.363.801.64 1.442 1.362 1.763 2.243.16.481.32 1.203.32 2.164h-7.533c0-.801-.16-1.282-.4-1.603-.321-.32-.722-.48-1.363-.48s-1.122.08-1.442.4c-.321.32-.401.561-.401 1.042 0 .32.08.561.16.802.08.24.321.32.561.4.241.08.802.24 1.603.32l2.965.482c1.763.24 3.126.64 3.927 1.122a3.913 3.913 0 011.923 1.843 5.94 5.94 0 01.641 2.725c0 1.282-.32 2.484-.961 3.366-.641.881-1.683 1.682-3.046 2.243-1.362.561-3.365.882-6.01.882-1.443 0-2.645-.08-3.767-.24a10.712 10.712 0 01-2.805-.802 5.273 5.273 0 01-1.843-1.362c-.481-.561-.881-1.122-1.042-1.763-.4-.802-.561-1.603-.561-2.565zM214.818 9.708l8.655-3.045v6.01h4.087v5.45h-4.087v5.369c0 .881.08 1.442.401 1.683.24.32.641.4 1.122.4.641 0 1.442-.08 2.324-.32v5.37c-2.484.48-4.408.72-5.77.72-1.202 0-2.244-.16-3.206-.48-.961-.32-1.683-.721-2.244-1.362a5.293 5.293 0 01-.961-1.764c-.161-.56-.241-1.282-.241-2.244v-7.372h-2.404v-5.37h2.404l-.08-3.045z"/><path d="M248.313 23.331h-12.582v.641c0 1.202.16 2.004.561 2.404.401.401.962.642 1.843.642.641 0 1.202-.16 1.603-.561s.641-.882.721-1.603h7.614c0 .801-.321 1.683-.882 2.645a7.044 7.044 0 01-2.083 2.243c-.802.561-1.764.962-2.966 1.283-1.202.32-2.644.48-4.327.48-1.523 0-2.805-.16-3.927-.4-1.122-.24-2.084-.721-2.965-1.363-.882-.64-1.603-1.442-2.244-2.404-.481-.721-.802-1.522-1.042-2.484s-.401-2.004-.401-3.045c0-1.844.321-3.366.802-4.649.4-.961 1.122-1.843 2.003-2.644.962-.802 2.004-1.443 3.046-1.763 1.442-.481 3.125-.722 4.968-.722s3.446.24 4.648.722c1.283.48 2.324 1.202 3.286 2.244a7.278 7.278 0 011.603 2.885c.32 1.122.561 2.564.561 4.087.24.48.16.961.16 1.362zm-7.854-3.846c0-1.042-.08-1.683-.32-2.084-.401-.641-1.042-.882-1.923-.882-.882 0-1.523.32-1.924.882-.32.4-.401 1.122-.401 2.084h4.568zM249.273 12.511h8.415l.241 2.164c.801-.882 1.522-1.442 2.083-1.763.641-.32 1.202-.48 1.924-.48.641 0 1.282.16 2.083.4v6.972c-1.122-.24-1.843-.4-2.244-.4-.4 0-.721-.08-1.122-.08-.801 0-1.442.24-1.843.64-.401.401-.641 1.122-.641 2.084v8.896h-8.896V12.51z"/></g><defs><clipPath id="clip0"><path fill="#fff" d="M0 0h272.476v40H0z" transform="translate(.762)"/></clipPath></defs></svg>