<?xml version="1.0" encoding="UTF-8" standalone="no"?>
<!-- Created with Inkscape (http://www.inkscape.org/) -->

<svg
   xmlns:dc="http://purl.org/dc/elements/1.1/"
   xmlns:cc="http://creativecommons.org/ns#"
   xmlns:rdf="http://www.w3.org/1999/02/22-rdf-syntax-ns#"
   xmlns:svg="http://www.w3.org/2000/svg"
   xmlns="http://www.w3.org/2000/svg"
   version="1.1"
   width="20"
   height="20"
   viewBox="0 0 20 20"
   id="svg16357"
   xml:space="preserve"><metadata
   id="metadata10"><rdf:RDF><cc:Work
       rdf:about=""><dc:format>image/svg+xml</dc:format><dc:type
         rdf:resource="http://purl.org/dc/dcmitype/StillImage" /><dc:title></dc:title></cc:Work></rdf:RDF></metadata><defs
   id="defs8" />

<path
   d="M 19.764,10 C 19.764,4.607 15.393,0.236 10,0.236 4.607,0.236 0.236,4.607 0.236,10 c 0,5.393 4.371,9.764 9.764,9.764 5.393,0 9.764,-4.371 9.764,-9.764 z"
   id="path3525-73"
   style="fill:#b9b9b9;fill-opacity:1" />

<path
   d="m 8.538,7.322 c 0,-0.932 -0.755,-1.687 -1.687,-1.687 -0.932,0 -1.687,0.756 -1.687,1.687 0,0.931 0.755,1.687 1.687,1.687 0.932,0 1.687,-0.755 1.687,-1.687 z"
   id="path4331-9"
   style="opacity:0.9;fill:#2e3436" />
<path
   d="m 14.836,7.322 c 0,-0.932 -0.756,-1.687 -1.688,-1.687 -0.932,0 -1.687,0.755 -1.687,1.687 0,0.932 0.755,1.687 1.687,1.687 0.932,0 1.688,-0.755 1.688,-1.687 z"
   id="path4331-8-0"
   style="opacity:0.9;fill:#2e3436" />
<path
   d="M 6.4645001,14.576271 H 13.5355"
   id="path4296"
   style="opacity:0.9;fill:none;stroke:#2e3436;stroke-linecap:round" /></svg>